Archivo Black-Regular.ufo
<glyph name="quotedbl" format="1">
  <advance width="500"/>
  <unicode hex="0022"/>
  <outline>
    <contour>
      <point x="441" y="688" type="line"/>
      <point x="278" y="688" type="line"/>
      <point x="278" y="541" type="line"/>
      <point x="325" y="398" type="line"/>
      <point x="393" y="398" type="line"/>
      <point x="441" y="541" type="line"/>
    </contour>
    <contour>
      <point x="222" y="688" type="line"/>
      <point x="59" y="688" type="line"/>
      <point x="59" y="541" type="line"/>
      <point x="106" y="398" type="line"/>
      <point x="175" y="398" type="line"/>
      <point x="222" y="541" type="line"/>
    </contour>
  </outline>
</glyph>
<glyph name="dollar" format="1">
  <advance width="667"/>
  <unicode hex="0024"/>
  <outline>
    <contour>
      <point x="397" y="756" type="line"/>
      <point x="284" y="756" type="line"/>
      <point x="291" y="618" type="line"/>
      <point x="176" y="608"/>
      <point x="83" y="562"/>
      <point x="83" y="442" type="curve" smooth="yes"/>
      <point x="83" y="234"/>
      <point x="424" y="306"/>
      <point x="424" y="227" type="curve" smooth="yes"/>
      <point x="424" y="190"/>
      <point x="369" y="188"/>
      <point x="341" y="188" type="curve" smooth="yes"/>
      <point x="312" y="188"/>
      <point x="255" y="198"/>
      <point x="254" y="249" type="curve"/>
      <point x="254" y="253" type="line"/>
      <point x="69" y="253" type="line"/>
      <point x="69" y="137"/>
      <point x="176" y="83"/>
      <point x="291" y="71" type="curve"/>
      <point x="284" y="-67" type="line"/>
      <point x="397" y="-67" type="line"/>
      <point x="389" y="70" type="line"/>
      <point x="513" y="79"/>
      <point x="614" y="127"/>
      <point x="614" y="256" type="curve" smooth="yes"/>
      <point x="614" y="471"/>
      <point x="273" y="392"/>
      <point x="273" y="468" type="curve" smooth="yes"/>
      <point x="273" y="502"/>
      <point x="328" y="502"/>
      <point x="345" y="502" type="curve" smooth="yes"/>
      <point x="372" y="502"/>
      <point x="415" y="493"/>
      <point x="416" y="451" type="curve"/>
      <point x="601" y="451" type="line"/>
      <point x="601" y="562"/>
      <point x="500" y="610"/>
      <point x="389" y="619" type="curve"/>
    </contour>
  </outline>
</glyph>
<glyph name="percent" format="1">
  <advance width="1000"/>
  <unicode hex="0025"/>
  <outline>
    <contour>
      <point x="100" y="700"/>
      <point x="46" y="628"/>
      <point x="46" y="520" type="curve" smooth="yes"/>
      <point x="46" y="414"/>
      <point x="100" y="342"/>
      <point x="230" y="342" type="curve" smooth="yes"/>
      <point x="360" y="342"/>
      <point x="413" y="414"/>
      <point x="413" y="520" type="curve" smooth="yes"/>
      <point x="413" y="628"/>
      <point x="360" y="700"/>
      <point x="230" y="700" type="curve" smooth="yes"/>
    </contour>
    <contour>
      <point x="274" y="624"/>
      <point x="289" y="587"/>
      <point x="289" y="537" type="curve" smooth="yes"/>
      <point x="289" y="505" type="line" smooth="yes"/>
      <point x="289" y="455"/>
      <point x="274" y="418"/>
      <point x="230" y="418" type="curve" smooth="yes"/>
      <point x="187" y="418"/>
      <point x="170" y="455"/>
      <point x="170" y="505" type="curve" smooth="yes"/>
      <point x="170" y="537" type="line" smooth="yes"/>
      <point x="170" y="587"/>
      <point x="187" y="624"/>
      <point x="230" y="624" type="curve" smooth="yes"/>
    </contour>
    <contour>
      <point x="632" y="346"/>
      <point x="578" y="274"/>
      <point x="578" y="166" type="curve" smooth="yes"/>
      <point x="578" y="60"/>
      <point x="632" y="-12"/>
      <point x="762" y="-12" type="curve" smooth="yes"/>
      <point x="892" y="-12"/>
      <point x="945" y="60"/>
      <point x="945" y="166" type="curve" smooth="yes"/>
      <point x="945" y="274"/>
      <point x="892" y="346"/>
      <point x="762" y="346" type="curve" smooth="yes"/>
    </contour>
    <contour>
      <point x="806" y="270"/>
      <point x="821" y="233"/>
      <point x="821" y="183" type="curve" smooth="yes"/>
      <point x="821" y="151" type="line" smooth="yes"/>
      <point x="821" y="101"/>
      <point x="806" y="64"/>
      <point x="762" y="64" type="curve" smooth="yes"/>
      <point x="719" y="64"/>
      <point x="702" y="101"/>
      <point x="702" y="151" type="curve" smooth="yes"/>
      <point x="702" y="183" type="line" smooth="yes"/>
      <point x="702" y="233"/>
      <point x="719" y="270"/>
      <point x="762" y="270" type="curve" smooth="yes"/>
    </contour>
    <contour>
      <point x="759" y="687" type="line"/>
      <point x="650" y="687" type="line"/>
      <point x="231" y="0" type="line"/>
      <point x="342" y="0" type="line"/>
    </contour>
  </outline>
</glyph>
<glyph name="ampersand" format="1">
  <advance width="889"/>
  <unicode hex="0026"/>
  <outline>
    <contour>
      <point x="203" y="700"/>
      <point x="95" y="609"/>
      <point x="95" y="503" type="curve" smooth="yes"/>
      <point x="95" y="438"/>
      <point x="139" y="382"/>
      <point x="195" y="361" type="curve"/>
      <point x="195" y="357" type="line"/>
      <point x="120" y="333"/>
      <point x="75" y="273"/>
      <point x="75" y="192" type="curve" smooth="yes"/>
      <point x="75" y="76"/>
      <point x="180" y="-12"/>
      <point x="423" y="-12" type="curve" smooth="yes"/>
      <point x="657" y="-12"/>
      <point x="751" y="79"/>
      <point x="751" y="222" type="curve" smooth="yes"/>
      <point x="751" y="289" type="line"/>
      <point x="888" y="289" type="line"/>
      <point x="888" y="412" type="line"/>
      <point x="572" y="412" type="line"/>
      <point x="572" y="218" type="line" smooth="yes"/>
      <point x="572" y="169"/>
      <point x="539" y="129"/>
      <point x="422" y="129" type="curve" smooth="yes"/>
      <point x="317" y="129"/>
      <point x="278" y="166"/>
      <point x="278" y="217" type="curve" smooth="yes"/>
      <point x="278" y="266"/>
      <point x="309" y="289"/>
      <point x="348" y="289" type="curve" smooth="yes"/>
      <point x="474" y="289" type="line"/>
      <point x="474" y="412" type="line"/>
      <point x="370" y="412" type="line" smooth="yes"/>
      <point x="333" y="412"/>
      <point x="299" y="431"/>
      <point x="299" y="475" type="curve" smooth="yes"/>
      <point x="299" y="517"/>
      <point x="339" y="559"/>
      <point x="430" y="559" type="curve" smooth="yes"/>
      <point x="527" y="559"/>
      <point x="572" y="526"/>
      <point x="572" y="487" type="curve"/>
      <point x="749" y="487" type="line"/>
      <point x="749" y="512" type="line" smooth="yes"/>
      <point x="749" y="615"/>
      <point x="627" y="700"/>
      <point x="417" y="700" type="curve" smooth="yes"/>
    </contour>
  </outline>
</glyph>
<glyph name="asterisk" format="1">
  <advance width="556"/>
  <unicode hex="002A"/>
  <outline>
    <contour>
      <point x="324" y="688" type="line"/>
      <point x="231" y="688" type="line"/>
      <point x="243" y="566" type="line"/>
      <point x="142" y="637" type="line"/>
      <point x="95" y="557" type="line"/>
      <point x="207" y="505" type="line"/>
      <point x="95" y="454" type="line"/>
      <point x="142" y="373" type="line"/>
      <point x="243" y="444" type="line"/>
      <point x="231" y="322" type="line"/>
      <point x="324" y="322" type="line"/>
      <point x="312" y="444" type="line"/>
      <point x="413" y="373" type="line"/>
      <point x="460" y="454" type="line"/>
      <point x="348" y="505" type="line"/>
      <point x="460" y="557" type="line"/>
      <point x="413" y="637" type="line"/>
      <point x="312" y="567" type="line"/>
    </contour>
  </outline>
</glyph>
<glyph name="plus" format="1">
  <advance width="660"/>
  <unicode hex="002B"/>
  <outline>
    <contour>
      <point x="396" y="528" type="line"/>
      <point x="264" y="528" type="line"/>
      <point x="264" y="330" type="line"/>
      <point x="66" y="330" type="line"/>
      <point x="66" y="198" type="line"/>
      <point x="264" y="198" type="line"/>
      <point x="264" y="0" type="line"/>
      <point x="396" y="0" type="line"/>
      <point x="396" y="198" type="line"/>
      <point x="594" y="198" type="line"/>
      <point x="594" y="330" type="line"/>
      <point x="396" y="330" type="line"/>
    </contour>
  </outline>
</glyph>
<glyph name="comma" format="1">
  <advance width="333"/>
  <unicode hex="002C"/>
  <outline>
    <contour>
      <point x="273" y="199" type="line"/>
      <point x="61" y="199" type="line"/>
      <point x="61" y="0" type="line"/>
      <point x="142" y="0" type="line"/>
      <point x="60" y="-183" type="line"/>
      <point x="168" y="-183" type="line"/>
      <point x="273" y="11" type="line"/>
    </contour>
  </outline>
</glyph>
<glyph name="hyphen" format="1">
  <advance width="333"/>
  <unicode hex="002D"/>
  <outline>
    <contour>
      <point x="294" y="354" type="line"/>
      <point x="39" y="354" type="line"/>
      <point x="39" y="196" type="line"/>
      <point x="294" y="196" type="line"/>
    </contour>
  </outline>
</glyph>
<glyph name="period" format="1">
  <advance width="333"/>
  <unicode hex="002E"/>
  <outline>
    <contour>
      <point x="273" y="199" type="line"/>
      <point x="61" y="199" type="line"/>
      <point x="61" y="0" type="line"/>
      <point x="273" y="0" type="line"/>
    </contour>
  </outline>
</glyph>
<glyph name="slash" format="1">
  <advance width="278"/>
  <unicode hex="002F"/>
  <outline>
    <contour>
      <point x="279" y="736" type="line"/>
      <point x="158" y="736" type="line"/>
      <point x="-2" y="-48" type="line"/>
      <point x="120" y="-48" type="line"/>
    </contour>
  </outline>
</glyph>
<glyph name="zero" format="1">
  <advance width="667"/>
  <unicode hex="0030"/>
  <outline>
    <contour>
      <point x="106" y="700"/>
      <point x="41" y="557"/>
      <point x="41" y="344" type="curve" smooth="yes"/>
      <point x="41" y="131"/>
      <point x="106" y="-12"/>
      <point x="334" y="-12" type="curve" smooth="yes"/>
      <point x="562" y="-12"/>
      <point x="626" y="131"/>
      <point x="626" y="344" type="curve" smooth="yes"/>
      <point x="626" y="557"/>
      <point x="562" y="700"/>
      <point x="334" y="700" type="curve" smooth="yes"/>
    </contour>
    <contour>
      <point x="404" y="565"/>
      <point x="428" y="515"/>
      <point x="428" y="394" type="curve" smooth="yes"/>
      <point x="428" y="295" type="line" smooth="yes"/>
      <point x="428" y="174"/>
      <point x="404" y="123"/>
      <point x="334" y="123" type="curve" smooth="yes"/>
      <point x="264" y="123"/>
      <point x="238" y="174"/>
      <point x="238" y="295" type="curve" smooth="yes"/>
      <point x="238" y="394" type="line" smooth="yes"/>
      <point x="238" y="515"/>
      <point x="264" y="565"/>
      <point x="334" y="565" type="curve" smooth="yes"/>
    </contour>
  </outline>
</glyph>
<glyph name="one" format="1">
  <advance width="667"/>
  <unicode hex="0031"/>
  <outline>
    <contour>
      <point x="467" y="689" type="line"/>
      <point x="400" y="689" type="line"/>
      <point x="322" y="638"/>
      <point x="198" y="587"/>
      <point x="105" y="581" type="curve"/>
      <point x="105" y="465" type="line"/>
      <point x="268" y="465" type="line"/>
      <point x="268" y="154" type="line"/>
      <point x="105" y="154" type="line"/>
      <point x="105" y="0" type="line"/>
      <point x="624" y="0" type="line"/>
      <point x="624" y="154" type="line"/>
      <point x="467" y="154" type="line"/>
    </contour>
  </outline>
</glyph>
<glyph name="two" format="1">
  <advance width="667"/>
  <unicode hex="0032"/>
  <outline>
    <contour>
      <point x="149" y="700"/>
      <point x="51" y="608"/>
      <point x="51" y="467" type="curve" smooth="yes"/>
      <point x="51" y="460"/>
      <point x="51" y="453"/>
      <point x="52" y="445" type="curve"/>
      <point x="230" y="445" type="line"/>
      <point x="230" y="465" type="line" smooth="yes"/>
      <point x="230" y="519"/>
      <point x="265" y="559"/>
      <point x="327" y="559" type="curve" smooth="yes"/>
      <point x="388" y="559"/>
      <point x="413" y="524"/>
      <point x="413" y="486" type="curve" smooth="yes"/>
      <point x="413" y="421"/>
      <point x="301" y="365"/>
      <point x="145" y="226" type="curve" smooth="yes"/>
      <point x="89" y="176"/>
      <point x="49" y="123"/>
      <point x="49" y="48" type="curve" smooth="yes"/>
      <point x="49" y="0" type="line"/>
      <point x="619" y="0" type="line"/>
      <point x="619" y="169" type="line"/>
      <point x="318" y="169" type="line"/>
      <point x="460" y="271"/>
      <point x="611" y="344"/>
      <point x="611" y="493" type="curve" smooth="yes"/>
      <point x="611" y="618"/>
      <point x="509" y="700"/>
      <point x="346" y="700" type="curve" smooth="yes"/>
    </contour>
  </outline>
</glyph>
<glyph name="three" format="1">
  <advance width="667"/>
  <unicode hex="0033"/>
  <outline>
    <contour>
      <point x="163" y="700"/>
      <point x="64" y="615"/>
      <point x="64" y="512" type="curve" smooth="yes"/>
      <point x="64" y="487" type="line"/>
      <point x="231" y="487" type="line"/>
      <point x="231" y="528"/>
      <point x="262" y="563"/>
      <point x="322" y="563" type="curve" smooth="yes"/>
      <point x="379" y="563"/>
      <point x="410" y="525"/>
      <point x="410" y="484" type="curve" smooth="yes"/>
      <point x="410" y="435"/>
      <point x="379" y="412"/>
      <point x="340" y="412" type="curve" smooth="yes"/>
      <point x="283" y="412" type="line"/>
      <point x="283" y="289" type="line"/>
      <point x="356" y="289" type="line" smooth="yes"/>
      <point x="395" y="289"/>
      <point x="426" y="266"/>
      <point x="426" y="217" type="curve" smooth="yes"/>
      <point x="426" y="164"/>
      <point x="399" y="125"/>
      <point x="322" y="125" type="curve" smooth="yes"/>
      <point x="242" y="125"/>
      <point x="218" y="162"/>
      <point x="218" y="207" type="curve"/>
      <point x="42" y="207" type="line"/>
      <point x="42" y="186" type="line" smooth="yes"/>
      <point x="42" y="77"/>
      <point x="134" y="-12"/>
      <point x="335" y="-12" type="curve" smooth="yes"/>
      <point x="533" y="-12"/>
      <point x="620" y="77"/>
      <point x="625" y="187" type="curve"/>
      <point x="625" y="271"/>
      <point x="581" y="333"/>
      <point x="505" y="357" type="curve"/>
      <point x="505" y="361" type="line"/>
      <point x="564" y="383"/>
      <point x="605" y="444"/>
      <point x="605" y="513" type="curve" smooth="yes"/>
      <point x="605" y="615"/>
      <point x="509" y="700"/>
      <point x="339" y="700" type="curve" smooth="yes"/>
    </contour>
  </outline>
</glyph>
<glyph name="four" format="1">
  <advance width="667"/>
  <unicode hex="0034"/>
  <outline>
    <contour>
      <point x="215" y="700" type="line"/>
      <point x="170" y="543"/>
      <point x="88" y="385"/>
      <point x="23" y="290" type="curve"/>
      <point x="23" y="141" type="line"/>
      <point x="358" y="141" type="line"/>
      <point x="358" y="0" type="line"/>
      <point x="548" y="0" type="line"/>
      <point x="548" y="141" type="line"/>
      <point x="644" y="141" type="line"/>
      <point x="644" y="288" type="line"/>
      <point x="548" y="288" type="line"/>
      <point x="548" y="634" type="line"/>
      <point x="463" y="634" type="line"/>
      <point x="449" y="577"/>
      <point x="392" y="480"/>
      <point x="358" y="431" type="curve"/>
      <point x="358" y="288" type="line"/>
      <point x="160" y="288" type="line"/>
      <point x="255" y="385"/>
      <point x="396" y="591"/>
      <point x="411" y="700" type="curve"/>
    </contour>
  </outline>
</glyph>
<glyph name="six" format="1">
  <advance width="667"/>
  <unicode hex="0036"/>
  <outline>
    <contour>
      <point x="139" y="700"/>
      <point x="41" y="594"/>
      <point x="41" y="327" type="curve" smooth="yes"/>
      <point x="41" y="94"/>
      <point x="139" y="-12"/>
      <point x="339" y="-12" type="curve" smooth="yes"/>
      <point x="517" y="-12"/>
      <point x="631" y="74"/>
      <point x="631" y="228" type="curve" smooth="yes"/>
      <point x="631" y="365"/>
      <point x="523" y="439"/>
      <point x="387" y="439" type="curve" smooth="yes"/>
      <point x="344" y="439"/>
      <point x="283" y="424"/>
      <point x="242" y="387" type="curve"/>
      <point x="242" y="445" type="line" smooth="yes"/>
      <point x="242" y="517"/>
      <point x="278" y="565"/>
      <point x="342" y="565" type="curve" smooth="yes"/>
      <point x="406" y="565"/>
      <point x="436" y="524"/>
      <point x="436" y="475" type="curve" smooth="yes"/>
      <point x="436" y="468" type="line"/>
      <point x="614" y="468" type="line"/>
      <point x="614" y="620"/>
      <point x="502" y="700"/>
      <point x="339" y="700" type="curve" smooth="yes"/>
    </contour>
    <contour>
      <point x="403" y="319"/>
      <point x="438" y="282"/>
      <point x="438" y="219" type="curve" smooth="yes"/>
      <point x="438" y="156"/>
      <point x="402" y="123"/>
      <point x="339" y="123" type="curve" smooth="yes"/>
      <point x="276" y="123"/>
      <point x="242" y="158"/>
      <point x="242" y="221" type="curve" smooth="yes"/>
      <point x="242" y="284"/>
      <point x="277" y="319"/>
      <point x="340" y="319" type="curve" smooth="yes"/>
    </contour>
  </outline>
</glyph>
<glyph name="seven" format="1">
  <advance width="667"/>
  <unicode hex="0037"/>
  <outline>
    <contour>
      <point x="625" y="688" type="line"/>
      <point x="45" y="688" type="line"/>
      <point x="45" y="516" type="line"/>
      <point x="375" y="516" type="line"/>
      <point x="250" y="370"/>
      <point x="158" y="190"/>
      <point x="158" y="0" type="curve"/>
      <point x="380" y="0" type="line"/>
      <point x="380" y="59" type="line" smooth="yes"/>
      <point x="380" y="262"/>
      <point x="498" y="440"/>
      <point x="625" y="597" type="curve"/>
    </contour>
  </outline>
</glyph>
<glyph name="nine" format="1">
  <advance width="667"/>
  <unicode hex="0039"/>
  <outline>
    <contour>
      <point x="150" y="700"/>
      <point x="36" y="614"/>
      <point x="36" y="460" type="curve" smooth="yes"/>
      <point x="36" y="323"/>
      <point x="144" y="249"/>
      <point x="280" y="249" type="curve" smooth="yes"/>
      <point x="323" y="249"/>
      <point x="384" y="264"/>
      <point x="425" y="301" type="curve"/>
      <point x="425" y="243" type="line" smooth="yes"/>
      <point x="425" y="171"/>
      <point x="389" y="123"/>
      <point x="325" y="123" type="curve" smooth="yes"/>
      <point x="261" y="123"/>
      <point x="231" y="164"/>
      <point x="231" y="213" type="curve" smooth="yes"/>
      <point x="231" y="220" type="line"/>
      <point x="53" y="220" type="line"/>
      <point x="53" y="68"/>
      <point x="165" y="-12"/>
      <point x="328" y="-12" type="curve" smooth="yes"/>
      <point x="528" y="-12"/>
      <point x="626" y="94"/>
      <point x="626" y="361" type="curve" smooth="yes"/>
      <point x="626" y="594"/>
      <point x="528" y="700"/>
      <point x="328" y="700" type="curve" smooth="yes"/>
    </contour>
    <contour>
      <point x="390" y="565"/>
      <point x="425" y="528"/>
      <point x="425" y="465" type="curve" smooth="yes"/>
      <point x="425" y="402"/>
      <point x="389" y="369"/>
      <point x="326" y="369" type="curve" smooth="yes"/>
      <point x="263" y="369"/>
      <point x="229" y="404"/>
      <point x="229" y="467" type="curve" smooth="yes"/>
      <point x="229" y="530"/>
      <point x="264" y="565"/>
      <point x="327" y="565" type="curve" smooth="yes"/>
    </contour>
  </outline>
</glyph>
<glyph name="colon" format="1">
  <advance width="333"/>
  <unicode hex="003A"/>
  <outline>
    <contour>
      <point x="273" y="528" type="line"/>
      <point x="61" y="528" type="line"/>
      <point x="61" y="328" type="line"/>
      <point x="273" y="328" type="line"/>
    </contour>
    <contour>
      <point x="273" y="199" type="line"/>
      <point x="61" y="199" type="line"/>
      <point x="61" y="0" type="line"/>
      <point x="273" y="0" type="line"/>
    </contour>
  </outline>
</glyph>
<glyph name="at" format="1">
  <advance width="740"/>
  <unicode hex="0040"/>
  <outline>
    <contour>
      <point x="176" y="700"/>
      <point x="20" y="583"/>
      <point x="20" y="266" type="curve" smooth="yes"/>
      <point x="20" y="-23"/>
      <point x="146" y="-149"/>
      <point x="350" y="-149" type="curve" smooth="yes"/>
      <point x="388" y="-149"/>
      <point x="458" y="-138"/>
      <point x="495" y="-122" type="curve"/>
      <point x="495" y="-56" type="line"/>
      <point x="463" y="-74"/>
      <point x="391" y="-88"/>
      <point x="350" y="-88" type="curve" smooth="yes"/>
      <point x="172" y="-88"/>
      <point x="88" y="31"/>
      <point x="88" y="265" type="curve" smooth="yes"/>
      <point x="88" y="517"/>
      <point x="190" y="639"/>
      <point x="380" y="639" type="curve" smooth="yes"/>
      <point x="540" y="639"/>
      <point x="652" y="547"/>
      <point x="652" y="324" type="curve" smooth="yes"/>
      <point x="652" y="172"/>
      <point x="616" y="154"/>
      <point x="602" y="154" type="curve" smooth="yes"/>
      <point x="587" y="154"/>
      <point x="573" y="160"/>
      <point x="573" y="184" type="curve" smooth="yes"/>
      <point x="573" y="343" type="line" smooth="yes"/>
      <point x="573" y="442"/>
      <point x="479" y="474"/>
      <point x="374" y="474" type="curve" smooth="yes"/>
      <point x="242" y="474"/>
      <point x="172" y="423"/>
      <point x="172" y="349" type="curve" smooth="yes"/>
      <point x="172" y="346"/>
      <point x="172" y="343"/>
      <point x="173" y="339" type="curve"/>
      <point x="322" y="339" type="line"/>
      <point x="322" y="370"/>
      <point x="349" y="378"/>
      <point x="372" y="378" type="curve" smooth="yes"/>
      <point x="399" y="378"/>
      <point x="420" y="361"/>
      <point x="420" y="329" type="curve" smooth="yes"/>
      <point x="420" y="309" type="line"/>
      <point x="254" y="309"/>
      <point x="161" y="286"/>
      <point x="161" y="165" type="curve" smooth="yes"/>
      <point x="161" y="80"/>
      <point x="219" y="51"/>
      <point x="303" y="51" type="curve" smooth="yes"/>
      <point x="367" y="51"/>
      <point x="407" y="76"/>
      <point x="437" y="104" type="curve"/>
      <point x="455" y="74"/>
      <point x="486" y="51"/>
      <point x="546" y="51" type="curve" smooth="yes"/>
      <point x="626" y="51"/>
      <point x="720" y="114"/>
      <point x="720" y="323" type="curve" smooth="yes"/>
      <point x="720" y="591"/>
      <point x="575" y="700"/>
      <point x="381" y="700" type="curve" smooth="yes"/>
    </contour>
    <contour>
      <point x="420" y="202" type="line" smooth="yes"/>
      <point x="420" y="169"/>
      <point x="390" y="145"/>
      <point x="354" y="145" type="curve" smooth="yes"/>
      <point x="334" y="145"/>
      <point x="312" y="152"/>
      <point x="312" y="184" type="curve" smooth="yes"/>
      <point x="312" y="214"/>
      <point x="344" y="236"/>
      <point x="420" y="236" type="curve"/>
    </contour>
  </outline>
</glyph>
<glyph name="B" format="1">
  <advance width="778"/>
  <unicode hex="0042"/>
  <outline>
    <contour>
      <point x="74" y="688" type="line"/>
      <point x="74" y="0" type="line"/>
      <point x="538" y="0" type="line" smooth="yes"/>
      <point x="649" y="0"/>
      <point x="738" y="73"/>
      <point x="738" y="183" type="curve" smooth="yes"/>
      <point x="738" y="293"/>
      <point x="678" y="339"/>
      <point x="607" y="355" type="curve"/>
      <point x="607" y="359" type="line"/>
      <point x="669" y="377"/>
      <point x="722" y="419"/>
      <point x="722" y="519" type="curve" smooth="yes"/>
      <point x="722" y="618"/>
      <point x="636" y="688"/>
      <point x="532" y="688" type="curve" smooth="yes"/>
    </contour>
    <contour>
      <point x="463" y="278" type="line" smooth="yes"/>
      <point x="492" y="278"/>
      <point x="514" y="254"/>
      <point x="514" y="224" type="curve" smooth="yes"/>
      <point x="514" y="214" type="line" smooth="yes"/>
      <point x="514" y="183"/>
      <point x="492" y="160"/>
      <point x="463" y="160" type="curve" smooth="yes"/>
      <point x="295" y="160" type="line"/>
      <point x="295" y="278" type="line"/>
    </contour>
    <contour>
      <point x="447" y="537" type="line" smooth="yes"/>
      <point x="475" y="537"/>
      <point x="498" y="513"/>
      <point x="498" y="484" type="curve" smooth="yes"/>
      <point x="498" y="474" type="line" smooth="yes"/>
      <point x="498" y="444"/>
      <point x="476" y="420"/>
      <point x="447" y="420" type="curve" smooth="yes"/>
      <point x="295" y="420" type="line"/>
      <point x="295" y="537" type="line"/>
    </contour>
  </outline>
</glyph>
<glyph name="D" format="1">
  <advance width="778"/>
  <unicode hex="0044"/>
  <outline>
    <contour>
      <point x="74" y="688" type="line"/>
      <point x="74" y="0" type="line"/>
      <point x="372" y="0" type="line" smooth="yes"/>
      <point x="607" y="0"/>
      <point x="733" y="109"/>
      <point x="733" y="344" type="curve" smooth="yes"/>
      <point x="733" y="579"/>
      <point x="607" y="688"/>
      <point x="372" y="688" type="curve" smooth="yes"/>
    </contour>
    <contour>
      <point x="368" y="523" type="line" smooth="yes"/>
      <point x="465" y="523"/>
      <point x="507" y="468"/>
      <point x="507" y="374" type="curve" smooth="yes"/>
      <point x="507" y="314" type="line" smooth="yes"/>
      <point x="507" y="220"/>
      <point x="465" y="165"/>
      <point x="368" y="165" type="curve" smooth="yes"/>
      <point x="295" y="165" type="line"/>
      <point x="295" y="523" type="line"/>
    </contour>
    <contour>
      <point x="389" y="344" type="move" name="center"/>
    </contour>
    <contour>
      <point x="389" y="688" type="move" name="top"/>
    </contour>
  </outline>
</glyph>
<glyph name="F" format="1">
  <advance width="667"/>
  <unicode hex="0046"/>
  <outline>
    <contour>
      <point x="295" y="0" type="line"/>
      <point x="295" y="247" type="line"/>
      <point x="583" y="247" type="line"/>
      <point x="583" y="405" type="line"/>
      <point x="295" y="405" type="line"/>
      <point x="295" y="523" type="line"/>
      <point x="630" y="523" type="line"/>
      <point x="630" y="688" type="line"/>
      <point x="74" y="688" type="line"/>
      <point x="74" y="0" type="line"/>
    </contour>
  </outline>
</glyph>
<glyph name="H" format="1">
  <advance width="833"/>
  <unicode hex="0048"/>
  <outline>
    <contour>
      <point x="759" y="688" type="line"/>
      <point x="538" y="688" type="line"/>
      <point x="538" y="437" type="line"/>
      <point x="295" y="437" type="line"/>
      <point x="295" y="688" type="line"/>
      <point x="74" y="688" type="line"/>
      <point x="74" y="0" type="line"/>
      <point x="295" y="0" type="line"/>
      <point x="295" y="261" type="line"/>
      <point x="538" y="261" type="line"/>
      <point x="538" y="0" type="line"/>
      <point x="759" y="0" type="line"/>
    </contour>
    <contour>
      <point x="417" y="344" type="move" name="center"/>
    </contour>
    <contour>
      <point x="417" y="688" type="move" name="top"/>
    </contour>
  </outline>
</glyph>
<glyph name="I" format="1">
  <advance width="389"/>
  <unicode hex="0049"/>
  <outline>
    <contour>
      <point x="305" y="688" type="line"/>
      <point x="84" y="688" type="line"/>
      <point x="84" y="0" type="line"/>
      <point x="305" y="0" type="line"/>
    </contour>
    <contour>
      <point x="350" y="10" type="move" name="ogonek"/>
    </contour>
    <contour>
      <point x="195" y="688" type="move" name="top"/>
    </contour>
  </outline>
</glyph>
<glyph name="L" format="1">
  <advance width="667"/>
  <unicode hex="004C"/>
  <outline>
    <contour>
      <point x="648" y="0" type="line"/>
      <point x="648" y="176" type="line"/>
      <point x="295" y="176" type="line"/>
      <point x="295" y="688" type="line"/>
      <point x="74" y="688" type="line"/>
      <point x="74" y="0" type="line"/>
    </contour>
    <contour>
      <point x="334" y="688" type="move" name="top"/>
    </contour>
    <contour>
      <point x="334" y="0" type="move" name="bottom"/>
    </contour>
  </outline>
</glyph>
<glyph name="M" format="1">
  <advance width="944"/>
  <unicode hex="004D"/>
  <outline>
    <contour>
      <point x="884" y="688" type="line"/>
      <point x="583" y="688" type="line"/>
      <point x="480" y="291" type="line"/>
      <point x="476" y="291" type="line"/>
      <point x="372" y="688" type="line"/>
      <point x="60" y="688" type="line"/>
      <point x="60" y="0" type="line"/>
      <point x="263" y="0" type="line"/>
      <point x="263" y="248" type="line" smooth="yes"/>
      <point x="263" y="352"/>
      <point x="245" y="465"/>
      <point x="245" y="465" type="curve"/>
      <point x="249" y="465" type="line"/>
      <point x="377" y="0" type="line"/>
      <point x="550" y="0" type="line"/>
      <point x="677" y="466" type="line"/>
      <point x="681" y="466" type="line"/>
      <point x="681" y="466"/>
      <point x="665" y="352"/>
      <point x="665" y="248" type="curve" smooth="yes"/>
      <point x="665" y="0" type="line"/>
      <point x="884" y="0" type="line"/>
    </contour>
  </outline>
</glyph>
<glyph name="T" format="1">
  <advance width="722"/>
  <unicode hex="0054"/>
  <outline>
    <contour>
      <point x="695" y="688" type="line"/>
      <point x="23" y="688" type="line"/>
      <point x="23" y="512" type="line"/>
      <point x="249" y="512" type="line"/>
      <point x="249" y="0" type="line"/>
      <point x="470" y="0" type="line"/>
      <point x="470" y="512" type="line"/>
      <point x="695" y="512" type="line"/>
    </contour>
    <contour>
      <point x="361" y="344" type="move" name="center"/>
    </contour>
    <contour>
      <point x="361" y="0" type="move" name="bottom"/>
    </contour>
    <contour>
      <point x="361" y="688" type="move" name="top"/>
    </contour>
  </outline>
</glyph>
<glyph name="U" format="1">
  <advance width="833"/>
  <unicode hex="0055"/>
  <outline>
    <contour>
      <point x="759" y="688" type="line"/>
      <point x="538" y="688" type="line"/>
      <point x="538" y="280" type="line" smooth="yes"/>
      <point x="538" y="206"/>
      <point x="497" y="153"/>
      <point x="416" y="153" type="curve" smooth="yes"/>
      <point x="335" y="153"/>
      <point x="295" y="206"/>
      <point x="295" y="280" type="curve" smooth="yes"/>
      <point x="295" y="688" type="line"/>
      <point x="74" y="688" type="line"/>
      <point x="74" y="277" type="line" smooth="yes"/>
      <point x="74" y="87"/>
      <point x="201" y="-12"/>
      <point x="417" y="-12" type="curve" smooth="yes"/>
      <point x="633" y="-12"/>
      <point x="759" y="87"/>
      <point x="759" y="277" type="curve" smooth="yes"/>
    </contour>
    <contour>
      <point x="750" y="10" type="move" name="ogonek"/>
    </contour>
    <contour>
      <point x="417" y="688" type="move" name="top"/>
    </contour>
  </outline>
</glyph>
<glyph name="V" format="1">
  <advance width="778"/>
  <unicode hex="0056"/>
  <outline>
    <contour>
      <point x="760" y="688" type="line"/>
      <point x="534" y="688" type="line"/>
      <point x="395" y="228" type="line"/>
      <point x="391" y="228" type="line"/>
      <point x="253" y="688" type="line"/>
      <point x="17" y="688" type="line"/>
      <point x="261" y="0" type="line"/>
      <point x="517" y="0" type="line"/>
    </contour>
  </outline>
</glyph>
<glyph name="W" format="1">
  <advance width="1000"/>
  <unicode hex="0057"/>
  <outline>
    <contour>
      <point x="995" y="688" type="line"/>
      <point x="775" y="688" type="line"/>
      <point x="701" y="298" type="line"/>
      <point x="697" y="298" type="line"/>
      <point x="614" y="688" type="line"/>
      <point x="396" y="688" type="line"/>
      <point x="318" y="298" type="line"/>
      <point x="314" y="298" type="line"/>
      <point x="235" y="688" type="line"/>
      <point x="5" y="688" type="line"/>
      <point x="166" y="0" type="line"/>
      <point x="409" y="0" type="line"/>
      <point x="498" y="419" type="line"/>
      <point x="502" y="419" type="line"/>
      <point x="591" y="0" type="line"/>
      <point x="834" y="0" type="line"/>
    </contour>
    <contour>
      <point x="500" y="688" type="move" name="top"/>
    </contour>
  </outline>
</glyph>
<glyph name="backslash" format="1">
  <advance width="278"/>
  <unicode hex="005C"/>
  <outline>
    <contour>
      <point x="119" y="736" type="line"/>
      <point x="-2" y="736" type="line"/>
      <point x="157" y="-48" type="line"/>
      <point x="279" y="-48" type="line"/>
    </contour>
  </outline>
</glyph>
<glyph name="bracketright" format="1">
  <advance width="389"/>
  <unicode hex="005D"/>
  <outline>
    <contour>
      <point x="339" y="737" type="line"/>
      <point x="66" y="737" type="line"/>
      <point x="66" y="634" type="line"/>
      <point x="180" y="634" type="line"/>
      <point x="180" y="-57" type="line"/>
      <point x="66" y="-57" type="line"/>
      <point x="66" y="-160" type="line"/>
      <point x="339" y="-160" type="line"/>
    </contour>
  </outline>
</glyph>
<glyph name="f" format="1">
  <advance width="389"/>
  <unicode hex="0066"/>
  <outline>
    <contour>
      <point x="161" y="737"/>
      <point x="82" y="694"/>
      <point x="82" y="550" type="curve" smooth="yes"/>
      <point x="82" y="528" type="line"/>
      <point x="8" y="528" type="line"/>
      <point x="8" y="393" type="line"/>
      <point x="82" y="393" type="line"/>
      <point x="82" y="0" type="line"/>
      <point x="281" y="0" type="line"/>
      <point x="281" y="393" type="line"/>
      <point x="383" y="393" type="line"/>
      <point x="383" y="528" type="line"/>
      <point x="281" y="528" type="line"/>
      <point x="281" y="549" type="line" smooth="yes"/>
      <point x="281" y="586"/>
      <point x="293" y="602"/>
      <point x="337" y="602" type="curve" smooth="yes"/>
      <point x="383" y="602" type="line"/>
      <point x="383" y="719" type="line"/>
      <point x="356" y="729"/>
      <point x="304" y="737"/>
      <point x="275" y="737" type="curve" smooth="yes"/>
    </contour>
  </outline>
</glyph>
<glyph name="j" format="1">
  <advance width="333"/>
  <unicode hex="006A"/>
  <outline>
    <contour>
      <point x="266" y="528" type="line"/>
      <point x="67" y="528" type="line"/>
      <point x="67" y="-9" type="line" smooth="yes"/>
      <point x="67" y="-50"/>
      <point x="51" y="-73"/>
      <point x="11" y="-73" type="curve" smooth="yes"/>
      <point x="-41" y="-73" type="line"/>
      <point x="-41" y="-192" type="line"/>
      <point x="-10" y="-203"/>
      <point x="51" y="-210"/>
      <point x="83" y="-210" type="curve" smooth="yes"/>
      <point x="211" y="-210"/>
      <point x="266" y="-157"/>
      <point x="266" y="-29" type="curve" smooth="yes"/>
    </contour>
    <contour>
      <point x="266" y="725" type="line"/>
      <point x="67" y="725" type="line"/>
      <point x="67" y="590" type="line"/>
      <point x="266" y="590" type="line"/>
    </contour>
  </outline>
</glyph>
<glyph name="p" format="1">
  <advance width="667"/>
  <unicode hex="0070"/>
  <outline>
    <contour>
      <point x="337" y="540"/>
      <point x="279" y="512"/>
      <point x="240" y="453" type="curve"/>
      <point x="223" y="528" type="line"/>
      <point x="61" y="528" type="line"/>
      <point x="61" y="-197" type="line"/>
      <point x="260" y="-197" type="line"/>
      <point x="260" y="48" type="line"/>
      <point x="298" y="7"/>
      <point x="348" y="-12"/>
      <point x="408" y="-12" type="curve" smooth="yes"/>
      <point x="548" y="-12"/>
      <point x="631" y="79"/>
      <point x="631" y="263" type="curve" smooth="yes"/>
      <point x="631" y="449"/>
      <point x="548" y="540"/>
      <point x="408" y="540" type="curve" smooth="yes"/>
    </contour>
    <contour>
      <point x="408" y="393"/>
      <point x="432" y="353"/>
      <point x="432" y="291" type="curve" smooth="yes"/>
      <point x="432" y="238" type="line" smooth="yes"/>
      <point x="432" y="176"/>
      <point x="408" y="135"/>
      <point x="346" y="135" type="curve" smooth="yes"/>
      <point x="284" y="135"/>
      <point x="258" y="186"/>
      <point x="258" y="248" type="curve" smooth="yes"/>
      <point x="258" y="281" type="line" smooth="yes"/>
      <point x="258" y="343"/>
      <point x="284" y="393"/>
      <point x="346" y="393" type="curve" smooth="yes"/>
    </contour>
  </outline>
</glyph>
<glyph name="v" format="1">
  <advance width="611"/>
  <unicode hex="0076"/>
  <outline>
    <contour>
      <point x="611" y="528" type="line"/>
      <point x="415" y="528" type="line"/>
      <point x="318" y="199" type="line"/>
      <point x="311" y="199" type="line"/>
      <point x="214" y="528" type="line"/>
      <point x="0" y="528" type="line"/>
      <point x="200" y="0" type="line"/>
      <point x="409" y="0" type="line"/>
    </contour>
  </outline>
</glyph>
<glyph name="x" format="1">
  <advance width="667"/>
  <unicode hex="0078"/>
  <outline>
    <contour>
      <point x="650" y="528" type="line"/>
      <point x="430" y="528" type="line"/>
      <point x="346" y="388" type="line"/>
      <point x="342" y="388" type="line"/>
      <point x="258" y="528" type="line"/>
      <point x="24" y="528" type="line"/>
      <point x="207" y="280" type="line"/>
      <point x="4" y="0" type="line"/>
      <point x="225" y="0" type="line"/>
      <point x="326" y="166" type="line"/>
      <point x="330" y="166" type="line"/>
      <point x="430" y="0" type="line"/>
      <point x="662" y="0" type="line"/>
      <point x="464" y="275" type="line"/>
    </contour>
  </outline>
</glyph>
<glyph name="asciitilde" format="1">
  <advance width="660"/>
  <unicode hex="007E"/>
  <outline>
    <contour>
      <point x="621" y="409" type="line"/>
      <point x="621" y="409"/>
      <point x="551" y="329"/>
      <point x="453" y="329" type="curve" smooth="yes"/>
      <point x="408" y="329"/>
      <point x="368" y="346"/>
      <point x="329" y="363" type="curve" smooth="yes"/>
      <point x="290" y="380"/>
      <point x="251" y="397"/>
      <point x="207" y="397" type="curve" smooth="yes"/>
      <point x="109" y="397"/>
      <point x="39" y="317"/>
      <point x="39" y="317" type="curve"/>
      <point x="39" y="187" type="line"/>
      <point x="39" y="187"/>
      <point x="109" y="267"/>
      <point x="207" y="267" type="curve" smooth="yes"/>
      <point x="253" y="267"/>
      <point x="292" y="250"/>
      <point x="331" y="233" type="curve" smooth="yes"/>
      <point x="370" y="216"/>
      <point x="409" y="199"/>
      <point x="453" y="199" type="curve" smooth="yes"/>
      <point x="551" y="199"/>
      <point x="621" y="279"/>
      <point x="621" y="279" type="curve"/>
    </contour>
  </outline>
</glyph>
<glyph name="sterling" format="1">
  <advance width="667"/>
  <unicode hex="00A3"/>
  <outline>
    <contour>
      <point x="203" y="700"/>
      <point x="125" y="608"/>
      <point x="125" y="493" type="curve" smooth="yes"/>
      <point x="125" y="403" type="line"/>
      <point x="31" y="403" type="line"/>
      <point x="31" y="276" type="line"/>
      <point x="125" y="276" type="line"/>
      <point x="125" y="147" type="line"/>
      <point x="61" y="147" type="line"/>
      <point x="61" y="0" type="line"/>
      <point x="584" y="0" type="line"/>
      <point x="584" y="147" type="line"/>
      <point x="302" y="147" type="line"/>
      <point x="322" y="276" type="line"/>
      <point x="419" y="276" type="line"/>
      <point x="419" y="403" type="line"/>
      <point x="323" y="403" type="line"/>
      <point x="323" y="494" type="line" smooth="yes"/>
      <point x="323" y="526"/>
      <point x="349" y="552"/>
      <point x="381" y="552" type="curve" smooth="yes"/>
      <point x="413" y="552"/>
      <point x="439" y="526"/>
      <point x="439" y="494" type="curve" smooth="yes"/>
      <point x="439" y="466" type="line"/>
      <point x="638" y="466" type="line"/>
      <point x="638" y="494" type="line" smooth="yes"/>
      <point x="638" y="608"/>
      <point x="550" y="700"/>
      <point x="381" y="700" type="curve" smooth="yes"/>
    </contour>
  </outline>
</glyph>
<glyph name="section" format="1">
  <advance width="667"/>
  <unicode hex="00A7"/>
  <outline>
    <contour>
      <point x="219" y="700"/>
      <point x="69" y="660"/>
      <point x="69" y="529" type="curve" smooth="yes"/>
      <point x="69" y="476"/>
      <point x="100" y="437"/>
      <point x="144" y="407" type="curve"/>
      <point x="113" y="386"/>
      <point x="54" y="335"/>
      <point x="54" y="255" type="curve" smooth="yes"/>
      <point x="54" y="59"/>
      <point x="404" y="62"/>
      <point x="404" y="-30" type="curve" smooth="yes"/>
      <point x="404" y="-57"/>
      <point x="362" y="-66"/>
      <point x="328" y="-66" type="curve" smooth="yes"/>
      <point x="297" y="-66"/>
      <point x="258" y="-54"/>
      <point x="258" y="-21" type="curve"/>
      <point x="77" y="-21" type="line"/>
      <point x="77" y="-31" type="line" smooth="yes"/>
      <point x="77" y="-150"/>
      <point x="228" y="-184"/>
      <point x="337" y="-184" type="curve" smooth="yes"/>
      <point x="448" y="-184"/>
      <point x="598" y="-144"/>
      <point x="598" y="-13" type="curve" smooth="yes"/>
      <point x="598" y="40"/>
      <point x="567" y="78"/>
      <point x="522" y="109" type="curve"/>
      <point x="553" y="130"/>
      <point x="613" y="180"/>
      <point x="613" y="261" type="curve" smooth="yes"/>
      <point x="613" y="457"/>
      <point x="263" y="454"/>
      <point x="263" y="546" type="curve" smooth="yes"/>
      <point x="263" y="573"/>
      <point x="305" y="582"/>
      <point x="339" y="582" type="curve" smooth="yes"/>
      <point x="370" y="582"/>
      <point x="409" y="570"/>
      <point x="409" y="537" type="curve"/>
      <point x="590" y="537" type="line"/>
      <point x="590" y="547" type="line" smooth="yes"/>
      <point x="590" y="666"/>
      <point x="439" y="700"/>
      <point x="330" y="700" type="curve" smooth="yes"/>
    </contour>
    <contour>
      <point x="348" y="310"/>
      <point x="446" y="277"/>
      <point x="446" y="215" type="curve" smooth="yes"/>
      <point x="446" y="193"/>
      <point x="430" y="177"/>
      <point x="415" y="165" type="curve"/>
      <point x="319" y="206"/>
      <point x="221" y="239"/>
      <point x="221" y="301" type="curve" smooth="yes"/>
      <point x="221" y="322"/>
      <point x="237" y="339"/>
      <point x="252" y="351" type="curve"/>
    </contour>
  </outline>
</glyph>
<glyph name="copyright" format="1">
  <advance width="800"/>
  <unicode hex="00A9"/>
  <outline>
    <contour>
      <point x="190" y="700"/>
      <point x="44" y="544"/>
      <point x="44" y="345" type="curve" smooth="yes"/>
      <point x="44" y="146"/>
      <point x="190" y="-12"/>
      <point x="400" y="-12" type="curve" smooth="yes"/>
      <point x="610" y="-12"/>
      <point x="758" y="146"/>
      <point x="758" y="345" type="curve" smooth="yes"/>
      <point x="758" y="544"/>
      <point x="610" y="700"/>
      <point x="400" y="700" type="curve" smooth="yes"/>
    </contour>
    <contour>
      <point x="263" y="558"/>
      <point x="190" y="485"/>
      <point x="190" y="344" type="curve" smooth="yes"/>
      <point x="190" y="203"/>
      <point x="263" y="130"/>
      <point x="405" y="130" type="curve" smooth="yes"/>
      <point x="531" y="130"/>
      <point x="604" y="191"/>
      <point x="604" y="305" type="curve"/>
      <point x="481" y="305" type="line"/>
      <point x="481" y="257"/>
      <point x="455" y="229"/>
      <point x="403" y="229" type="curve" smooth="yes"/>
      <point x="349" y="229"/>
      <point x="326" y="268"/>
      <point x="326" y="325" type="curve" smooth="yes"/>
      <point x="326" y="363" type="line" smooth="yes"/>
      <point x="326" y="420"/>
      <point x="347" y="459"/>
      <point x="404" y="459" type="curve" smooth="yes"/>
      <point x="451" y="459"/>
      <point x="477" y="428"/>
      <point x="477" y="381" type="curve"/>
      <point x="604" y="381" type="line"/>
      <point x="604" y="496"/>
      <point x="525" y="558"/>
      <point x="405" y="558" type="curve" smooth="yes"/>
    </contour>
    <contour>
      <point x="571" y="636"/>
      <point x="681" y="521"/>
      <point x="681" y="345" type="curve" smooth="yes"/>
      <point x="681" y="169"/>
      <point x="571" y="53"/>
      <point x="400" y="53" type="curve" smooth="yes"/>
      <point x="229" y="53"/>
      <point x="121" y="169"/>
      <point x="121" y="345" type="curve" smooth="yes"/>
      <point x="121" y="521"/>
      <point x="229" y="636"/>
      <point x="400" y="636" type="curve" smooth="yes"/>
    </contour>
  </outline>
</glyph>
<glyph name="ordfeminine" format="1">
  <advance width="400"/>
  <unicode hex="00AA"/>
  <outline>
    <contour>
      <point x="84" y="737"/>
      <point x="22" y="697"/>
      <point x="22" y="639" type="curve" smooth="yes"/>
      <point x="22" y="636"/>
      <point x="22" y="633"/>
      <point x="23" y="630" type="curve"/>
      <point x="151" y="630" type="line"/>
      <point x="151" y="654"/>
      <point x="178" y="660"/>
      <point x="201" y="660" type="curve" smooth="yes"/>
      <point x="229" y="660"/>
      <point x="251" y="648"/>
      <point x="251" y="623" type="curve" smooth="yes"/>
      <point x="251" y="607" type="line"/>
      <point x="100" y="607"/>
      <point x="12" y="589"/>
      <point x="12" y="494" type="curve" smooth="yes"/>
      <point x="12" y="428"/>
      <point x="62" y="405"/>
      <point x="134" y="405" type="curve" smooth="yes"/>
      <point x="194" y="405"/>
      <point x="233" y="424"/>
      <point x="262" y="445" type="curve"/>
      <point x="274" y="421"/>
      <point x="305" y="405"/>
      <point x="358" y="405" type="curve" smooth="yes"/>
      <point x="401" y="405"/>
      <point x="426" y="420"/>
      <point x="426" y="420" type="curve"/>
      <point x="426" y="489" type="line"/>
      <point x="426" y="489"/>
      <point x="411" y="486"/>
      <point x="402" y="486" type="curve" smooth="yes"/>
      <point x="388" y="486"/>
      <point x="381" y="497"/>
      <point x="381" y="510" type="curve" smooth="yes"/>
      <point x="381" y="633" type="line" smooth="yes"/>
      <point x="381" y="711"/>
      <point x="297" y="737"/>
      <point x="203" y="737" type="curve" smooth="yes"/>
    </contour>
    <contour>
      <point x="251" y="524" type="line" smooth="yes"/>
      <point x="251" y="498"/>
      <point x="220" y="480"/>
      <point x="187" y="480" type="curve" smooth="yes"/>
      <point x="165" y="480"/>
      <point x="143" y="485"/>
      <point x="143" y="510" type="curve" smooth="yes"/>
      <point x="143" y="533"/>
      <point x="174" y="551"/>
      <point x="251" y="551" type="curve"/>
    </contour>
  </outline>
</glyph>
<glyph name="registered" format="1">
  <advance width="800"/>
  <unicode hex="00AE"/>
  <outline>
    <contour>
      <point x="190" y="700"/>
      <point x="44" y="544"/>
      <point x="44" y="345" type="curve" smooth="yes"/>
      <point x="44" y="146"/>
      <point x="190" y="-12"/>
      <point x="400" y="-12" type="curve" smooth="yes"/>
      <point x="610" y="-12"/>
      <point x="758" y="146"/>
      <point x="758" y="345" type="curve" smooth="yes"/>
      <point x="758" y="544"/>
      <point x="610" y="700"/>
      <point x="400" y="700" type="curve" smooth="yes"/>
    </contour>
    <contour>
      <point x="571" y="636"/>
      <point x="681" y="521"/>
      <point x="681" y="345" type="curve" smooth="yes"/>
      <point x="681" y="169"/>
      <point x="571" y="53"/>
      <point x="400" y="53" type="curve" smooth="yes"/>
      <point x="229" y="53"/>
      <point x="121" y="169"/>
      <point x="121" y="345" type="curve" smooth="yes"/>
      <point x="121" y="521"/>
      <point x="229" y="636"/>
      <point x="400" y="636" type="curve" smooth="yes"/>
    </contour>
    <contour>
      <point x="232" y="551" type="line"/>
      <point x="232" y="138" type="line"/>
      <point x="365" y="138" type="line"/>
      <point x="365" y="284" type="line"/>
      <point x="384" y="284" type="line" smooth="yes"/>
      <point x="436" y="284"/>
      <point x="438" y="240"/>
      <point x="438" y="205" type="curve" smooth="yes"/>
      <point x="438" y="150"/>
      <point x="471" y="131"/>
      <point x="531" y="131" type="curve" smooth="yes"/>
      <point x="554" y="131"/>
      <point x="582" y="134"/>
      <point x="604" y="143" type="curve"/>
      <point x="604" y="168" type="line"/>
      <point x="574" y="176"/>
      <point x="573" y="217"/>
      <point x="573" y="242" type="curve" smooth="yes"/>
      <point x="573" y="288"/>
      <point x="553" y="326"/>
      <point x="506" y="339" type="curve"/>
      <point x="506" y="344" type="line"/>
      <point x="533" y="355"/>
      <point x="573" y="385"/>
      <point x="573" y="447" type="curve" smooth="yes"/>
      <point x="573" y="510"/>
      <point x="521" y="551"/>
      <point x="458" y="551" type="curve" smooth="yes"/>
    </contour>
    <contour>
      <point x="400" y="457" type="line" smooth="yes"/>
      <point x="421" y="457"/>
      <point x="438" y="440"/>
      <point x="438" y="417" type="curve" smooth="yes"/>
      <point x="438" y="393"/>
      <point x="421" y="376"/>
      <point x="400" y="376" type="curve" smooth="yes"/>
      <point x="365" y="376" type="line"/>
      <point x="365" y="457" type="line"/>
    </contour>
  </outline>
</glyph>
<glyph name="degree" format="1">
  <advance width="400"/>
  <unicode hex="00B0"/>
  <outline>
    <contour>
      <point x="117" y="700"/>
      <point x="50" y="632"/>
      <point x="50" y="550" type="curve" smooth="yes"/>
      <point x="51" y="467"/>
      <point x="117" y="400"/>
      <point x="200" y="400" type="curve" smooth="yes"/>
      <point x="282" y="400"/>
      <point x="350" y="467"/>
      <point x="350" y="550" type="curve" smooth="yes"/>
      <point x="350" y="632"/>
      <point x="282" y="700"/>
      <point x="200" y="700" type="curve" smooth="yes"/>
    </contour>
    <contour>
      <point x="233" y="611"/>
      <point x="261" y="583"/>
      <point x="261" y="549" type="curve" smooth="yes"/>
      <point x="261" y="515"/>
      <point x="233" y="487"/>
      <point x="199" y="487" type="curve" smooth="yes"/>
      <point x="165" y="487"/>
      <point x="137" y="515"/>
      <point x="137" y="549" type="curve" smooth="yes"/>
      <point x="137" y="583"/>
      <point x="166" y="611"/>
      <point x="198" y="611" type="curve" smooth="yes"/>
    </contour>
  </outline>
</glyph>
<glyph name="plusminus" format="1">
  <advance width="660"/>
  <unicode hex="00B1"/>
  <outline>
    <contour>
      <point x="396" y="672" type="line"/>
      <point x="264" y="672" type="line"/>
      <point x="264" y="490" type="line"/>
      <point x="66" y="490" type="line"/>
      <point x="66" y="358" type="line"/>
      <point x="264" y="358" type="line"/>
      <point x="264" y="176" type="line"/>
      <point x="396" y="176" type="line"/>
      <point x="396" y="358" type="line"/>
      <point x="594" y="358" type="line"/>
      <point x="594" y="490" type="line"/>
      <point x="396" y="490" type="line"/>
    </contour>
    <contour>
      <point x="594" y="132" type="line"/>
      <point x="66" y="132" type="line"/>
      <point x="66" y="0" type="line"/>
      <point x="594" y="0" type="line"/>
    </contour>
  </outline>
</glyph>
<glyph name="uni00B2" format="1">
  <advance width="400"/>
  <unicode hex="00B2"/>
  <outline>
    <contour>
      <point x="82" y="737"/>
      <point x="17" y="681"/>
      <point x="17" y="597" type="curve" smooth="yes"/>
      <point x="17" y="593"/>
      <point x="17" y="589"/>
      <point x="18" y="584" type="curve"/>
      <point x="135" y="584" type="line"/>
      <point x="135" y="596" type="line" smooth="yes"/>
      <point x="135" y="628"/>
      <point x="158" y="652"/>
      <point x="198" y="652" type="curve" smooth="yes"/>
      <point x="238" y="652"/>
      <point x="255" y="631"/>
      <point x="255" y="608" type="curve" smooth="yes"/>
      <point x="255" y="570"/>
      <point x="181" y="536"/>
      <point x="79" y="453" type="curve" smooth="yes"/>
      <point x="42" y="423"/>
      <point x="16" y="391"/>
      <point x="16" y="346" type="curve" smooth="yes"/>
      <point x="16" y="317" type="line"/>
      <point x="390" y="317" type="line"/>
      <point x="390" y="419" type="line"/>
      <point x="193" y="419" type="line"/>
      <point x="286" y="480"/>
      <point x="385" y="523"/>
      <point x="385" y="613" type="curve" smooth="yes"/>
      <point x="385" y="687"/>
      <point x="318" y="737"/>
      <point x="211" y="737" type="curve" smooth="yes"/>
    </contour>
  </outline>
</glyph>
<glyph name="uni00B3" format="1">
  <advance width="400"/>
  <unicode hex="00B3"/>
  <outline>
    <contour>
      <point x="95" y="737"/>
      <point x="30" y="686"/>
      <point x="30" y="625" type="curve" smooth="yes"/>
      <point x="30" y="610" type="line"/>
      <point x="139" y="610" type="line"/>
      <point x="139" y="634"/>
      <point x="160" y="655"/>
      <point x="199" y="655" type="curve" smooth="yes"/>
      <point x="236" y="655"/>
      <point x="257" y="632"/>
      <point x="257" y="608" type="curve" smooth="yes"/>
      <point x="257" y="578"/>
      <point x="236" y="565"/>
      <point x="211" y="565" type="curve" smooth="yes"/>
      <point x="173" y="565" type="line"/>
      <point x="173" y="491" type="line"/>
      <point x="221" y="491" type="line" smooth="yes"/>
      <point x="247" y="491"/>
      <point x="267" y="477"/>
      <point x="267" y="448" type="curve" smooth="yes"/>
      <point x="267" y="416"/>
      <point x="249" y="393"/>
      <point x="199" y="393" type="curve" smooth="yes"/>
      <point x="146" y="393"/>
      <point x="131" y="415"/>
      <point x="131" y="442" type="curve"/>
      <point x="15" y="442" type="line"/>
      <point x="15" y="429" type="line" smooth="yes"/>
      <point x="15" y="364"/>
      <point x="76" y="311"/>
      <point x="207" y="311" type="curve" smooth="yes"/>
      <point x="337" y="311"/>
      <point x="394" y="364"/>
      <point x="398" y="430" type="curve"/>
      <point x="398" y="480"/>
      <point x="369" y="516"/>
      <point x="319" y="531" type="curve"/>
      <point x="319" y="535" type="line"/>
      <point x="358" y="548"/>
      <point x="385" y="584"/>
      <point x="385" y="625" type="curve" smooth="yes"/>
      <point x="385" y="686"/>
      <point x="322" y="737"/>
      <point x="210" y="737" type="curve" smooth="yes"/>
    </contour>
  </outline>
</glyph>
<glyph name="cedilla" format="1">
  <advance width="333"/>
  <unicode hex="00B8"/>
  <outline>
    <contour>
      <point x="209" y="39" type="line"/>
      <point x="147" y="39" type="line"/>
      <point x="128" y="-86" type="line"/>
      <point x="166" y="-86" type="line" smooth="yes"/>
      <point x="195" y="-86"/>
      <point x="204" y="-98"/>
      <point x="204" y="-118" type="curve" smooth="yes"/>
      <point x="204" y="-141"/>
      <point x="188" y="-149"/>
      <point x="164" y="-149" type="curve" smooth="yes"/>
      <point x="112" y="-149"/>
      <point x="47" y="-141"/>
      <point x="47" y="-141" type="curve"/>
      <point x="47" y="-195" type="line"/>
      <point x="76" y="-205"/>
      <point x="127" y="-211"/>
      <point x="173" y="-211" type="curve" smooth="yes"/>
      <point x="219" y="-211"/>
      <point x="291" y="-194"/>
      <point x="291" y="-118" type="curve" smooth="yes"/>
      <point x="291" y="-56"/>
      <point x="247" y="-34"/>
      <point x="198" y="-29" type="curve"/>
    </contour>
    <contour>
      <point x="169" y="0" type="move" name="_bottom"/>
    </contour>
  </outline>
</glyph>
<glyph name="ordmasculine" format="1">
  <advance width="400"/>
  <unicode hex="00BA"/>
  <outline>
    <contour>
      <point x="89" y="737"/>
      <point x="12" y="682"/>
      <point x="12" y="571" type="curve" smooth="yes"/>
      <point x="12" y="460"/>
      <point x="89" y="405"/>
      <point x="206" y="405" type="curve" smooth="yes"/>
      <point x="324" y="405"/>
      <point x="401" y="460"/>
      <point x="401" y="571" type="curve" smooth="yes"/>
      <point x="401" y="682"/>
      <point x="324" y="737"/>
      <point x="206" y="737" type="curve" smooth="yes"/>
    </contour>
    <contour>
      <point x="252" y="656"/>
      <point x="271" y="630"/>
      <point x="271" y="588" type="curve" smooth="yes"/>
      <point x="271" y="554" type="line" smooth="yes"/>
      <point x="271" y="512"/>
      <point x="252" y="486"/>
      <point x="206" y="486" type="curve" smooth="yes"/>
      <point x="160" y="486"/>
      <point x="142" y="512"/>
      <point x="142" y="554" type="curve" smooth="yes"/>
      <point x="142" y="588" type="line" smooth="yes"/>
      <point x="142" y="630"/>
      <point x="160" y="656"/>
      <point x="206" y="656" type="curve" smooth="yes"/>
    </contour>
  </outline>
</glyph>
<glyph name="onequarter" format="1">
  <advance width="1000"/>
  <unicode hex="00BC"/>
  <outline>
    <contour>
      <point x="766" y="700" type="line"/>
      <point x="670" y="700" type="line"/>
      <point x="260" y="-12" type="line"/>
      <point x="355" y="-12" type="line"/>
    </contour>
    <contour>
      <point x="276" y="693" type="line"/>
      <point x="232" y="693" type="line"/>
      <point x="181" y="662"/>
      <point x="99" y="632"/>
      <point x="38" y="628" type="curve"/>
      <point x="38" y="559" type="line"/>
      <point x="145" y="559" type="line"/>
      <point x="145" y="372" type="line"/>
      <point x="38" y="372" type="line"/>
      <point x="38" y="280" type="line"/>
      <point x="379" y="280" type="line"/>
      <point x="379" y="372" type="line"/>
      <point x="276" y="372" type="line"/>
    </contour>
    <contour>
      <point x="697" y="420" type="line"/>
      <point x="667" y="326"/>
      <point x="613" y="231"/>
      <point x="571" y="174" type="curve"/>
      <point x="571" y="85" type="line"/>
      <point x="791" y="85" type="line"/>
      <point x="791" y="0" type="line"/>
      <point x="915" y="0" type="line"/>
      <point x="915" y="85" type="line"/>
      <point x="978" y="85" type="line"/>
      <point x="978" y="173" type="line"/>
      <point x="915" y="173" type="line"/>
      <point x="915" y="380" type="line"/>
      <point x="859" y="380" type="line"/>
      <point x="850" y="346"/>
      <point x="813" y="288"/>
      <point x="791" y="258" type="curve"/>
      <point x="791" y="173" type="line"/>
      <point x="661" y="173" type="line"/>
      <point x="723" y="231"/>
      <point x="816" y="354"/>
      <point x="825" y="420" type="curve"/>
    </contour>
  </outline>
</glyph>
<glyph name="threequarters" format="1">
  <advance width="1000"/>
  <unicode hex="00BE"/>
  <outline>
    <contour>
      <point x="766" y="700" type="line"/>
      <point x="670" y="700" type="line"/>
      <point x="260" y="-12" type="line"/>
      <point x="355" y="-12" type="line"/>
    </contour>
    <contour>
      <point x="108" y="701"/>
      <point x="43" y="650"/>
      <point x="43" y="589" type="curve" smooth="yes"/>
      <point x="43" y="574" type="line"/>
      <point x="152" y="574" type="line"/>
      <point x="152" y="598"/>
      <point x="173" y="619"/>
      <point x="212" y="619" type="curve" smooth="yes"/>
      <point x="249" y="619"/>
      <point x="270" y="596"/>
      <point x="270" y="572" type="curve" smooth="yes"/>
      <point x="270" y="542"/>
      <point x="249" y="529"/>
      <point x="224" y="529" type="curve" smooth="yes"/>
      <point x="186" y="529" type="line"/>
      <point x="186" y="455" type="line"/>
      <point x="234" y="455" type="line" smooth="yes"/>
      <point x="260" y="455"/>
      <point x="280" y="441"/>
      <point x="280" y="412" type="curve" smooth="yes"/>
      <point x="280" y="380"/>
      <point x="262" y="357"/>
      <point x="212" y="357" type="curve" smooth="yes"/>
      <point x="159" y="357"/>
      <point x="144" y="379"/>
      <point x="144" y="406" type="curve"/>
      <point x="28" y="406" type="line"/>
      <point x="28" y="393" type="line" smooth="yes"/>
      <point x="28" y="328"/>
      <point x="89" y="275"/>
      <point x="220" y="275" type="curve" smooth="yes"/>
      <point x="350" y="275"/>
      <point x="407" y="328"/>
      <point x="411" y="394" type="curve"/>
      <point x="411" y="444"/>
      <point x="382" y="480"/>
      <point x="332" y="495" type="curve"/>
      <point x="332" y="499" type="line"/>
      <point x="371" y="512"/>
      <point x="398" y="548"/>
      <point x="398" y="589" type="curve" smooth="yes"/>
      <point x="398" y="650"/>
      <point x="335" y="701"/>
      <point x="223" y="701" type="curve" smooth="yes"/>
    </contour>
    <contour>
      <point x="689" y="420" type="line"/>
      <point x="659" y="326"/>
      <point x="605" y="231"/>
      <point x="563" y="174" type="curve"/>
      <point x="563" y="85" type="line"/>
      <point x="783" y="85" type="line"/>
      <point x="783" y="0" type="line"/>
      <point x="907" y="0" type="line"/>
      <point x="907" y="85" type="line"/>
      <point x="970" y="85" type="line"/>
      <point x="970" y="173" type="line"/>
      <point x="907" y="173" type="line"/>
      <point x="907" y="380" type="line"/>
      <point x="851" y="380" type="line"/>
      <point x="842" y="346"/>
      <point x="805" y="288"/>
      <point x="783" y="258" type="curve"/>
      <point x="783" y="173" type="line"/>
      <point x="653" y="173" type="line"/>
      <point x="715" y="231"/>
      <point x="808" y="354"/>
      <point x="817" y="420" type="curve"/>
    </contour>
  </outline>
</glyph>
<glyph name="questiondown" format="1">
  <advance width="611"/>
  <unicode hex="00BF"/>
  <outline>
    <contour>
      <point x="388" y="281" type="line"/>
      <point x="217" y="281" type="line"/>
      <point x="217" y="260" type="line" smooth="yes"/>
      <point x="217" y="207"/>
      <point x="46" y="167"/>
      <point x="46" y="31" type="curve" smooth="yes"/>
      <point x="46" y="-93"/>
      <point x="149" y="-173"/>
      <point x="302" y="-173" type="curve" smooth="yes"/>
      <point x="459" y="-173"/>
      <point x="575" y="-92"/>
      <point x="575" y="38" type="curve" smooth="yes"/>
      <point x="575" y="51"/>
      <point x="573" y="63"/>
      <point x="572" y="76" type="curve"/>
      <point x="388" y="76" type="line"/>
      <point x="389" y="67"/>
      <point x="389" y="58"/>
      <point x="389" y="49" type="curve" smooth="yes"/>
      <point x="389" y="7"/>
      <point x="378" y="-35"/>
      <point x="324" y="-35" type="curve" smooth="yes"/>
      <point x="282" y="-35"/>
      <point x="258" y="-2"/>
      <point x="258" y="35" type="curve" smooth="yes"/>
      <point x="258" y="116"/>
      <point x="388" y="158"/>
      <point x="388" y="231" type="curve" smooth="yes"/>
    </contour>
    <contour>
      <point x="400" y="527" type="line"/>
      <point x="202" y="527" type="line"/>
      <point x="202" y="342" type="line"/>
      <point x="400" y="342" type="line"/>
    </contour>
  </outline>
</glyph>
<glyph name="Acircumflex" format="1">
  <advance width="778"/>
  <unicode hex="00C2"/>
  <outline>
    <contour>
      <point x="518" y="688" type="line"/>
      <point x="261" y="688" type="line"/>
      <point x="10" y="0" type="line"/>
      <point x="236" y="0" type="line"/>
      <point x="265" y="97" type="line"/>
      <point x="506" y="97" type="line"/>
      <point x="535" y="0" type="line"/>
      <point x="769" y="0" type="line"/>
    </contour>
    <contour>
      <point x="388" y="496" type="line"/>
      <point x="460" y="251" type="line"/>
      <point x="311" y="251" type="line"/>
      <point x="384" y="496" type="line"/>
    </contour>
    <contour>
      <point x="453" y="885" type="line"/>
      <point x="325" y="885" type="line"/>
      <point x="186" y="740" type="line"/>
      <point x="314" y="740" type="line"/>
      <point x="388" y="817" type="line"/>
      <point x="462" y="740" type="line"/>
      <point x="592" y="740" type="line"/>
    </contour>
  </outline>
</glyph>
<glyph name="Aring" format="1">
  <advance width="778"/>
  <unicode hex="00C5"/>
  <outline>
    <contour>
      <point x="518" y="688" type="line"/>
      <point x="261" y="688" type="line"/>
      <point x="10" y="0" type="line"/>
      <point x="236" y="0" type="line"/>
      <point x="265" y="97" type="line"/>
      <point x="506" y="97" type="line"/>
      <point x="535" y="0" type="line"/>
      <point x="769" y="0" type="line"/>
    </contour>
    <contour>
      <point x="388" y="496" type="line"/>
      <point x="460" y="251" type="line"/>
      <point x="311" y="251" type="line"/>
      <point x="384" y="496" type="line"/>
    </contour>
    <contour>
      <point x="329" y="954"/>
      <point x="280" y="905"/>
      <point x="280" y="845" type="curve" smooth="yes"/>
      <point x="280" y="785"/>
      <point x="330" y="737"/>
      <point x="389" y="737" type="curve" smooth="yes"/>
      <point x="449" y="737"/>
      <point x="498" y="786"/>
      <point x="498" y="845" type="curve" smooth="yes"/>
      <point x="498" y="906"/>
      <point x="448" y="954"/>
      <point x="389" y="954" type="curve" smooth="yes"/>
    </contour>
    <contour>
      <point x="412" y="885"/>
      <point x="429" y="869"/>
      <point x="429" y="846" type="curve" smooth="yes"/>
      <point x="429" y="822"/>
      <point x="413" y="805"/>
      <point x="389" y="805" type="curve" smooth="yes"/>
      <point x="366" y="805"/>
      <point x="349" y="821"/>
      <point x="349" y="844" type="curve" smooth="yes"/>
      <point x="349" y="868"/>
      <point x="365" y="885"/>
      <point x="389" y="885" type="curve" smooth="yes"/>
    </contour>
  </outline>
</glyph>
<glyph name="AE" format="1">
  <advance width="1000"/>
  <unicode hex="00C6"/>
  <outline>
    <contour>
      <point x="501" y="0" type="line"/>
      <point x="962" y="0" type="line"/>
      <point x="962" y="165" type="line"/>
      <point x="673" y="165" type="line"/>
      <point x="649" y="270" type="line"/>
      <point x="899" y="270" type="line"/>
      <point x="899" y="428" type="line"/>
      <point x="612" y="428" type="line"/>
      <point x="590" y="523" type="line"/>
      <point x="955" y="523" type="line"/>
      <point x="955" y="688" type="line"/>
      <point x="276" y="688" type="line"/>
      <point x="-15" y="0" type="line"/>
      <point x="211" y="0" type="line"/>
      <point x="245" y="97" type="line"/>
      <point x="479" y="97" type="line"/>
    </contour>
    <contour>
      <point x="387" y="496" type="line"/>
      <point x="391" y="496" type="line"/>
      <point x="445" y="251" type="line"/>
      <point x="300" y="251" type="line"/>
    </contour>
    <contour>
      <point x="500" y="688" type="move" name="top"/>
    </contour>
  </outline>
</glyph>
<glyph name="Ccedilla" format="1">
  <advance width="778"/>
  <unicode hex="00C7"/>
  <outline>
    <contour>
      <point x="167" y="700"/>
      <point x="45" y="579"/>
      <point x="45" y="344" type="curve" smooth="yes"/>
      <point x="45" y="124"/>
      <point x="152" y="3"/>
      <point x="359" y="-11" type="curve"/>
      <point x="348" y="-86" type="line"/>
      <point x="386" y="-86" type="line" smooth="yes"/>
      <point x="415" y="-86"/>
      <point x="424" y="-98"/>
      <point x="424" y="-118" type="curve" smooth="yes"/>
      <point x="424" y="-141"/>
      <point x="408" y="-149"/>
      <point x="384" y="-149" type="curve" smooth="yes"/>
      <point x="332" y="-149"/>
      <point x="267" y="-141"/>
      <point x="267" y="-141" type="curve"/>
      <point x="267" y="-195" type="line"/>
      <point x="296" y="-205"/>
      <point x="347" y="-211"/>
      <point x="393" y="-211" type="curve" smooth="yes"/>
      <point x="439" y="-211"/>
      <point x="511" y="-194"/>
      <point x="511" y="-118" type="curve" smooth="yes"/>
      <point x="511" y="-56"/>
      <point x="467" y="-34"/>
      <point x="418" y="-29" type="curve"/>
      <point x="421" y="-12" type="line"/>
      <point x="619" y="-6"/>
      <point x="733" y="96"/>
      <point x="733" y="279" type="curve"/>
      <point x="529" y="279" type="line"/>
      <point x="529" y="200"/>
      <point x="486" y="153"/>
      <point x="399" y="153" type="curve" smooth="yes"/>
      <point x="309" y="153"/>
      <point x="271" y="218"/>
      <point x="271" y="312" type="curve" smooth="yes"/>
      <point x="271" y="376" type="line" smooth="yes"/>
      <point x="271" y="470"/>
      <point x="307" y="535"/>
      <point x="401" y="535" type="curve" smooth="yes"/>
      <point x="480" y="535"/>
      <point x="522" y="484"/>
      <point x="522" y="405" type="curve"/>
      <point x="733" y="405" type="line"/>
      <point x="733" y="597"/>
      <point x="602" y="700"/>
      <point x="402" y="700" type="curve" smooth="yes"/>
    </contour>
  </outline>
</glyph>
<glyph name="Egrave" format="1">
  <advance width="722"/>
  <unicode hex="00C8"/>
  <outline>
    <contour>
      <point x="482" y="752" type="line"/>
      <point x="390" y="885" type="line"/>
      <point x="197" y="885" type="line"/>
      <point x="195" y="881" type="line"/>
      <point x="355" y="752" type="line"/>
    </contour>
    <contour>
      <point x="676" y="0" type="line"/>
      <point x="676" y="165" type="line"/>
      <point x="295" y="165" type="line"/>
      <point x="295" y="270" type="line"/>
      <point x="615" y="270" type="line"/>
      <point x="615" y="428" type="line"/>
      <point x="295" y="428" type="line"/>
      <point x="295" y="523" type="line"/>
      <point x="669" y="523" type="line"/>
      <point x="669" y="688" type="line"/>
      <point x="74" y="688" type="line"/>
      <point x="74" y="0" type="line"/>
    </contour>
  </outline>
</glyph>
<glyph name="Eacute" format="1">
  <advance width="722"/>
  <unicode hex="00C9"/>
  <outline>
    <contour>
      <point x="577" y="881" type="line"/>
      <point x="575" y="885" type="line"/>
      <point x="382" y="885" type="line"/>
      <point x="290" y="752" type="line"/>
      <point x="417" y="752" type="line"/>
    </contour>
    <contour>
      <point x="676" y="0" type="line"/>
      <point x="676" y="165" type="line"/>
      <point x="295" y="165" type="line"/>
      <point x="295" y="270" type="line"/>
      <point x="615" y="270" type="line"/>
      <point x="615" y="428" type="line"/>
      <point x="295" y="428" type="line"/>
      <point x="295" y="523" type="line"/>
      <point x="669" y="523" type="line"/>
      <point x="669" y="688" type="line"/>
      <point x="74" y="688" type="line"/>
      <point x="74" y="0" type="line"/>
    </contour>
  </outline>
</glyph>
<glyph name="Edieresis" format="1">
  <advance width="722"/>
  <unicode hex="00CB"/>
  <outline>
    <contour>
      <point x="572" y="885" type="line"/>
      <point x="420" y="885" type="line"/>
      <point x="420" y="746" type="line"/>
      <point x="572" y="746" type="line"/>
    </contour>
    <contour>
      <point x="352" y="885" type="line"/>
      <point x="200" y="885" type="line"/>
      <point x="200" y="746" type="line"/>
      <point x="352" y="746" type="line"/>
    </contour>
    <contour>
      <point x="676" y="0" type="line"/>
      <point x="676" y="165" type="line"/>
      <point x="295" y="165" type="line"/>
      <point x="295" y="270" type="line"/>
      <point x="615" y="270" type="line"/>
      <point x="615" y="428" type="line"/>
      <point x="295" y="428" type="line"/>
      <point x="295" y="523" type="line"/>
      <point x="669" y="523" type="line"/>
      <point x="669" y="688" type="line"/>
      <point x="74" y="688" type="line"/>
      <point x="74" y="0" type="line"/>
    </contour>
  </outline>
</glyph>
<glyph name="Iacute" format="1">
  <advance width="389"/>
  <unicode hex="00CD"/>
  <outline>
    <contour>
      <point x="305" y="0" type="line"/>
      <point x="305" y="688" type="line"/>
      <point x="84" y="688" type="line"/>
      <point x="84" y="0" type="line"/>
    </contour>
    <contour>
      <point x="386" y="881" type="line"/>
      <point x="384" y="885" type="line"/>
      <point x="191" y="885" type="line"/>
      <point x="99" y="752" type="line"/>
      <point x="226" y="752" type="line"/>
    </contour>
  </outline>
</glyph>
<glyph name="Icircumflex" format="1">
  <advance width="389"/>
  <unicode hex="00CE"/>
  <outline>
    <contour>
      <point x="305" y="688" type="line"/>
      <point x="84" y="688" type="line"/>
      <point x="84" y="0" type="line"/>
      <point x="305" y="0" type="line"/>
    </contour>
    <contour>
      <point x="259" y="885" type="line"/>
      <point x="131" y="885" type="line"/>
      <point x="-8" y="740" type="line"/>
      <point x="120" y="740" type="line"/>
      <point x="194" y="817" type="line"/>
      <point x="268" y="740" type="line"/>
      <point x="398" y="740" type="line"/>
    </contour>
  </outline>
</glyph>
<glyph name="Idieresis" format="1">
  <advance width="389"/>
  <unicode hex="00CF"/>
  <outline>
    <contour>
      <point x="305" y="688" type="line"/>
      <point x="84" y="688" type="line"/>
      <point x="84" y="0" type="line"/>
      <point x="305" y="0" type="line"/>
    </contour>
    <contour>
      <point x="381" y="885" type="line"/>
      <point x="229" y="885" type="line"/>
      <point x="229" y="746" type="line"/>
      <point x="381" y="746" type="line"/>
    </contour>
    <contour>
      <point x="161" y="885" type="line"/>
      <point x="9" y="885" type="line"/>
      <point x="9" y="746" type="line"/>
      <point x="161" y="746" type="line"/>
    </contour>
  </outline>
</glyph>
<glyph name="Eth" format="1">
  <advance width="778"/>
  <unicode hex="00D0"/>
  <outline>
    <contour>
      <point x="1" y="304" type="line"/>
      <point x="74" y="304" type="line"/>
      <point x="74" y="0" type="line"/>
      <point x="372" y="0" type="line" smooth="yes"/>
      <point x="607" y="0"/>
      <point x="733" y="109"/>
      <point x="733" y="344" type="curve" smooth="yes"/>
      <point x="733" y="579"/>
      <point x="607" y="688"/>
      <point x="372" y="688" type="curve" smooth="yes"/>
      <point x="74" y="688" type="line"/>
      <point x="74" y="402" type="line"/>
      <point x="1" y="402" type="line"/>
    </contour>
    <contour>
      <point x="392" y="304" type="line"/>
      <point x="392" y="402" type="line"/>
      <point x="295" y="402" type="line"/>
      <point x="295" y="523" type="line"/>
      <point x="368" y="523" type="line" smooth="yes"/>
      <point x="465" y="523"/>
      <point x="507" y="468"/>
      <point x="507" y="374" type="curve" smooth="yes"/>
      <point x="507" y="314" type="line" smooth="yes"/>
      <point x="507" y="220"/>
      <point x="465" y="165"/>
      <point x="368" y="165" type="curve" smooth="yes"/>
      <point x="295" y="165" type="line"/>
      <point x="295" y="304" type="line"/>
    </contour>
  </outline>
</glyph>
<glyph name="multiply" format="1">
  <advance width="660"/>
  <unicode hex="00D7"/>
  <outline>
    <contour>
      <point x="498" y="526" type="line"/>
      <point x="330" y="357" type="line"/>
      <point x="162" y="526" type="line"/>
      <point x="68" y="432" type="line"/>
      <point x="237" y="264" type="line"/>
      <point x="68" y="96" type="line"/>
      <point x="162" y="2" type="line"/>
      <point x="330" y="171" type="line"/>
      <point x="498" y="2" type="line"/>
      <point x="592" y="96" type="line"/>
      <point x="423" y="264" type="line"/>
      <point x="592" y="432" type="line"/>
    </contour>
  </outline>
</glyph>
<glyph name="Oslash" format="1">
  <advance width="833"/>
  <unicode hex="00D8"/>
  <outline>
    <contour>
      <point x="779" y="725" type="line"/>
      <point x="671" y="725" type="line"/>
      <point x="618" y="659" type="line"/>
      <point x="562" y="686"/>
      <point x="495" y="700"/>
      <point x="416" y="700" type="curve" smooth="yes"/>
      <point x="181" y="700"/>
      <point x="45" y="579"/>
      <point x="45" y="344" type="curve" smooth="yes"/>
      <point x="45" y="225"/>
      <point x="80" y="135"/>
      <point x="144" y="76" type="curve"/>
      <point x="54" y="-36" type="line"/>
      <point x="162" y="-36" type="line"/>
      <point x="214" y="28" type="line"/>
      <point x="269" y="1"/>
      <point x="337" y="-12"/>
      <point x="416" y="-12" type="curve" smooth="yes"/>
      <point x="651" y="-12"/>
      <point x="788" y="109"/>
      <point x="788" y="344" type="curve" smooth="yes"/>
      <point x="788" y="463"/>
      <point x="753" y="553"/>
      <point x="687" y="612" type="curve"/>
    </contour>
    <contour>
      <point x="551" y="444" type="line"/>
      <point x="558" y="424"/>
      <point x="562" y="401"/>
      <point x="562" y="376" type="curve" smooth="yes"/>
      <point x="562" y="312" type="line" smooth="yes"/>
      <point x="562" y="218"/>
      <point x="513" y="153"/>
      <point x="416" y="153" type="curve" smooth="yes"/>
      <point x="382" y="153"/>
      <point x="355" y="161"/>
      <point x="333" y="175" type="curve"/>
    </contour>
    <contour>
      <point x="449" y="535"/>
      <point x="477" y="527"/>
      <point x="499" y="513" type="curve"/>
      <point x="281" y="244" type="line"/>
      <point x="274" y="264"/>
      <point x="271" y="287"/>
      <point x="271" y="312" type="curve" smooth="yes"/>
      <point x="271" y="376" type="line" smooth="yes"/>
      <point x="271" y="470"/>
      <point x="319" y="535"/>
      <point x="416" y="535" type="curve" smooth="yes"/>
    </contour>
    <contour>
      <point x="417" y="688" type="move" name="top"/>
    </contour>
  </outline>
</glyph>
<glyph name="Ugrave" format="1">
  <advance width="833"/>
  <unicode hex="00D9"/>
  <outline>
    <contour>
      <point x="759" y="688" type="line"/>
      <point x="538" y="688" type="line"/>
      <point x="538" y="280" type="line" smooth="yes"/>
      <point x="538" y="206"/>
      <point x="497" y="153"/>
      <point x="416" y="153" type="curve" smooth="yes"/>
      <point x="335" y="153"/>
      <point x="295" y="206"/>
      <point x="295" y="280" type="curve" smooth="yes"/>
      <point x="295" y="688" type="line"/>
      <point x="74" y="688" type="line"/>
      <point x="74" y="277" type="line" smooth="yes"/>
      <point x="74" y="87"/>
      <point x="201" y="-12"/>
      <point x="417" y="-12" type="curve" smooth="yes"/>
      <point x="633" y="-12"/>
      <point x="759" y="87"/>
      <point x="759" y="277" type="curve" smooth="yes"/>
    </contour>
    <contour>
      <point x="513" y="752" type="line"/>
      <point x="420" y="885" type="line"/>
      <point x="228" y="885" type="line"/>
      <point x="226" y="881" type="line"/>
      <point x="386" y="752" type="line"/>
    </contour>
  </outline>
</glyph>
<glyph name="Ucircumflex" format="1">
  <advance width="833"/>
  <unicode hex="00DB"/>
  <outline>
    <contour>
      <point x="759" y="688" type="line"/>
      <point x="538" y="688" type="line"/>
      <point x="538" y="280" type="line" smooth="yes"/>
      <point x="538" y="206"/>
      <point x="497" y="153"/>
      <point x="416" y="153" type="curve" smooth="yes"/>
      <point x="335" y="153"/>
      <point x="295" y="206"/>
      <point x="295" y="280" type="curve" smooth="yes"/>
      <point x="295" y="688" type="line"/>
      <point x="74" y="688" type="line"/>
      <point x="74" y="277" type="line" smooth="yes"/>
      <point x="74" y="87"/>
      <point x="201" y="-12"/>
      <point x="417" y="-12" type="curve" smooth="yes"/>
      <point x="633" y="-12"/>
      <point x="759" y="87"/>
      <point x="759" y="277" type="curve" smooth="yes"/>
    </contour>
    <contour>
      <point x="480" y="885" type="line"/>
      <point x="353" y="885" type="line"/>
      <point x="213" y="740" type="line"/>
      <point x="341" y="740" type="line"/>
      <point x="416" y="817" type="line"/>
      <point x="490" y="740" type="line"/>
      <point x="620" y="740" type="line"/>
    </contour>
  </outline>
</glyph>
<glyph name="germandbls" format="1">
  <advance width="667"/>
  <unicode hex="00DF"/>
  <outline>
    <contour>
      <point x="206" y="737"/>
      <point x="67" y="675"/>
      <point x="67" y="517" type="curve" smooth="yes"/>
      <point x="67" y="0" type="line"/>
      <point x="266" y="0" type="line"/>
      <point x="266" y="534" type="line" smooth="yes"/>
      <point x="266" y="573"/>
      <point x="293" y="603"/>
      <point x="336" y="603" type="curve" smooth="yes"/>
      <point x="380" y="603"/>
      <point x="406" y="573"/>
      <point x="406" y="534" type="curve" smooth="yes"/>
      <point x="406" y="496"/>
      <point x="378" y="466"/>
      <point x="341" y="466" type="curve" smooth="yes"/>
      <point x="314" y="466" type="line"/>
      <point x="314" y="325" type="line"/>
      <point x="342" y="325" type="line" smooth="yes"/>
      <point x="387" y="325"/>
      <point x="425" y="282"/>
      <point x="425" y="229" type="curve" smooth="yes"/>
      <point x="425" y="179"/>
      <point x="388" y="136"/>
      <point x="342" y="136" type="curve" smooth="yes"/>
      <point x="314" y="136" type="line"/>
      <point x="314" y="0" type="line"/>
      <point x="378" y="0" type="line" smooth="yes"/>
      <point x="520" y="0"/>
      <point x="624" y="70"/>
      <point x="624" y="214" type="curve" smooth="yes"/>
      <point x="624" y="294"/>
      <point x="574" y="369"/>
      <point x="503" y="395" type="curve"/>
      <point x="503" y="400" type="line"/>
      <point x="561" y="424"/>
      <point x="597" y="484"/>
      <point x="597" y="548" type="curve" smooth="yes"/>
      <point x="597" y="694"/>
      <point x="458" y="737"/>
      <point x="336" y="737" type="curve" smooth="yes"/>
    </contour>
  </outline>
</glyph>
<glyph name="adieresis" format="1">
  <advance width="667"/>
  <unicode hex="00E4"/>
  <outline>
    <contour>
      <point x="140" y="540"/>
      <point x="45" y="474"/>
      <point x="45" y="377" type="curve" smooth="yes"/>
      <point x="45" y="372"/>
      <point x="45" y="368"/>
      <point x="46" y="363" type="curve"/>
      <point x="242" y="363" type="line"/>
      <point x="242" y="367" type="line" smooth="yes"/>
      <point x="242" y="402"/>
      <point x="283" y="413"/>
      <point x="318" y="413" type="curve" smooth="yes"/>
      <point x="361" y="413"/>
      <point x="395" y="393"/>
      <point x="395" y="350" type="curve" smooth="yes"/>
      <point x="395" y="324" type="line"/>
      <point x="164" y="324"/>
      <point x="30" y="294"/>
      <point x="30" y="136" type="curve" smooth="yes"/>
      <point x="30" y="26"/>
      <point x="106" y="-12"/>
      <point x="216" y="-12" type="curve" smooth="yes"/>
      <point x="308" y="-12"/>
      <point x="367" y="19"/>
      <point x="411" y="54" type="curve"/>
      <point x="429" y="14"/>
      <point x="478" y="-12"/>
      <point x="558" y="-12" type="curve" smooth="yes"/>
      <point x="625" y="-12"/>
      <point x="662" y="8"/>
      <point x="662" y="8" type="curve"/>
      <point x="662" y="123" type="line"/>
      <point x="626" y="123" type="line" smooth="yes"/>
      <point x="604" y="123"/>
      <point x="594" y="140"/>
      <point x="594" y="162" type="curve" smooth="yes"/>
      <point x="594" y="368" type="line" smooth="yes"/>
      <point x="594" y="498"/>
      <point x="466" y="540"/>
      <point x="321" y="540" type="curve" smooth="yes"/>
    </contour>
    <contour>
      <point x="395" y="185" type="line" smooth="yes"/>
      <point x="395" y="142"/>
      <point x="348" y="112"/>
      <point x="297" y="112" type="curve" smooth="yes"/>
      <point x="263" y="112"/>
      <point x="229" y="121"/>
      <point x="229" y="162" type="curve" smooth="yes"/>
      <point x="229" y="201"/>
      <point x="277" y="230"/>
      <point x="395" y="230" type="curve"/>
    </contour>
    <contour>
      <point x="520" y="725" type="line"/>
      <point x="368" y="725" type="line"/>
      <point x="368" y="586" type="line"/>
      <point x="520" y="586" type="line"/>
    </contour>
    <contour>
      <point x="299" y="725" type="line"/>
      <point x="147" y="725" type="line"/>
      <point x="147" y="586" type="line"/>
      <point x="299" y="586" type="line"/>
    </contour>
  </outline>
</glyph>
<glyph name="igrave" format="1">
  <advance width="333"/>
  <unicode hex="00EC"/>
  <outline>
    <contour>
      <point x="266" y="0" type="line"/>
      <point x="266" y="528" type="line"/>
      <point x="67" y="528" type="line"/>
      <point x="67" y="0" type="line"/>
    </contour>
    <contour>
      <point x="263" y="592" type="line"/>
      <point x="170" y="725" type="line"/>
      <point x="-22" y="725" type="line"/>
      <point x="-24" y="721" type="line"/>
      <point x="136" y="592" type="line"/>
    </contour>
  </outline>
</glyph>
<glyph name="icircumflex" format="1">
  <advance width="333"/>
  <unicode hex="00EE"/>
  <outline>
    <contour>
      <point x="266" y="528" type="line"/>
      <point x="67" y="528" type="line"/>
      <point x="67" y="0" type="line"/>
      <point x="266" y="0" type="line"/>
    </contour>
    <contour>
      <point x="230" y="725" type="line"/>
      <point x="103" y="725" type="line"/>
      <point x="-37" y="580" type="line"/>
      <point x="91" y="580" type="line"/>
      <point x="166" y="657" type="line"/>
      <point x="240" y="580" type="line"/>
      <point x="370" y="580" type="line"/>
    </contour>
  </outline>
</glyph>
<glyph name="idieresis" format="1">
  <advance width="333"/>
  <unicode hex="00EF"/>
  <outline>
    <contour>
      <point x="266" y="528" type="line"/>
      <point x="67" y="528" type="line"/>
      <point x="67" y="0" type="line"/>
      <point x="266" y="0" type="line"/>
    </contour>
    <contour>
      <point x="353" y="725" type="line"/>
      <point x="201" y="725" type="line"/>
      <point x="201" y="586" type="line"/>
      <point x="353" y="586" type="line"/>
    </contour>
    <contour>
      <point x="132" y="725" type="line"/>
      <point x="-20" y="725" type="line"/>
      <point x="-20" y="586" type="line"/>
      <point x="132" y="586" type="line"/>
    </contour>
  </outline>
</glyph>
<glyph name="eth" format="1">
  <advance width="667"/>
  <unicode hex="00F0"/>
  <outline>
    <contour>
      <point x="165" y="725" type="line"/>
      <point x="164" y="721" type="line"/>
      <point x="183" y="709"/>
      <point x="213" y="687"/>
      <point x="247" y="656" type="curve"/>
      <point x="149" y="645" type="line"/>
      <point x="149" y="567" type="line"/>
      <point x="314" y="586" type="line"/>
      <point x="331" y="564"/>
      <point x="348" y="541"/>
      <point x="364" y="516" type="curve"/>
      <point x="343" y="522"/>
      <point x="318" y="524"/>
      <point x="298" y="524" type="curve" smooth="yes"/>
      <point x="136" y="524"/>
      <point x="36" y="418"/>
      <point x="36" y="264" type="curve" smooth="yes"/>
      <point x="36" y="79"/>
      <point x="153" y="-12"/>
      <point x="333" y="-12" type="curve" smooth="yes"/>
      <point x="513" y="-12"/>
      <point x="631" y="79"/>
      <point x="631" y="264" type="curve" smooth="yes"/>
      <point x="631" y="419"/>
      <point x="567" y="532"/>
      <point x="502" y="608" type="curve"/>
      <point x="570" y="616" type="line"/>
      <point x="570" y="694" type="line"/>
      <point x="431" y="678" type="line"/>
      <point x="392" y="710"/>
      <point x="363" y="725"/>
      <point x="363" y="725" type="curve" smooth="yes"/>
    </contour>
    <contour>
      <point x="403" y="405"/>
      <point x="432" y="362"/>
      <point x="432" y="292" type="curve" smooth="yes"/>
      <point x="432" y="235" type="line" smooth="yes"/>
      <point x="432" y="165"/>
      <point x="403" y="123"/>
      <point x="333" y="123" type="curve" smooth="yes"/>
      <point x="263" y="123"/>
      <point x="235" y="165"/>
      <point x="235" y="235" type="curve" smooth="yes"/>
      <point x="235" y="292" type="line" smooth="yes"/>
      <point x="235" y="362"/>
      <point x="263" y="405"/>
      <point x="333" y="405" type="curve" smooth="yes"/>
    </contour>
  </outline>
</glyph>
<glyph name="ntilde" format="1">
  <advance width="667"/>
  <unicode hex="00F1"/>
  <outline>
    <contour>
      <point x="349" y="540"/>
      <point x="277" y="504"/>
      <point x="236" y="448" type="curve"/>
      <point x="223" y="528" type="line"/>
      <point x="60" y="528" type="line"/>
      <point x="60" y="0" type="line"/>
      <point x="259" y="0" type="line"/>
      <point x="259" y="310" type="line" smooth="yes"/>
      <point x="259" y="355"/>
      <point x="292" y="393"/>
      <point x="342" y="393" type="curve" smooth="yes"/>
      <point x="386" y="393"/>
      <point x="409" y="362"/>
      <point x="409" y="318" type="curve" smooth="yes"/>
      <point x="409" y="0" type="line"/>
      <point x="608" y="0" type="line"/>
      <point x="608" y="342" type="line" smooth="yes"/>
      <point x="608" y="467"/>
      <point x="549" y="540"/>
      <point x="424" y="540" type="curve" smooth="yes"/>
    </contour>
    <contour>
      <point x="475" y="725" type="line"/>
      <point x="467" y="702"/>
      <point x="450" y="685"/>
      <point x="424" y="685" type="curve" smooth="yes"/>
      <point x="371" y="685"/>
      <point x="315" y="725"/>
      <point x="251" y="725" type="curve" smooth="yes"/>
      <point x="167" y="725"/>
      <point x="111" y="654"/>
      <point x="111" y="582" type="curve"/>
      <point x="192" y="582" type="line"/>
      <point x="200" y="605"/>
      <point x="217" y="622"/>
      <point x="243" y="622" type="curve" smooth="yes"/>
      <point x="296" y="622"/>
      <point x="352" y="582"/>
      <point x="416" y="582" type="curve" smooth="yes"/>
      <point x="500" y="582"/>
      <point x="556" y="653"/>
      <point x="556" y="725" type="curve"/>
    </contour>
  </outline>
</glyph>
<glyph name="yacute" format="1">
  <advance width="611"/>
  <unicode hex="00FD"/>
  <outline>
    <contour>
      <point x="611" y="528" type="line"/>
      <point x="415" y="528" type="line"/>
      <point x="322" y="177" type="line"/>
      <point x="315" y="177" type="line"/>
      <point x="214" y="528" type="line"/>
      <point x="0" y="528" type="line"/>
      <point x="210" y="0" type="line"/>
      <point x="205" y="-26"/>
      <point x="191" y="-73"/>
      <point x="121" y="-73" type="curve" smooth="yes"/>
      <point x="41" y="-73" type="line"/>
      <point x="41" y="-192" type="line"/>
      <point x="66" y="-201"/>
      <point x="108" y="-210"/>
      <point x="156" y="-210" type="curve" smooth="yes"/>
      <point x="310" y="-210"/>
      <point x="375" y="-115"/>
      <point x="423" y="16" type="curve" smooth="yes"/>
    </contour>
    <contour>
      <point x="497" y="721" type="line"/>
      <point x="495" y="725" type="line"/>
      <point x="302" y="725" type="line"/>
      <point x="209" y="592" type="line"/>
      <point x="337" y="592" type="line"/>
    </contour>
  </outline>
</glyph>
<glyph name="Abreve" format="1">
  <advance width="778"/>
  <unicode hex="0102"/>
  <outline>
    <contour>
      <point x="518" y="688" type="line"/>
      <point x="261" y="688" type="line"/>
      <point x="10" y="0" type="line"/>
      <point x="236" y="0" type="line"/>
      <point x="265" y="97" type="line"/>
      <point x="506" y="97" type="line"/>
      <point x="535" y="0" type="line"/>
      <point x="769" y="0" type="line"/>
    </contour>
    <contour>
      <point x="388" y="496" type="line"/>
      <point x="460" y="251" type="line"/>
      <point x="311" y="251" type="line"/>
      <point x="384" y="496" type="line"/>
    </contour>
    <contour>
      <point x="479" y="885" type="line"/>
      <point x="475" y="864"/>
      <point x="438" y="835"/>
      <point x="389" y="835" type="curve" smooth="yes"/>
      <point x="340" y="835"/>
      <point x="305" y="864"/>
      <point x="301" y="885" type="curve"/>
      <point x="205" y="885" type="line"/>
      <point x="205" y="818"/>
      <point x="273" y="741"/>
      <point x="389" y="741" type="curve" smooth="yes"/>
      <point x="502" y="741"/>
      <point x="574" y="818"/>
      <point x="574" y="885" type="curve"/>
    </contour>
  </outline>
</glyph>
<glyph name="Aogonek" format="1">
  <advance width="778"/>
  <unicode hex="0104"/>
  <outline>
    <contour>
      <point x="518" y="688" type="line"/>
      <point x="261" y="688" type="line"/>
      <point x="10" y="0" type="line"/>
      <point x="236" y="0" type="line"/>
      <point x="265" y="97" type="line"/>
      <point x="506" y="97" type="line"/>
      <point x="535" y="0" type="line"/>
      <point x="542" y="0" type="line"/>
      <point x="522" y="-25"/>
      <point x="502" y="-55"/>
      <point x="502" y="-97" type="curve" smooth="yes"/>
      <point x="502" y="-179"/>
      <point x="564" y="-211"/>
      <point x="629" y="-211" type="curve" smooth="yes"/>
      <point x="662" y="-211"/>
      <point x="694" y="-206"/>
      <point x="725" y="-196" type="curve"/>
      <point x="725" y="-120" type="line"/>
      <point x="683" y="-120" type="line" smooth="yes"/>
      <point x="638" y="-120"/>
      <point x="623" y="-95"/>
      <point x="623" y="-69" type="curve" smooth="yes"/>
      <point x="623" y="-43"/>
      <point x="631" y="-16"/>
      <point x="639" y="0" type="curve"/>
      <point x="769" y="0" type="line"/>
    </contour>
    <contour>
      <point x="388" y="496" type="line"/>
      <point x="460" y="251" type="line"/>
      <point x="311" y="251" type="line"/>
      <point x="384" y="496" type="line"/>
    </contour>
  </outline>
</glyph>
<glyph name="aogonek" format="1">
  <advance width="667"/>
  <unicode hex="0105"/>
  <outline>
    <contour>
      <point x="140" y="540"/>
      <point x="45" y="474"/>
      <point x="45" y="377" type="curve" smooth="yes"/>
      <point x="45" y="372"/>
      <point x="45" y="368"/>
      <point x="46" y="363" type="curve"/>
      <point x="242" y="363" type="line"/>
      <point x="242" y="367" type="line" smooth="yes"/>
      <point x="242" y="402"/>
      <point x="283" y="413"/>
      <point x="318" y="413" type="curve" smooth="yes"/>
      <point x="361" y="413"/>
      <point x="395" y="393"/>
      <point x="395" y="350" type="curve" smooth="yes"/>
      <point x="395" y="324" type="line"/>
      <point x="164" y="324"/>
      <point x="30" y="294"/>
      <point x="30" y="136" type="curve" smooth="yes"/>
      <point x="30" y="26"/>
      <point x="106" y="-12"/>
      <point x="216" y="-12" type="curve" smooth="yes"/>
      <point x="308" y="-12"/>
      <point x="367" y="19"/>
      <point x="411" y="54" type="curve"/>
      <point x="421" y="32"/>
      <point x="440" y="14"/>
      <point x="469" y="2" type="curve"/>
      <point x="449" y="-23"/>
      <point x="427" y="-53"/>
      <point x="427" y="-97" type="curve" smooth="yes"/>
      <point x="427" y="-179"/>
      <point x="489" y="-211"/>
      <point x="554" y="-211" type="curve" smooth="yes"/>
      <point x="586" y="-211"/>
      <point x="619" y="-206"/>
      <point x="649" y="-196" type="curve"/>
      <point x="649" y="-120" type="line"/>
      <point x="607" y="-120" type="line" smooth="yes"/>
      <point x="562" y="-120"/>
      <point x="547" y="-95"/>
      <point x="547" y="-69" type="curve" smooth="yes"/>
      <point x="547" y="-49"/>
      <point x="552" y="-28"/>
      <point x="558" y="-12" type="curve"/>
      <point x="625" y="-12"/>
      <point x="662" y="8"/>
      <point x="662" y="8" type="curve"/>
      <point x="662" y="123" type="line"/>
      <point x="626" y="123" type="line" smooth="yes"/>
      <point x="604" y="123"/>
      <point x="594" y="140"/>
      <point x="594" y="162" type="curve" smooth="yes"/>
      <point x="594" y="368" type="line" smooth="yes"/>
      <point x="594" y="498"/>
      <point x="466" y="540"/>
      <point x="321" y="540" type="curve" smooth="yes"/>
    </contour>
    <contour>
      <point x="395" y="185" type="line" smooth="yes"/>
      <point x="395" y="142"/>
      <point x="348" y="112"/>
      <point x="297" y="112" type="curve" smooth="yes"/>
      <point x="263" y="112"/>
      <point x="229" y="121"/>
      <point x="229" y="162" type="curve" smooth="yes"/>
      <point x="229" y="201"/>
      <point x="277" y="230"/>
      <point x="395" y="230" type="curve"/>
    </contour>
  </outline>
</glyph>
<glyph name="cacute" format="1">
  <advance width="667"/>
  <unicode hex="0107"/>
  <outline>
    <contour>
      <point x="153" y="540"/>
      <point x="36" y="449"/>
      <point x="36" y="264" type="curve" smooth="yes"/>
      <point x="36" y="79"/>
      <point x="153" y="-12"/>
      <point x="333" y="-12" type="curve" smooth="yes"/>
      <point x="494" y="-12"/>
      <point x="624" y="54"/>
      <point x="624" y="215" type="curve"/>
      <point x="439" y="215" type="line"/>
      <point x="439" y="150"/>
      <point x="402" y="123"/>
      <point x="337" y="123" type="curve" smooth="yes"/>
      <point x="264" y="123"/>
      <point x="235" y="165"/>
      <point x="235" y="235" type="curve" smooth="yes"/>
      <point x="235" y="292" type="line" smooth="yes"/>
      <point x="235" y="362"/>
      <point x="263" y="405"/>
      <point x="333" y="405" type="curve" smooth="yes"/>
      <point x="395" y="405"/>
      <point x="431" y="377"/>
      <point x="431" y="315" type="curve"/>
      <point x="624" y="315" type="line"/>
      <point x="624" y="476"/>
      <point x="494" y="540"/>
      <point x="333" y="540" type="curve" smooth="yes"/>
    </contour>
    <contour>
      <point x="524" y="721" type="line"/>
      <point x="522" y="725" type="line"/>
      <point x="330" y="725" type="line"/>
      <point x="237" y="592" type="line"/>
      <point x="365" y="592" type="line"/>
    </contour>
  </outline>
</glyph>
<glyph name="Dcaron" format="1">
  <advance width="778"/>
  <unicode hex="010E"/>
  <outline>
    <contour>
      <point x="74" y="688" type="line"/>
      <point x="74" y="0" type="line"/>
      <point x="372" y="0" type="line" smooth="yes"/>
      <point x="607" y="0"/>
      <point x="733" y="109"/>
      <point x="733" y="344" type="curve" smooth="yes"/>
      <point x="733" y="579"/>
      <point x="607" y="688"/>
      <point x="372" y="688" type="curve" smooth="yes"/>
    </contour>
    <contour>
      <point x="368" y="523" type="line" smooth="yes"/>
      <point x="465" y="523"/>
      <point x="507" y="468"/>
      <point x="507" y="374" type="curve" smooth="yes"/>
      <point x="507" y="314" type="line" smooth="yes"/>
      <point x="507" y="220"/>
      <point x="465" y="165"/>
      <point x="368" y="165" type="curve" smooth="yes"/>
      <point x="295" y="165" type="line"/>
      <point x="295" y="523" type="line"/>
    </contour>
    <contour>
      <point x="556" y="885" type="line"/>
      <point x="426" y="885" type="line"/>
      <point x="352" y="808" type="line"/>
      <point x="277" y="885" type="line"/>
      <point x="149" y="885" type="line"/>
      <point x="289" y="740" type="line"/>
      <point x="417" y="740" type="line"/>
    </contour>
  </outline>
</glyph>
<glyph name="Emacron" format="1">
  <advance width="722"/>
  <unicode hex="0112"/>
  <outline>
    <contour>
      <point x="544" y="865" type="line"/>
      <point x="228" y="865" type="line"/>
      <point x="228" y="765" type="line"/>
      <point x="544" y="765" type="line"/>
    </contour>
    <contour>
      <point x="676" y="0" type="line"/>
      <point x="676" y="165" type="line"/>
      <point x="295" y="165" type="line"/>
      <point x="295" y="270" type="line"/>
      <point x="615" y="270" type="line"/>
      <point x="615" y="428" type="line"/>
      <point x="295" y="428" type="line"/>
      <point x="295" y="523" type="line"/>
      <point x="669" y="523" type="line"/>
      <point x="669" y="688" type="line"/>
      <point x="74" y="688" type="line"/>
      <point x="74" y="0" type="line"/>
    </contour>
  </outline>
</glyph>
<glyph name="Gdotaccent" format="1">
  <advance width="833"/>
  <unicode hex="0120"/>
  <outline>
    <contour>
      <point x="182" y="700"/>
      <point x="45" y="579"/>
      <point x="45" y="344" type="curve" smooth="yes"/>
      <point x="45" y="109"/>
      <point x="159" y="-12"/>
      <point x="388" y="-12" type="curve" smooth="yes"/>
      <point x="493" y="-12"/>
      <point x="572" y="15"/>
      <point x="634" y="68" type="curve"/>
      <point x="656" y="0" type="line"/>
      <point x="770" y="0" type="line"/>
      <point x="770" y="384" type="line"/>
      <point x="403" y="384" type="line"/>
      <point x="403" y="244" type="line"/>
      <point x="559" y="244" type="line"/>
      <point x="559" y="189"/>
      <point x="499" y="153"/>
      <point x="429" y="153" type="curve" smooth="yes"/>
      <point x="324" y="153"/>
      <point x="271" y="212"/>
      <point x="271" y="312" type="curve" smooth="yes"/>
      <point x="271" y="376" type="line" smooth="yes"/>
      <point x="271" y="476"/>
      <point x="324" y="535"/>
      <point x="429" y="535" type="curve" smooth="yes"/>
      <point x="499" y="535"/>
      <point x="559" y="498"/>
      <point x="559" y="439" type="curve"/>
      <point x="770" y="439" type="line"/>
      <point x="770" y="612"/>
      <point x="613" y="700"/>
      <point x="420" y="700" type="curve" smooth="yes"/>
    </contour>
    <contour>
      <point x="493" y="885" type="line"/>
      <point x="340" y="885" type="line"/>
      <point x="340" y="746" type="line"/>
      <point x="493" y="746" type="line"/>
    </contour>
  </outline>
</glyph>
<glyph name="Hbar" format="1">
  <advance width="833"/>
  <unicode hex="0126"/>
  <outline>
    <contour>
      <point x="831" y="502" type="line"/>
      <point x="831" y="600" type="line"/>
      <point x="759" y="600" type="line"/>
      <point x="759" y="688" type="line"/>
      <point x="538" y="688" type="line"/>
      <point x="538" y="600" type="line"/>
      <point x="295" y="600" type="line"/>
      <point x="295" y="688" type="line"/>
      <point x="74" y="688" type="line"/>
      <point x="74" y="600" type="line"/>
      <point x="1" y="600" type="line"/>
      <point x="1" y="502" type="line"/>
      <point x="74" y="502" type="line"/>
      <point x="74" y="0" type="line"/>
      <point x="295" y="0" type="line"/>
      <point x="295" y="251" type="line"/>
      <point x="538" y="251" type="line"/>
      <point x="538" y="0" type="line"/>
      <point x="759" y="0" type="line"/>
      <point x="759" y="502" type="line"/>
    </contour>
    <contour>
      <point x="295" y="427" type="line"/>
      <point x="295" y="502" type="line"/>
      <point x="538" y="502" type="line"/>
      <point x="538" y="427" type="line"/>
    </contour>
  </outline>
</glyph>
<glyph name="hbar" format="1">
  <advance width="667"/>
  <unicode hex="0127"/>
  <outline>
    <contour>
      <point x="259" y="725" type="line"/>
      <point x="60" y="725" type="line"/>
      <point x="60" y="668" type="line"/>
      <point x="-2" y="668" type="line"/>
      <point x="-2" y="575" type="line"/>
      <point x="60" y="575" type="line"/>
      <point x="60" y="0" type="line"/>
      <point x="259" y="0" type="line"/>
      <point x="259" y="310" type="line" smooth="yes"/>
      <point x="259" y="355"/>
      <point x="292" y="393"/>
      <point x="342" y="393" type="curve" smooth="yes"/>
      <point x="386" y="393"/>
      <point x="409" y="362"/>
      <point x="409" y="318" type="curve" smooth="yes"/>
      <point x="409" y="0" type="line"/>
      <point x="608" y="0" type="line"/>
      <point x="608" y="342" type="line" smooth="yes"/>
      <point x="608" y="467"/>
      <point x="549" y="540"/>
      <point x="424" y="540" type="curve" smooth="yes"/>
      <point x="361" y="540"/>
      <point x="301" y="515"/>
      <point x="259" y="473" type="curve"/>
      <point x="259" y="575" type="line"/>
      <point x="329" y="575" type="line"/>
      <point x="329" y="668" type="line"/>
      <point x="259" y="668" type="line"/>
    </contour>
  </outline>
</glyph>
<glyph name="Imacron" format="1">
  <advance width="389"/>
  <unicode hex="012A"/>
  <outline>
    <contour>
      <point x="305" y="688" type="line"/>
      <point x="84" y="688" type="line"/>
      <point x="84" y="0" type="line"/>
      <point x="305" y="0" type="line"/>
    </contour>
    <contour>
      <point x="353" y="865" type="line"/>
      <point x="37" y="865" type="line"/>
      <point x="37" y="765" type="line"/>
      <point x="353" y="765" type="line"/>
    </contour>
  </outline>
</glyph>
<glyph name="imacron" format="1">
  <advance width="333"/>
  <unicode hex="012B"/>
  <outline>
    <contour>
      <point x="266" y="528" type="line"/>
      <point x="67" y="528" type="line"/>
      <point x="67" y="0" type="line"/>
      <point x="266" y="0" type="line"/>
    </contour>
    <contour>
      <point x="325" y="705" type="line"/>
      <point x="8" y="705" type="line"/>
      <point x="8" y="605" type="line"/>
      <point x="325" y="605" type="line"/>
    </contour>
  </outline>
</glyph>
<glyph name="Ibreve" format="1">
  <advance width="389"/>
  <unicode hex="012C"/>
  <outline>
    <contour>
      <point x="305" y="688" type="line"/>
      <point x="84" y="688" type="line"/>
      <point x="84" y="0" type="line"/>
      <point x="305" y="0" type="line"/>
    </contour>
    <contour>
      <point x="284" y="885" type="line"/>
      <point x="280" y="864"/>
      <point x="244" y="835"/>
      <point x="194" y="835" type="curve" smooth="yes"/>
      <point x="146" y="835"/>
      <point x="110" y="864"/>
      <point x="106" y="885" type="curve"/>
      <point x="10" y="885" type="line"/>
      <point x="10" y="818"/>
      <point x="79" y="741"/>
      <point x="194" y="741" type="curve" smooth="yes"/>
      <point x="308" y="741"/>
      <point x="379" y="818"/>
      <point x="379" y="885" type="curve"/>
    </contour>
  </outline>
</glyph>
<glyph name="ibreve" format="1">
  <advance width="333"/>
  <unicode hex="012D"/>
  <outline>
    <contour>
      <point x="266" y="528" type="line"/>
      <point x="67" y="528" type="line"/>
      <point x="67" y="0" type="line"/>
      <point x="266" y="0" type="line"/>
    </contour>
    <contour>
      <point x="256" y="725" type="line"/>
      <point x="252" y="704"/>
      <point x="216" y="675"/>
      <point x="166" y="675" type="curve" smooth="yes"/>
      <point x="142" y="675"/>
      <point x="121" y="682"/>
      <point x="105" y="692" type="curve" smooth="yes"/>
      <point x="90" y="702"/>
      <point x="80" y="715"/>
      <point x="78" y="725" type="curve"/>
      <point x="-18" y="725" type="line"/>
      <point x="-18" y="658"/>
      <point x="51" y="581"/>
      <point x="166" y="581" type="curve" smooth="yes"/>
      <point x="280" y="581"/>
      <point x="351" y="658"/>
      <point x="351" y="725" type="curve"/>
    </contour>
  </outline>
</glyph>
<glyph name="dotlessi" format="1">
  <advance width="333"/>
  <unicode hex="0131"/>
  <outline>
    <contour>
      <point x="266" y="528" type="line"/>
      <point x="67" y="528" type="line"/>
      <point x="67" y="0" type="line"/>
      <point x="266" y="0" type="line"/>
    </contour>
    <contour>
      <point x="300" y="10" type="move" name="ogonek"/>
    </contour>
    <contour>
      <point x="167" y="528" type="move" name="top"/>
    </contour>
  </outline>
</glyph>
<glyph name="IJ" format="1">
  <advance width="1028"/>
  <unicode hex="0132"/>
  <outline>
    <contour>
      <point x="954" y="688" type="line"/>
      <point x="733" y="688" type="line"/>
      <point x="733" y="240" type="line" smooth="yes"/>
      <point x="733" y="176"/>
      <point x="709" y="153"/>
      <point x="662" y="153" type="curve" smooth="yes"/>
      <point x="615" y="153"/>
      <point x="591" y="176"/>
      <point x="591" y="240" type="curve" smooth="yes"/>
      <point x="591" y="248" type="line"/>
      <point x="384" y="248" type="line"/>
      <point x="384" y="239" type="line" smooth="yes"/>
      <point x="384" y="63"/>
      <point x="491" y="-12"/>
      <point x="669" y="-12" type="curve" smooth="yes"/>
      <point x="847" y="-12"/>
      <point x="954" y="63"/>
      <point x="954" y="239" type="curve" smooth="yes"/>
    </contour>
    <contour>
      <point x="305" y="688" type="line"/>
      <point x="84" y="688" type="line"/>
      <point x="84" y="0" type="line"/>
      <point x="305" y="0" type="line"/>
    </contour>
  </outline>
</glyph>
<glyph name="ij" format="1">
  <advance width="668"/>
  <unicode hex="0133"/>
  <outline>
    <contour>
      <point x="601" y="528" type="line"/>
      <point x="402" y="528" type="line"/>
      <point x="402" y="-9" type="line" smooth="yes"/>
      <point x="402" y="-50"/>
      <point x="386" y="-73"/>
      <point x="346" y="-73" type="curve" smooth="yes"/>
      <point x="294" y="-73" type="line"/>
      <point x="294" y="-192" type="line"/>
      <point x="325" y="-203"/>
      <point x="386" y="-210"/>
      <point x="418" y="-210" type="curve" smooth="yes"/>
      <point x="546" y="-210"/>
      <point x="601" y="-157"/>
      <point x="601" y="-29" type="curve" smooth="yes"/>
    </contour>
    <contour>
      <point x="601" y="725" type="line"/>
      <point x="402" y="725" type="line"/>
      <point x="402" y="590" type="line"/>
      <point x="601" y="590" type="line"/>
    </contour>
    <contour>
      <point x="266" y="528" type="line"/>
      <point x="67" y="528" type="line"/>
      <point x="67" y="0" type="line"/>
      <point x="266" y="0" type="line"/>
    </contour>
    <contour>
      <point x="266" y="725" type="line"/>
      <point x="67" y="725" type="line"/>
      <point x="67" y="590" type="line"/>
      <point x="266" y="590" type="line"/>
    </contour>
  </outline>
</glyph>
<glyph name="jcircumflex" format="1">
  <advance width="333"/>
  <unicode hex="0135"/>
  <outline>
    <contour>
      <point x="266" y="528" type="line"/>
      <point x="67" y="528" type="line"/>
      <point x="67" y="-9" type="line" smooth="yes"/>
      <point x="67" y="-50"/>
      <point x="51" y="-73"/>
      <point x="11" y="-73" type="curve" smooth="yes"/>
      <point x="-41" y="-73" type="line"/>
      <point x="-41" y="-192" type="line"/>
      <point x="-10" y="-203"/>
      <point x="51" y="-210"/>
      <point x="83" y="-210" type="curve" smooth="yes"/>
      <point x="211" y="-210"/>
      <point x="266" y="-157"/>
      <point x="266" y="-29" type="curve" smooth="yes"/>
    </contour>
    <contour>
      <point x="232" y="725" type="line"/>
      <point x="104" y="725" type="line"/>
      <point x="-35" y="580" type="line"/>
      <point x="93" y="580" type="line"/>
      <point x="167" y="657" type="line"/>
      <point x="241" y="580" type="line"/>
      <point x="371" y="580" type="line"/>
    </contour>
  </outline>
</glyph>
<glyph name="Kcommaaccent" format="1">
  <advance width="833"/>
  <unicode hex="0136"/>
  <outline>
    <contour>
      <point x="481" y="-59" type="line"/>
      <point x="352" y="-59" type="line"/>
      <point x="352" y="-175" type="line"/>
      <point x="401" y="-175" type="line"/>
      <point x="360" y="-267" type="line"/>
      <point x="427" y="-267" type="line"/>
      <point x="481" y="-168" type="line"/>
    </contour>
    <contour>
      <point x="295" y="688" type="line"/>
      <point x="74" y="688" type="line"/>
      <point x="74" y="0" type="line"/>
      <point x="295" y="0" type="line"/>
      <point x="295" y="154" type="line"/>
      <point x="415" y="252" type="line"/>
      <point x="558" y="0" type="line"/>
      <point x="819" y="0" type="line"/>
      <point x="567" y="405" type="line"/>
      <point x="814" y="688" type="line"/>
      <point x="540" y="688" type="line"/>
      <point x="295" y="394" type="line"/>
    </contour>
  </outline>
</glyph>
<glyph name="kgreenlandic" format="1">
  <advance width="667"/>
  <unicode hex="0138"/>
  <outline>
    <contour>
      <point x="660" y="528" type="line"/>
      <point x="428" y="528" type="line"/>
      <point x="259" y="326" type="line"/>
      <point x="259" y="528" type="line"/>
      <point x="60" y="528" type="line"/>
      <point x="60" y="0" type="line"/>
      <point x="259" y="0" type="line"/>
      <point x="259" y="114" type="line"/>
      <point x="328" y="181" type="line"/>
      <point x="439" y="0" type="line"/>
      <point x="665" y="0" type="line"/>
      <point x="465" y="315" type="line"/>
    </contour>
  </outline>
</glyph>
<glyph name="Lacute" format="1">
  <advance width="667"/>
  <unicode hex="0139"/>
  <outline>
    <contour>
      <point x="375" y="881" type="line"/>
      <point x="373" y="885" type="line"/>
      <point x="180" y="885" type="line"/>
      <point x="88" y="752" type="line"/>
      <point x="215" y="752" type="line"/>
    </contour>
    <contour>
      <point x="648" y="0" type="line"/>
      <point x="648" y="176" type="line"/>
      <point x="295" y="176" type="line"/>
      <point x="295" y="688" type="line"/>
      <point x="74" y="688" type="line"/>
      <point x="74" y="0" type="line"/>
    </contour>
  </outline>
</glyph>
<glyph name="lacute" format="1">
  <advance width="333"/>
  <unicode hex="013A"/>
  <outline>
    <contour>
      <point x="266" y="0" type="line"/>
      <point x="266" y="725" type="line"/>
      <point x="67" y="725" type="line"/>
      <point x="67" y="0" type="line"/>
    </contour>
    <contour>
      <point x="357" y="881" type="line"/>
      <point x="355" y="885" type="line"/>
      <point x="163" y="885" type="line"/>
      <point x="70" y="752" type="line"/>
      <point x="198" y="752" type="line"/>
    </contour>
  </outline>
</glyph>
<glyph name="Lcommaaccent" format="1">
  <advance width="667"/>
  <unicode hex="013B"/>
  <outline>
    <contour>
      <point x="398" y="-59" type="line"/>
      <point x="269" y="-59" type="line"/>
      <point x="269" y="-175" type="line"/>
      <point x="318" y="-175" type="line"/>
      <point x="277" y="-267" type="line"/>
      <point x="344" y="-267" type="line"/>
      <point x="398" y="-168" type="line"/>
    </contour>
    <contour>
      <point x="648" y="0" type="line"/>
      <point x="648" y="176" type="line"/>
      <point x="295" y="176" type="line"/>
      <point x="295" y="688" type="line"/>
      <point x="74" y="688" type="line"/>
      <point x="74" y="0" type="line"/>
    </contour>
  </outline>
</glyph>
<glyph name="lcommaaccent" format="1">
  <advance width="333"/>
  <unicode hex="013C"/>
  <outline>
    <contour>
      <point x="266" y="725" type="line"/>
      <point x="67" y="725" type="line"/>
      <point x="67" y="0" type="line"/>
      <point x="266" y="0" type="line"/>
    </contour>
    <contour>
      <point x="231" y="-59" type="line"/>
      <point x="102" y="-59" type="line"/>
      <point x="102" y="-175" type="line"/>
      <point x="151" y="-175" type="line"/>
      <point x="110" y="-267" type="line"/>
      <point x="177" y="-267" type="line"/>
      <point x="231" y="-168" type="line"/>
    </contour>
  </outline>
</glyph>
<glyph name="Lcaron" format="1">
  <advance width="667"/>
  <unicode hex="013D"/>
  <outline>
    <contour>
      <point x="625" y="688" type="line"/>
      <point x="496" y="688" type="line"/>
      <point x="496" y="572" type="line"/>
      <point x="545" y="572" type="line"/>
      <point x="504" y="480" type="line"/>
      <point x="571" y="480" type="line"/>
      <point x="625" y="579" type="line"/>
    </contour>
    <contour>
      <point x="648" y="0" type="line"/>
      <point x="648" y="176" type="line"/>
      <point x="295" y="176" type="line"/>
      <point x="295" y="688" type="line"/>
      <point x="74" y="688" type="line"/>
      <point x="74" y="0" type="line"/>
    </contour>
  </outline>
</glyph>
<glyph name="ldot" format="1">
  <advance width="534"/>
  <unicode hex="0140"/>
  <outline>
    <contour>
      <point x="266" y="725" type="line"/>
      <point x="67" y="725" type="line"/>
      <point x="67" y="0" type="line"/>
      <point x="266" y="0" type="line"/>
    </contour>
    <contour>
      <point x="512" y="528" type="line"/>
      <point x="359" y="528" type="line"/>
      <point x="359" y="389" type="line"/>
      <point x="512" y="389" type="line"/>
    </contour>
  </outline>
</glyph>
<glyph name="Lslash" format="1">
  <advance width="667"/>
  <unicode hex="0141"/>
  <outline>
    <contour>
      <point x="295" y="688" type="line"/>
      <point x="74" y="688" type="line"/>
      <point x="74" y="328" type="line"/>
      <point x="0" y="282" type="line"/>
      <point x="0" y="184" type="line"/>
      <point x="74" y="229" type="line"/>
      <point x="74" y="0" type="line"/>
      <point x="648" y="0" type="line"/>
      <point x="648" y="176" type="line"/>
      <point x="295" y="176" type="line"/>
      <point x="295" y="364" type="line"/>
      <point x="444" y="456" type="line"/>
      <point x="444" y="556" type="line"/>
      <point x="295" y="463" type="line"/>
    </contour>
  </outline>
</glyph>
<glyph name="lslash" format="1">
  <advance width="333"/>
  <unicode hex="0142"/>
  <outline>
    <contour>
      <point x="266" y="725" type="line"/>
      <point x="67" y="725" type="line"/>
      <point x="67" y="333" type="line"/>
      <point x="-15" y="283" type="line"/>
      <point x="-15" y="185" type="line"/>
      <point x="67" y="234" type="line"/>
      <point x="67" y="0" type="line"/>
      <point x="266" y="0" type="line"/>
      <point x="266" y="351" type="line"/>
      <point x="362" y="409" type="line"/>
      <point x="362" y="509" type="line"/>
      <point x="266" y="450" type="line"/>
    </contour>
  </outline>
</glyph>
<glyph name="Nacute" format="1">
  <advance width="833"/>
  <unicode hex="0143"/>
  <outline>
    <contour>
      <point x="759" y="0" type="line"/>
      <point x="759" y="688" type="line"/>
      <point x="556" y="688" type="line"/>
      <point x="556" y="349" type="line"/>
      <point x="267" y="688" type="line"/>
      <point x="74" y="688" type="line"/>
      <point x="74" y="0" type="line"/>
      <point x="277" y="0" type="line"/>
      <point x="277" y="334" type="line"/>
      <point x="566" y="0" type="line"/>
    </contour>
    <contour>
      <point x="607" y="881" type="line"/>
      <point x="605" y="885" type="line"/>
      <point x="413" y="885" type="line"/>
      <point x="320" y="752" type="line"/>
      <point x="448" y="752" type="line"/>
    </contour>
  </outline>
</glyph>
<glyph name="Ncommaaccent" format="1">
  <advance width="833"/>
  <unicode hex="0145"/>
  <outline>
    <contour>
      <point x="759" y="688" type="line"/>
      <point x="556" y="688" type="line"/>
      <point x="556" y="349" type="line"/>
      <point x="267" y="688" type="line"/>
      <point x="74" y="688" type="line"/>
      <point x="74" y="0" type="line"/>
      <point x="277" y="0" type="line"/>
      <point x="277" y="334" type="line"/>
      <point x="566" y="0" type="line"/>
      <point x="759" y="0" type="line"/>
    </contour>
    <contour>
      <point x="481" y="-59" type="line"/>
      <point x="352" y="-59" type="line"/>
      <point x="352" y="-175" type="line"/>
      <point x="401" y="-175" type="line"/>
      <point x="360" y="-267" type="line"/>
      <point x="427" y="-267" type="line"/>
      <point x="481" y="-168" type="line"/>
    </contour>
  </outline>
</glyph>
<glyph name="Ncaron" format="1">
  <advance width="833"/>
  <unicode hex="0147"/>
  <outline>
    <contour>
      <point x="759" y="688" type="line"/>
      <point x="556" y="688" type="line"/>
      <point x="556" y="349" type="line"/>
      <point x="267" y="688" type="line"/>
      <point x="74" y="688" type="line"/>
      <point x="74" y="0" type="line"/>
      <point x="277" y="0" type="line"/>
      <point x="277" y="334" type="line"/>
      <point x="566" y="0" type="line"/>
      <point x="759" y="0" type="line"/>
    </contour>
    <contour>
      <point x="620" y="885" type="line"/>
      <point x="490" y="885" type="line"/>
      <point x="416" y="808" type="line"/>
      <point x="341" y="885" type="line"/>
      <point x="213" y="885" type="line"/>
      <point x="353" y="740" type="line"/>
      <point x="480" y="740" type="line"/>
    </contour>
  </outline>
</glyph>
<glyph name="Eng" format="1">
  <advance width="814"/>
  <unicode hex="014A"/>
  <outline>
    <contour>
      <point x="759" y="688" type="line"/>
      <point x="556" y="688" type="line"/>
      <point x="556" y="349" type="line"/>
      <point x="267" y="688" type="line"/>
      <point x="74" y="688" type="line"/>
      <point x="74" y="0" type="line"/>
      <point x="277" y="0" type="line"/>
      <point x="277" y="334" type="line"/>
      <point x="557" y="10" type="line"/>
      <point x="557" y="-9" type="line" smooth="yes"/>
      <point x="557" y="-50"/>
      <point x="541" y="-73"/>
      <point x="501" y="-73" type="curve" smooth="yes"/>
      <point x="452" y="-73" type="line"/>
      <point x="452" y="-192" type="line"/>
      <point x="483" y="-203"/>
      <point x="544" y="-210"/>
      <point x="576" y="-210" type="curve" smooth="yes"/>
      <point x="704" y="-210"/>
      <point x="759" y="-157"/>
      <point x="759" y="-29" type="curve" smooth="yes"/>
    </contour>
  </outline>
</glyph>
<glyph name="eng" format="1">
  <advance width="681"/>
  <unicode hex="014B"/>
  <outline>
    <contour>
      <point x="356" y="540"/>
      <point x="284" y="504"/>
      <point x="243" y="448" type="curve"/>
      <point x="230" y="528" type="line"/>
      <point x="67" y="528" type="line"/>
      <point x="67" y="0" type="line"/>
      <point x="266" y="0" type="line"/>
      <point x="266" y="310" type="line" smooth="yes"/>
      <point x="266" y="355"/>
      <point x="299" y="393"/>
      <point x="349" y="393" type="curve" smooth="yes"/>
      <point x="393" y="393"/>
      <point x="416" y="362"/>
      <point x="416" y="318" type="curve" smooth="yes"/>
      <point x="416" y="-9" type="line" smooth="yes"/>
      <point x="416" y="-50"/>
      <point x="400" y="-73"/>
      <point x="360" y="-73" type="curve" smooth="yes"/>
      <point x="308" y="-73" type="line"/>
      <point x="308" y="-192" type="line"/>
      <point x="339" y="-203"/>
      <point x="400" y="-210"/>
      <point x="432" y="-210" type="curve" smooth="yes"/>
      <point x="560" y="-210"/>
      <point x="615" y="-157"/>
      <point x="615" y="-29" type="curve" smooth="yes"/>
      <point x="615" y="342" type="line" smooth="yes"/>
      <point x="615" y="467"/>
      <point x="556" y="540"/>
      <point x="431" y="540" type="curve" smooth="yes"/>
    </contour>
  </outline>
</glyph>
<glyph name="Obreve" format="1">
  <advance width="833"/>
  <unicode hex="014E"/>
  <outline>
    <contour>
      <point x="181" y="700"/>
      <point x="45" y="579"/>
      <point x="45" y="344" type="curve" smooth="yes"/>
      <point x="45" y="109"/>
      <point x="181" y="-12"/>
      <point x="416" y="-12" type="curve" smooth="yes"/>
      <point x="651" y="-12"/>
      <point x="788" y="109"/>
      <point x="788" y="344" type="curve" smooth="yes"/>
      <point x="788" y="579"/>
      <point x="651" y="700"/>
      <point x="416" y="700" type="curve" smooth="yes"/>
    </contour>
    <contour>
      <point x="513" y="535"/>
      <point x="562" y="470"/>
      <point x="562" y="376" type="curve" smooth="yes"/>
      <point x="562" y="312" type="line" smooth="yes"/>
      <point x="562" y="218"/>
      <point x="513" y="153"/>
      <point x="416" y="153" type="curve" smooth="yes"/>
      <point x="319" y="153"/>
      <point x="271" y="218"/>
      <point x="271" y="312" type="curve" smooth="yes"/>
      <point x="271" y="376" type="line" smooth="yes"/>
      <point x="271" y="470"/>
      <point x="319" y="535"/>
      <point x="416" y="535" type="curve" smooth="yes"/>
    </contour>
    <contour>
      <point x="506" y="885" type="line"/>
      <point x="502" y="864"/>
      <point x="466" y="835"/>
      <point x="416" y="835" type="curve" smooth="yes"/>
      <point x="367" y="835"/>
      <point x="332" y="864"/>
      <point x="328" y="885" type="curve"/>
      <point x="232" y="885" type="line"/>
      <point x="232" y="818"/>
      <point x="301" y="741"/>
      <point x="416" y="741" type="curve" smooth="yes"/>
      <point x="530" y="741"/>
      <point x="601" y="818"/>
      <point x="601" y="885" type="curve"/>
    </contour>
  </outline>
</glyph>
<glyph name="obreve" format="1">
  <advance width="667"/>
  <unicode hex="014F"/>
  <outline>
    <contour>
      <point x="153" y="540"/>
      <point x="36" y="449"/>
      <point x="36" y="264" type="curve" smooth="yes"/>
      <point x="36" y="79"/>
      <point x="153" y="-12"/>
      <point x="333" y="-12" type="curve" smooth="yes"/>
      <point x="513" y="-12"/>
      <point x="631" y="79"/>
      <point x="631" y="264" type="curve" smooth="yes"/>
      <point x="631" y="449"/>
      <point x="513" y="540"/>
      <point x="333" y="540" type="curve" smooth="yes"/>
    </contour>
    <contour>
      <point x="403" y="405"/>
      <point x="432" y="362"/>
      <point x="432" y="292" type="curve" smooth="yes"/>
      <point x="432" y="235" type="line" smooth="yes"/>
      <point x="432" y="165"/>
      <point x="403" y="123"/>
      <point x="333" y="123" type="curve" smooth="yes"/>
      <point x="263" y="123"/>
      <point x="235" y="165"/>
      <point x="235" y="235" type="curve" smooth="yes"/>
      <point x="235" y="292" type="line" smooth="yes"/>
      <point x="235" y="362"/>
      <point x="263" y="405"/>
      <point x="333" y="405" type="curve" smooth="yes"/>
    </contour>
    <contour>
      <point x="423" y="725" type="line"/>
      <point x="419" y="704"/>
      <point x="383" y="675"/>
      <point x="333" y="675" type="curve" smooth="yes"/>
      <point x="309" y="675"/>
      <point x="288" y="682"/>
      <point x="272" y="692" type="curve" smooth="yes"/>
      <point x="257" y="702"/>
      <point x="247" y="715"/>
      <point x="245" y="725" type="curve"/>
      <point x="149" y="725" type="line"/>
      <point x="149" y="658"/>
      <point x="218" y="581"/>
      <point x="333" y="581" type="curve" smooth="yes"/>
      <point x="447" y="581"/>
      <point x="518" y="658"/>
      <point x="518" y="725" type="curve"/>
    </contour>
  </outline>
</glyph>
<glyph name="Ohungarumlaut" format="1">
  <advance width="833"/>
  <unicode hex="0150"/>
  <outline>
    <contour>
      <point x="181" y="700"/>
      <point x="45" y="579"/>
      <point x="45" y="344" type="curve" smooth="yes"/>
      <point x="45" y="109"/>
      <point x="181" y="-12"/>
      <point x="416" y="-12" type="curve" smooth="yes"/>
      <point x="651" y="-12"/>
      <point x="788" y="109"/>
      <point x="788" y="344" type="curve" smooth="yes"/>
      <point x="788" y="579"/>
      <point x="651" y="700"/>
      <point x="416" y="700" type="curve" smooth="yes"/>
    </contour>
    <contour>
      <point x="513" y="535"/>
      <point x="562" y="470"/>
      <point x="562" y="376" type="curve" smooth="yes"/>
      <point x="562" y="312" type="line" smooth="yes"/>
      <point x="562" y="218"/>
      <point x="513" y="153"/>
      <point x="416" y="153" type="curve" smooth="yes"/>
      <point x="319" y="153"/>
      <point x="271" y="218"/>
      <point x="271" y="312" type="curve" smooth="yes"/>
      <point x="271" y="376" type="line" smooth="yes"/>
      <point x="271" y="470"/>
      <point x="319" y="535"/>
      <point x="416" y="535" type="curve" smooth="yes"/>
    </contour>
    <contour>
      <point x="500" y="886" type="line"/>
      <point x="322" y="886" type="line"/>
      <point x="246" y="752" type="line"/>
      <point x="363" y="752" type="line"/>
      <point x="502" y="882" type="line"/>
    </contour>
    <contour>
      <point x="711" y="886" type="line"/>
      <point x="533" y="886" type="line"/>
      <point x="457" y="752" type="line"/>
      <point x="574" y="752" type="line"/>
      <point x="713" y="882" type="line"/>
    </contour>
  </outline>
</glyph>
<glyph name="OE" format="1">
  <advance width="1000"/>
  <unicode hex="0152"/>
  <outline>
    <contour>
      <point x="973" y="0" type="line"/>
      <point x="973" y="165" type="line"/>
      <point x="689" y="165" type="line"/>
      <point x="689" y="270" type="line"/>
      <point x="912" y="270" type="line"/>
      <point x="912" y="428" type="line"/>
      <point x="689" y="428" type="line"/>
      <point x="689" y="523" type="line"/>
      <point x="966" y="523" type="line"/>
      <point x="966" y="688" type="line"/>
      <point x="495" y="688" type="line"/>
      <point x="495" y="625" type="line"/>
      <point x="449" y="674"/>
      <point x="386" y="700"/>
      <point x="309" y="700" type="curve" smooth="yes"/>
      <point x="134" y="700"/>
      <point x="35" y="569"/>
      <point x="35" y="344" type="curve" smooth="yes"/>
      <point x="35" y="119"/>
      <point x="134" y="-12"/>
      <point x="309" y="-12" type="curve" smooth="yes"/>
      <point x="386" y="-12"/>
      <point x="449" y="14"/>
      <point x="495" y="62" type="curve"/>
      <point x="495" y="0" type="line"/>
    </contour>
    <contour>
      <point x="496" y="312" type="line" smooth="yes"/>
      <point x="496" y="218"/>
      <point x="455" y="153"/>
      <point x="370" y="153" type="curve" smooth="yes"/>
      <point x="285" y="153"/>
      <point x="244" y="218"/>
      <point x="244" y="312" type="curve" smooth="yes"/>
      <point x="244" y="376" type="line" smooth="yes"/>
      <point x="244" y="470"/>
      <point x="285" y="535"/>
      <point x="370" y="535" type="curve" smooth="yes"/>
      <point x="455" y="535"/>
      <point x="496" y="470"/>
      <point x="496" y="376" type="curve" smooth="yes"/>
    </contour>
    <contour>
      <point x="500" y="688" type="move" name="top"/>
    </contour>
  </outline>
</glyph>
<glyph name="Racute" format="1">
  <advance width="778"/>
  <unicode hex="0154"/>
  <outline>
    <contour>
      <point x="569" y="881" type="line"/>
      <point x="567" y="885" type="line"/>
      <point x="374" y="885" type="line"/>
      <point x="282" y="752" type="line"/>
      <point x="409" y="752" type="line"/>
    </contour>
    <contour>
      <point x="727" y="589"/>
      <point x="648" y="688"/>
      <point x="495" y="688" type="curve" smooth="yes"/>
      <point x="74" y="688" type="line"/>
      <point x="74" y="0" type="line"/>
      <point x="295" y="0" type="line"/>
      <point x="295" y="251" type="line"/>
      <point x="377" y="251" type="line"/>
      <point x="499" y="0" type="line"/>
      <point x="747" y="0" type="line"/>
      <point x="594" y="288" type="line"/>
      <point x="683" y="321"/>
      <point x="727" y="397"/>
      <point x="727" y="477" type="curve" smooth="yes"/>
    </contour>
    <contour>
      <point x="502" y="431"/>
      <point x="474" y="404"/>
      <point x="440" y="404" type="curve" smooth="yes"/>
      <point x="295" y="404" type="line"/>
      <point x="295" y="531" type="line"/>
      <point x="440" y="531" type="line" smooth="yes"/>
      <point x="474" y="531"/>
      <point x="502" y="505"/>
      <point x="502" y="468" type="curve" smooth="yes"/>
    </contour>
  </outline>
</glyph>
<glyph name="racute" format="1">
  <advance width="444"/>
  <unicode hex="0155"/>
  <outline>
    <contour>
      <point x="318" y="541"/>
      <point x="261" y="511"/>
      <point x="236" y="448" type="curve"/>
      <point x="223" y="528" type="line"/>
      <point x="60" y="528" type="line"/>
      <point x="60" y="0" type="line"/>
      <point x="259" y="0" type="line"/>
      <point x="259" y="235" type="line" smooth="yes"/>
      <point x="259" y="315"/>
      <point x="290" y="362"/>
      <point x="376" y="362" type="curve" smooth="yes"/>
      <point x="440" y="362" type="line"/>
      <point x="440" y="529" type="line"/>
      <point x="440" y="529"/>
      <point x="418" y="541"/>
      <point x="381" y="541" type="curve" smooth="yes"/>
    </contour>
    <contour>
      <point x="340" y="721" type="line"/>
      <point x="338" y="725" type="line"/>
      <point x="146" y="725" type="line"/>
      <point x="53" y="592" type="line"/>
      <point x="181" y="592" type="line"/>
    </contour>
  </outline>
</glyph>
<glyph name="rcommaaccent" format="1">
  <advance width="444"/>
  <unicode hex="0157"/>
  <outline>
    <contour>
      <point x="318" y="541"/>
      <point x="261" y="511"/>
      <point x="236" y="448" type="curve"/>
      <point x="223" y="528" type="line"/>
      <point x="60" y="528" type="line"/>
      <point x="60" y="0" type="line"/>
      <point x="259" y="0" type="line"/>
      <point x="259" y="235" type="line" smooth="yes"/>
      <point x="259" y="315"/>
      <point x="290" y="362"/>
      <point x="376" y="362" type="curve" smooth="yes"/>
      <point x="440" y="362" type="line"/>
      <point x="440" y="529" type="line"/>
      <point x="440" y="529"/>
      <point x="418" y="541"/>
      <point x="381" y="541" type="curve" smooth="yes"/>
    </contour>
    <contour>
      <point x="287" y="-59" type="line"/>
      <point x="157" y="-59" type="line"/>
      <point x="157" y="-175" type="line"/>
      <point x="207" y="-175" type="line"/>
      <point x="166" y="-267" type="line"/>
      <point x="233" y="-267" type="line"/>
      <point x="287" y="-168" type="line"/>
    </contour>
  </outline>
</glyph>
<glyph name="scircumflex" format="1">
  <advance width="611"/>
  <unicode hex="015D"/>
  <outline>
    <contour>
      <point x="172" y="540"/>
      <point x="46" y="500"/>
      <point x="46" y="361" type="curve" smooth="yes"/>
      <point x="46" y="153"/>
      <point x="387" y="225"/>
      <point x="387" y="146" type="curve" smooth="yes"/>
      <point x="387" y="109"/>
      <point x="332" y="107"/>
      <point x="304" y="107" type="curve" smooth="yes"/>
      <point x="275" y="107"/>
      <point x="218" y="117"/>
      <point x="217" y="168" type="curve"/>
      <point x="217" y="172" type="line"/>
      <point x="32" y="172" type="line"/>
      <point x="32" y="40"/>
      <point x="172" y="-12"/>
      <point x="304" y="-12" type="curve" smooth="yes"/>
      <point x="449" y="-12"/>
      <point x="577" y="30"/>
      <point x="577" y="175" type="curve" smooth="yes"/>
      <point x="577" y="390"/>
      <point x="236" y="311"/>
      <point x="236" y="387" type="curve" smooth="yes"/>
      <point x="236" y="421"/>
      <point x="291" y="421"/>
      <point x="308" y="421" type="curve" smooth="yes"/>
      <point x="322" y="421"/>
      <point x="339" y="419"/>
      <point x="353" y="411" type="curve"/>
      <point x="368" y="404"/>
      <point x="379" y="391"/>
      <point x="379" y="370" type="curve"/>
      <point x="564" y="370" type="line"/>
      <point x="564" y="495"/>
      <point x="436" y="540"/>
      <point x="311" y="540" type="curve" smooth="yes"/>
    </contour>
    <contour>
      <point x="370" y="725" type="line"/>
      <point x="242" y="725" type="line"/>
      <point x="103" y="580" type="line"/>
      <point x="230" y="580" type="line"/>
      <point x="305" y="657" type="line"/>
      <point x="379" y="580" type="line"/>
      <point x="509" y="580" type="line"/>
    </contour>
  </outline>
</glyph>
<glyph name="Scedilla" format="1">
  <advance width="722"/>
  <unicode hex="015E"/>
  <outline>
    <contour>
      <point x="200" y="700"/>
      <point x="54" y="640"/>
      <point x="54" y="480" type="curve" smooth="yes"/>
      <point x="54" y="212"/>
      <point x="460" y="291"/>
      <point x="460" y="192" type="curve" smooth="yes"/>
      <point x="460" y="149"/>
      <point x="403" y="146"/>
      <point x="363" y="146" type="curve" smooth="yes"/>
      <point x="295" y="146"/>
      <point x="252" y="159"/>
      <point x="252" y="233" type="curve"/>
      <point x="43" y="233" type="line"/>
      <point x="43" y="55"/>
      <point x="165" y="-2"/>
      <point x="332" y="-11" type="curve"/>
      <point x="320" y="-86" type="line"/>
      <point x="358" y="-86" type="line" smooth="yes"/>
      <point x="387" y="-86"/>
      <point x="396" y="-98"/>
      <point x="396" y="-118" type="curve" smooth="yes"/>
      <point x="396" y="-141"/>
      <point x="380" y="-149"/>
      <point x="356" y="-149" type="curve" smooth="yes"/>
      <point x="304" y="-149"/>
      <point x="239" y="-141"/>
      <point x="239" y="-141" type="curve"/>
      <point x="239" y="-195" type="line"/>
      <point x="269" y="-205"/>
      <point x="319" y="-211"/>
      <point x="365" y="-211" type="curve" smooth="yes"/>
      <point x="412" y="-211"/>
      <point x="483" y="-194"/>
      <point x="483" y="-118" type="curve" smooth="yes"/>
      <point x="483" y="-56"/>
      <point x="439" y="-34"/>
      <point x="391" y="-29" type="curve"/>
      <point x="393" y="-12" type="line"/>
      <point x="561" y="-9"/>
      <point x="686" y="61"/>
      <point x="686" y="228" type="curve"/>
      <point x="681" y="483"/>
      <point x="280" y="402"/>
      <point x="280" y="505" type="curve" smooth="yes"/>
      <point x="280" y="529"/>
      <point x="310" y="550"/>
      <point x="371" y="550" type="curve" smooth="yes"/>
      <point x="435" y="550"/>
      <point x="460" y="516"/>
      <point x="460" y="480" type="curve" smooth="yes"/>
      <point x="460" y="476" type="line"/>
      <point x="667" y="476" type="line"/>
      <point x="667" y="488" type="line"/>
      <point x="664" y="635"/>
      <point x="529" y="700"/>
      <point x="363" y="700" type="curve" smooth="yes"/>
    </contour>
  </outline>
</glyph>
<glyph name="scedilla" format="1">
  <advance width="611"/>
  <unicode hex="015F"/>
  <outline>
    <contour>
      <point x="172" y="540"/>
      <point x="46" y="500"/>
      <point x="46" y="361" type="curve" smooth="yes"/>
      <point x="46" y="153"/>
      <point x="387" y="225"/>
      <point x="387" y="146" type="curve" smooth="yes"/>
      <point x="387" y="109"/>
      <point x="332" y="107"/>
      <point x="304" y="107" type="curve" smooth="yes"/>
      <point x="275" y="107"/>
      <point x="218" y="117"/>
      <point x="217" y="168" type="curve"/>
      <point x="217" y="172" type="line"/>
      <point x="32" y="172" type="line"/>
      <point x="32" y="49"/>
      <point x="153" y="-4"/>
      <point x="276" y="-11" type="curve"/>
      <point x="265" y="-86" type="line"/>
      <point x="303" y="-86" type="line" smooth="yes"/>
      <point x="332" y="-86"/>
      <point x="341" y="-98"/>
      <point x="341" y="-118" type="curve" smooth="yes"/>
      <point x="341" y="-141"/>
      <point x="325" y="-149"/>
      <point x="301" y="-149" type="curve" smooth="yes"/>
      <point x="249" y="-149"/>
      <point x="184" y="-141"/>
      <point x="184" y="-141" type="curve"/>
      <point x="184" y="-195" type="line"/>
      <point x="213" y="-205"/>
      <point x="264" y="-211"/>
      <point x="310" y="-211" type="curve" smooth="yes"/>
      <point x="356" y="-211"/>
      <point x="428" y="-194"/>
      <point x="428" y="-118" type="curve" smooth="yes"/>
      <point x="428" y="-56"/>
      <point x="384" y="-34"/>
      <point x="335" y="-29" type="curve"/>
      <point x="337" y="-11" type="line"/>
      <point x="468" y="-5"/>
      <point x="577" y="41"/>
      <point x="577" y="175" type="curve" smooth="yes"/>
      <point x="577" y="390"/>
      <point x="236" y="311"/>
      <point x="236" y="387" type="curve" smooth="yes"/>
      <point x="236" y="421"/>
      <point x="291" y="421"/>
      <point x="308" y="421" type="curve" smooth="yes"/>
      <point x="322" y="421"/>
      <point x="339" y="419"/>
      <point x="353" y="411" type="curve"/>
      <point x="368" y="404"/>
      <point x="379" y="391"/>
      <point x="379" y="370" type="curve"/>
      <point x="564" y="370" type="line"/>
      <point x="564" y="495"/>
      <point x="436" y="540"/>
      <point x="311" y="540" type="curve" smooth="yes"/>
    </contour>
  </outline>
</glyph>
<glyph name="Tcaron" format="1">
  <advance width="722"/>
  <unicode hex="0164"/>
  <outline>
    <contour>
      <point x="695" y="688" type="line"/>
      <point x="23" y="688" type="line"/>
      <point x="23" y="512" type="line"/>
      <point x="249" y="512" type="line"/>
      <point x="249" y="0" type="line"/>
      <point x="470" y="0" type="line"/>
      <point x="470" y="512" type="line"/>
      <point x="695" y="512" type="line"/>
    </contour>
    <contour>
      <point x="564" y="885" type="line"/>
      <point x="435" y="885" type="line"/>
      <point x="360" y="808" type="line"/>
      <point x="286" y="885" type="line"/>
      <point x="158" y="885" type="line"/>
      <point x="297" y="740" type="line"/>
      <point x="425" y="740" type="line"/>
    </contour>
  </outline>
</glyph>
<glyph name="utilde" format="1">
  <advance width="667"/>
  <unicode hex="0169"/>
  <outline>
    <contour>
      <point x="606" y="528" type="line"/>
      <point x="407" y="528" type="line"/>
      <point x="407" y="218" type="line" smooth="yes"/>
      <point x="407" y="173"/>
      <point x="374" y="135"/>
      <point x="324" y="135" type="curve" smooth="yes"/>
      <point x="280" y="135"/>
      <point x="257" y="166"/>
      <point x="257" y="210" type="curve" smooth="yes"/>
      <point x="257" y="528" type="line"/>
      <point x="58" y="528" type="line"/>
      <point x="58" y="186" type="line" smooth="yes"/>
      <point x="58" y="61"/>
      <point x="117" y="-12"/>
      <point x="242" y="-12" type="curve" smooth="yes"/>
      <point x="317" y="-12"/>
      <point x="389" y="23"/>
      <point x="430" y="80" type="curve"/>
      <point x="443" y="0" type="line"/>
      <point x="606" y="0" type="line"/>
    </contour>
    <contour>
      <point x="475" y="725" type="line"/>
      <point x="467" y="702"/>
      <point x="450" y="685"/>
      <point x="424" y="685" type="curve" smooth="yes"/>
      <point x="371" y="685"/>
      <point x="315" y="725"/>
      <point x="251" y="725" type="curve" smooth="yes"/>
      <point x="167" y="725"/>
      <point x="111" y="654"/>
      <point x="111" y="582" type="curve"/>
      <point x="192" y="582" type="line"/>
      <point x="200" y="605"/>
      <point x="217" y="622"/>
      <point x="243" y="622" type="curve" smooth="yes"/>
      <point x="296" y="622"/>
      <point x="352" y="582"/>
      <point x="416" y="582" type="curve" smooth="yes"/>
      <point x="500" y="582"/>
      <point x="556" y="653"/>
      <point x="556" y="725" type="curve"/>
    </contour>
  </outline>
</glyph>
<glyph name="Ubreve" format="1">
  <advance width="833"/>
  <unicode hex="016C"/>
  <outline>
    <contour>
      <point x="759" y="688" type="line"/>
      <point x="538" y="688" type="line"/>
      <point x="538" y="280" type="line" smooth="yes"/>
      <point x="538" y="206"/>
      <point x="497" y="153"/>
      <point x="416" y="153" type="curve" smooth="yes"/>
      <point x="335" y="153"/>
      <point x="295" y="206"/>
      <point x="295" y="280" type="curve" smooth="yes"/>
      <point x="295" y="688" type="line"/>
      <point x="74" y="688" type="line"/>
      <point x="74" y="277" type="line" smooth="yes"/>
      <point x="74" y="87"/>
      <point x="201" y="-12"/>
      <point x="417" y="-12" type="curve" smooth="yes"/>
      <point x="633" y="-12"/>
      <point x="759" y="87"/>
      <point x="759" y="277" type="curve" smooth="yes"/>
    </contour>
    <contour>
      <point x="506" y="885" type="line"/>
      <point x="502" y="864"/>
      <point x="466" y="835"/>
      <point x="416" y="835" type="curve" smooth="yes"/>
      <point x="367" y="835"/>
      <point x="332" y="864"/>
      <point x="328" y="885" type="curve"/>
      <point x="232" y="885" type="line"/>
      <point x="232" y="818"/>
      <point x="301" y="741"/>
      <point x="416" y="741" type="curve" smooth="yes"/>
      <point x="530" y="741"/>
      <point x="601" y="818"/>
      <point x="601" y="885" type="curve"/>
    </contour>
  </outline>
</glyph>
<glyph name="ubreve" format="1">
  <advance width="667"/>
  <unicode hex="016D"/>
  <outline>
    <contour>
      <point x="606" y="528" type="line"/>
      <point x="407" y="528" type="line"/>
      <point x="407" y="218" type="line" smooth="yes"/>
      <point x="407" y="173"/>
      <point x="374" y="135"/>
      <point x="324" y="135" type="curve" smooth="yes"/>
      <point x="280" y="135"/>
      <point x="257" y="166"/>
      <point x="257" y="210" type="curve" smooth="yes"/>
      <point x="257" y="528" type="line"/>
      <point x="58" y="528" type="line"/>
      <point x="58" y="186" type="line" smooth="yes"/>
      <point x="58" y="61"/>
      <point x="117" y="-12"/>
      <point x="242" y="-12" type="curve" smooth="yes"/>
      <point x="317" y="-12"/>
      <point x="389" y="23"/>
      <point x="430" y="80" type="curve"/>
      <point x="443" y="0" type="line"/>
      <point x="606" y="0" type="line"/>
    </contour>
    <contour>
      <point x="423" y="725" type="line"/>
      <point x="419" y="704"/>
      <point x="383" y="675"/>
      <point x="333" y="675" type="curve" smooth="yes"/>
      <point x="309" y="675"/>
      <point x="288" y="682"/>
      <point x="272" y="692" type="curve" smooth="yes"/>
      <point x="257" y="702"/>
      <point x="247" y="715"/>
      <point x="245" y="725" type="curve"/>
      <point x="149" y="725" type="line"/>
      <point x="149" y="658"/>
      <point x="218" y="581"/>
      <point x="333" y="581" type="curve" smooth="yes"/>
      <point x="447" y="581"/>
      <point x="518" y="658"/>
      <point x="518" y="725" type="curve"/>
    </contour>
  </outline>
</glyph>
<glyph name="uhungarumlaut" format="1">
  <advance width="667"/>
  <unicode hex="0171"/>
  <outline>
    <contour>
      <point x="606" y="528" type="line"/>
      <point x="407" y="528" type="line"/>
      <point x="407" y="218" type="line" smooth="yes"/>
      <point x="407" y="173"/>
      <point x="374" y="135"/>
      <point x="324" y="135" type="curve" smooth="yes"/>
      <point x="280" y="135"/>
      <point x="257" y="166"/>
      <point x="257" y="210" type="curve" smooth="yes"/>
      <point x="257" y="528" type="line"/>
      <point x="58" y="528" type="line"/>
      <point x="58" y="186" type="line" smooth="yes"/>
      <point x="58" y="61"/>
      <point x="117" y="-12"/>
      <point x="242" y="-12" type="curve" smooth="yes"/>
      <point x="317" y="-12"/>
      <point x="389" y="23"/>
      <point x="430" y="80" type="curve"/>
      <point x="443" y="0" type="line"/>
      <point x="606" y="0" type="line"/>
    </contour>
    <contour>
      <point x="409" y="725" type="line"/>
      <point x="231" y="725" type="line"/>
      <point x="155" y="591" type="line"/>
      <point x="272" y="591" type="line"/>
      <point x="411" y="721" type="line"/>
    </contour>
    <contour>
      <point x="620" y="725" type="line"/>
      <point x="442" y="725" type="line"/>
      <point x="366" y="591" type="line"/>
      <point x="483" y="591" type="line"/>
      <point x="622" y="721" type="line"/>
    </contour>
  </outline>
</glyph>
<glyph name="Uogonek" format="1">
  <advance width="833"/>
  <unicode hex="0172"/>
  <outline>
    <contour>
      <point x="759" y="688" type="line"/>
      <point x="538" y="688" type="line"/>
      <point x="538" y="280" type="line" smooth="yes"/>
      <point x="538" y="206"/>
      <point x="497" y="153"/>
      <point x="416" y="153" type="curve" smooth="yes"/>
      <point x="335" y="153"/>
      <point x="295" y="206"/>
      <point x="295" y="280" type="curve" smooth="yes"/>
      <point x="295" y="688" type="line"/>
      <point x="74" y="688" type="line"/>
      <point x="74" y="277" type="line" smooth="yes"/>
      <point x="74" y="87"/>
      <point x="201" y="-12"/>
      <point x="417" y="-12" type="curve" smooth="yes"/>
      <point x="430" y="-12"/>
      <point x="443" y="-12"/>
      <point x="456" y="-11" type="curve"/>
      <point x="438" y="-34"/>
      <point x="424" y="-61"/>
      <point x="424" y="-97" type="curve" smooth="yes"/>
      <point x="424" y="-179"/>
      <point x="486" y="-211"/>
      <point x="550" y="-211" type="curve" smooth="yes"/>
      <point x="583" y="-211"/>
      <point x="615" y="-206"/>
      <point x="646" y="-196" type="curve"/>
      <point x="646" y="-120" type="line"/>
      <point x="604" y="-120" type="line" smooth="yes"/>
      <point x="559" y="-120"/>
      <point x="544" y="-95"/>
      <point x="544" y="-69" type="curve" smooth="yes"/>
      <point x="544" y="-40"/>
      <point x="556" y="-7"/>
      <point x="563" y="7" type="curve"/>
      <point x="688" y="44"/>
      <point x="759" y="135"/>
      <point x="759" y="277" type="curve" smooth="yes"/>
    </contour>
  </outline>
</glyph>
<glyph name="uogonek" format="1">
  <advance width="667"/>
  <unicode hex="0173"/>
  <outline>
    <contour>
      <point x="606" y="528" type="line"/>
      <point x="407" y="528" type="line"/>
      <point x="407" y="218" type="line" smooth="yes"/>
      <point x="407" y="173"/>
      <point x="374" y="135"/>
      <point x="324" y="135" type="curve" smooth="yes"/>
      <point x="280" y="135"/>
      <point x="257" y="166"/>
      <point x="257" y="210" type="curve" smooth="yes"/>
      <point x="257" y="528" type="line"/>
      <point x="58" y="528" type="line"/>
      <point x="58" y="186" type="line" smooth="yes"/>
      <point x="58" y="61"/>
      <point x="117" y="-12"/>
      <point x="242" y="-12" type="curve" smooth="yes"/>
      <point x="317" y="-12"/>
      <point x="389" y="23"/>
      <point x="430" y="80" type="curve"/>
      <point x="441" y="12" type="line"/>
      <point x="428" y="12" type="line"/>
      <point x="405" y="-16"/>
      <point x="378" y="-48"/>
      <point x="378" y="-97" type="curve" smooth="yes"/>
      <point x="378" y="-179"/>
      <point x="440" y="-211"/>
      <point x="504" y="-211" type="curve" smooth="yes"/>
      <point x="537" y="-211"/>
      <point x="569" y="-206"/>
      <point x="600" y="-196" type="curve"/>
      <point x="600" y="-120" type="line"/>
      <point x="558" y="-120" type="line" smooth="yes"/>
      <point x="513" y="-120"/>
      <point x="498" y="-95"/>
      <point x="498" y="-69" type="curve" smooth="yes"/>
      <point x="498" y="-43"/>
      <point x="507" y="-16"/>
      <point x="514" y="0" type="curve"/>
      <point x="606" y="0" type="line"/>
    </contour>
  </outline>
</glyph>
<glyph name="Wcircumflex" format="1">
  <advance width="1000"/>
  <unicode hex="0174"/>
  <outline>
    <contour>
      <point x="995" y="688" type="line"/>
      <point x="775" y="688" type="line"/>
      <point x="701" y="298" type="line"/>
      <point x="697" y="298" type="line"/>
      <point x="614" y="688" type="line"/>
      <point x="396" y="688" type="line"/>
      <point x="318" y="298" type="line"/>
      <point x="314" y="298" type="line"/>
      <point x="235" y="688" type="line"/>
      <point x="5" y="688" type="line"/>
      <point x="166" y="0" type="line"/>
      <point x="409" y="0" type="line"/>
      <point x="498" y="419" type="line"/>
      <point x="502" y="419" type="line"/>
      <point x="591" y="0" type="line"/>
      <point x="834" y="0" type="line"/>
    </contour>
    <contour>
      <point x="564" y="885" type="line"/>
      <point x="436" y="885" type="line"/>
      <point x="297" y="740" type="line"/>
      <point x="425" y="740" type="line"/>
      <point x="499" y="817" type="line"/>
      <point x="573" y="740" type="line"/>
      <point x="703" y="740" type="line"/>
    </contour>
  </outline>
</glyph>
<glyph name="Ycircumflex" format="1">
  <advance width="778"/>
  <unicode hex="0176"/>
  <outline>
    <contour>
      <point x="770" y="688" type="line"/>
      <point x="529" y="688" type="line"/>
      <point x="397" y="459" type="line"/>
      <point x="393" y="459" type="line"/>
      <point x="261" y="688" type="line"/>
      <point x="7" y="688" type="line"/>
      <point x="280" y="267" type="line"/>
      <point x="280" y="0" type="line"/>
      <point x="501" y="0" type="line"/>
      <point x="501" y="267" type="line"/>
    </contour>
    <contour>
      <point x="453" y="885" type="line"/>
      <point x="325" y="885" type="line"/>
      <point x="186" y="740" type="line"/>
      <point x="314" y="740" type="line"/>
      <point x="388" y="817" type="line"/>
      <point x="462" y="740" type="line"/>
      <point x="592" y="740" type="line"/>
    </contour>
  </outline>
</glyph>
<glyph name="Zacute" format="1">
  <advance width="722"/>
  <unicode hex="0179"/>
  <outline>
    <contour>
      <point x="683" y="617" type="line"/>
      <point x="683" y="688" type="line"/>
      <point x="48" y="688" type="line"/>
      <point x="48" y="523" type="line"/>
      <point x="343" y="523" type="line"/>
      <point x="24" y="71" type="line"/>
      <point x="24" y="0" type="line"/>
      <point x="691" y="0" type="line"/>
      <point x="691" y="165" type="line"/>
      <point x="364" y="165" type="line"/>
    </contour>
    <contour>
      <point x="552" y="881" type="line"/>
      <point x="550" y="885" type="line"/>
      <point x="357" y="885" type="line"/>
      <point x="265" y="752" type="line"/>
      <point x="393" y="752" type="line"/>
    </contour>
  </outline>
</glyph>
<glyph name="florin" format="1">
  <advance width="667"/>
  <unicode hex="0192"/>
  <outline>
    <contour>
      <point x="415" y="737"/>
      <point x="327" y="694"/>
      <point x="296" y="550" type="curve" smooth="yes"/>
      <point x="283" y="489" type="line"/>
      <point x="209" y="489" type="line"/>
      <point x="180" y="354" type="line"/>
      <point x="254" y="354" type="line"/>
      <point x="174" y="-22" type="line" smooth="yes"/>
      <point x="166" y="-59"/>
      <point x="151" y="-75"/>
      <point x="107" y="-75" type="curve" smooth="yes"/>
      <point x="61" y="-75" type="line"/>
      <point x="36" y="-192" type="line"/>
      <point x="61" y="-202"/>
      <point x="111" y="-210"/>
      <point x="140" y="-210" type="curve" smooth="yes"/>
      <point x="254" y="-210"/>
      <point x="342" y="-167"/>
      <point x="373" y="-23" type="curve" smooth="yes"/>
      <point x="453" y="354" type="line"/>
      <point x="555" y="354" type="line"/>
      <point x="584" y="489" type="line"/>
      <point x="482" y="489" type="line"/>
      <point x="495" y="549" type="line" smooth="yes"/>
      <point x="503" y="586"/>
      <point x="518" y="602"/>
      <point x="562" y="602" type="curve" smooth="yes"/>
      <point x="608" y="602" type="line"/>
      <point x="633" y="719" type="line"/>
      <point x="608" y="729"/>
      <point x="558" y="737"/>
      <point x="529" y="737" type="curve" smooth="yes"/>
    </contour>
  </outline>
</glyph>
<glyph name="Aringacute" format="1">
  <advance width="778"/>
  <unicode hex="01FA"/>
  <outline>
    <contour>
      <point x="518" y="688" type="line"/>
      <point x="491" y="688" type="line"/>
      <point x="496" y="700"/>
      <point x="499" y="713"/>
      <point x="499" y="728" type="curve" smooth="yes"/>
      <point x="499" y="794"/>
      <point x="449" y="827"/>
      <point x="390" y="827" type="curve" smooth="yes"/>
      <point x="330" y="827"/>
      <point x="281" y="793"/>
      <point x="281" y="728" type="curve" smooth="yes"/>
      <point x="281" y="713"/>
      <point x="283" y="700"/>
      <point x="288" y="688" type="curve"/>
      <point x="261" y="688" type="line"/>
      <point x="10" y="0" type="line"/>
      <point x="236" y="0" type="line"/>
      <point x="265" y="97" type="line"/>
      <point x="506" y="97" type="line"/>
      <point x="535" y="0" type="line"/>
      <point x="769" y="0" type="line"/>
    </contour>
    <contour>
      <point x="388" y="496" type="line"/>
      <point x="460" y="251" type="line"/>
      <point x="311" y="251" type="line"/>
      <point x="384" y="496" type="line"/>
    </contour>
    <contour>
      <point x="413" y="768"/>
      <point x="430" y="752"/>
      <point x="430" y="729" type="curve" smooth="yes"/>
      <point x="430" y="705"/>
      <point x="414" y="688"/>
      <point x="390" y="688" type="curve" smooth="yes"/>
      <point x="367" y="688"/>
      <point x="350" y="704"/>
      <point x="350" y="727" type="curve" smooth="yes"/>
      <point x="350" y="751"/>
      <point x="366" y="768"/>
      <point x="390" y="768" type="curve" smooth="yes"/>
    </contour>
    <contour>
      <point x="580" y="957" type="line"/>
      <point x="398" y="957" type="line"/>
      <point x="321" y="852" type="line"/>
      <point x="448" y="852" type="line"/>
      <point x="582" y="953" type="line"/>
    </contour>
  </outline>
</glyph>
<glyph name="oslashacute" format="1">
  <advance width="667"/>
  <unicode hex="01FF"/>
  <outline>
    <contour>
      <point x="622" y="559" type="line"/>
      <point x="530" y="559" type="line"/>
      <point x="490" y="509" type="line"/>
      <point x="446" y="530"/>
      <point x="393" y="540"/>
      <point x="333" y="540" type="curve" smooth="yes"/>
      <point x="153" y="540"/>
      <point x="36" y="449"/>
      <point x="36" y="264" type="curve" smooth="yes"/>
      <point x="36" y="168"/>
      <point x="68" y="97"/>
      <point x="123" y="51" type="curve"/>
      <point x="46" y="-45" type="line"/>
      <point x="138" y="-45" type="line"/>
      <point x="185" y="14" type="line"/>
      <point x="227" y="-3"/>
      <point x="277" y="-12"/>
      <point x="333" y="-12" type="curve" smooth="yes"/>
      <point x="513" y="-12"/>
      <point x="631" y="79"/>
      <point x="631" y="264" type="curve" smooth="yes"/>
      <point x="631" y="355"/>
      <point x="602" y="424"/>
      <point x="551" y="470" type="curve"/>
    </contour>
    <contour>
      <point x="430" y="320" type="line"/>
      <point x="431" y="311"/>
      <point x="432" y="302"/>
      <point x="432" y="292" type="curve" smooth="yes"/>
      <point x="432" y="235" type="line" smooth="yes"/>
      <point x="432" y="165"/>
      <point x="403" y="123"/>
      <point x="333" y="123" type="curve" smooth="yes"/>
      <point x="312" y="123"/>
      <point x="295" y="127"/>
      <point x="281" y="134" type="curve"/>
    </contour>
    <contour>
      <point x="358" y="405"/>
      <point x="378" y="399"/>
      <point x="393" y="389" type="curve"/>
      <point x="238" y="195" type="line"/>
      <point x="236" y="207"/>
      <point x="235" y="220"/>
      <point x="235" y="235" type="curve" smooth="yes"/>
      <point x="235" y="292" type="line" smooth="yes"/>
      <point x="235" y="362"/>
      <point x="263" y="405"/>
      <point x="333" y="405" type="curve" smooth="yes"/>
    </contour>
    <contour>
      <point x="525" y="721" type="line"/>
      <point x="523" y="725" type="line"/>
      <point x="330" y="725" type="line"/>
      <point x="238" y="592" type="line"/>
      <point x="365" y="592" type="line"/>
    </contour>
  </outline>
</glyph>
<glyph name="circumflex" format="1">
  <advance width="333"/>
  <unicode hex="02C6"/>
  <outline>
    <contour>
      <point x="232" y="725" type="line"/>
      <point x="104" y="725" type="line"/>
      <point x="-35" y="580" type="line"/>
      <point x="93" y="580" type="line"/>
      <point x="167" y="657" type="line"/>
      <point x="241" y="580" type="line"/>
      <point x="371" y="580" type="line"/>
    </contour>
    <contour>
      <point x="168" y="528" type="move" name="_top"/>
    </contour>
  </outline>
</glyph>
<glyph name="uni02C9" format="1">
  <advance width="500"/>
  <unicode hex="02C9"/>
  <outline>
    <contour>
      <point x="500" y="842" type="line"/>
      <point x="0" y="842" type="line"/>
      <point x="0" y="780" type="line"/>
      <point x="500" y="780" type="line"/>
    </contour>
  </outline>
</glyph>
<glyph name="ring" format="1">
  <advance width="333"/>
  <unicode hex="02DA"/>
  <outline>
    <contour>
      <point x="107" y="794"/>
      <point x="58" y="745"/>
      <point x="58" y="685" type="curve" smooth="yes"/>
      <point x="58" y="625"/>
      <point x="108" y="577"/>
      <point x="167" y="577" type="curve" smooth="yes"/>
      <point x="227" y="577"/>
      <point x="276" y="626"/>
      <point x="276" y="685" type="curve" smooth="yes"/>
      <point x="276" y="746"/>
      <point x="226" y="794"/>
      <point x="167" y="794" type="curve" smooth="yes"/>
    </contour>
    <contour>
      <point x="190" y="725"/>
      <point x="207" y="709"/>
      <point x="207" y="686" type="curve" smooth="yes"/>
      <point x="207" y="662"/>
      <point x="191" y="645"/>
      <point x="167" y="645" type="curve" smooth="yes"/>
      <point x="144" y="645"/>
      <point x="127" y="661"/>
      <point x="127" y="684" type="curve" smooth="yes"/>
      <point x="127" y="708"/>
      <point x="143" y="725"/>
      <point x="167" y="725" type="curve" smooth="yes"/>
    </contour>
    <contour>
      <point x="167" y="528" type="move" name="_top"/>
    </contour>
  </outline>
</glyph>
<glyph name="ogonek" format="1">
  <advance width="333"/>
  <unicode hex="02DB"/>
  <outline>
    <contour>
      <point x="212" y="12" type="line"/>
      <point x="122" y="12" type="line"/>
      <point x="99" y="-16"/>
      <point x="72" y="-48"/>
      <point x="72" y="-97" type="curve" smooth="yes"/>
      <point x="72" y="-179"/>
      <point x="134" y="-211"/>
      <point x="198" y="-211" type="curve" smooth="yes"/>
      <point x="231" y="-211"/>
      <point x="263" y="-206"/>
      <point x="294" y="-196" type="curve"/>
      <point x="294" y="-120" type="line"/>
      <point x="252" y="-120" type="line" smooth="yes"/>
      <point x="207" y="-120"/>
      <point x="192" y="-95"/>
      <point x="192" y="-69" type="curve" smooth="yes"/>
      <point x="192" y="-39"/>
      <point x="204" y="-6"/>
      <point x="212" y="8" type="curve"/>
    </contour>
    <contour>
      <point x="294" y="10" type="move" name="_ogonek"/>
    </contour>
  </outline>
</glyph>
<glyph name="tilde" format="1">
  <advance width="333"/>
  <unicode hex="02DC"/>
  <outline>
    <contour>
      <point x="307" y="725" type="line"/>
      <point x="300" y="702"/>
      <point x="282" y="685"/>
      <point x="257" y="685" type="curve" smooth="yes"/>
      <point x="203" y="685"/>
      <point x="148" y="725"/>
      <point x="84" y="725" type="curve" smooth="yes"/>
      <point x="0" y="725"/>
      <point x="-56" y="654"/>
      <point x="-56" y="582" type="curve"/>
      <point x="25" y="582" type="line"/>
      <point x="32" y="605"/>
      <point x="50" y="622"/>
      <point x="75" y="622" type="curve" smooth="yes"/>
      <point x="129" y="622"/>
      <point x="184" y="582"/>
      <point x="248" y="582" type="curve" smooth="yes"/>
      <point x="332" y="582"/>
      <point x="388" y="653"/>
      <point x="388" y="725" type="curve"/>
    </contour>
    <contour>
      <point x="166" y="528" type="move" name="_top"/>
    </contour>
  </outline>
</glyph>
<glyph name="hungarumlaut" format="1">
  <advance width="333"/>
  <unicode hex="02DD"/>
  <outline>
    <contour>
      <point x="241" y="725" type="line"/>
      <point x="63" y="725" type="line"/>
      <point x="-13" y="591" type="line"/>
      <point x="104" y="591" type="line"/>
      <point x="243" y="721" type="line"/>
    </contour>
    <contour>
      <point x="452" y="725" type="line"/>
      <point x="274" y="725" type="line"/>
      <point x="198" y="591" type="line"/>
      <point x="315" y="591" type="line"/>
      <point x="454" y="721" type="line"/>
    </contour>
    <contour>
      <point x="221" y="528" type="move" name="_top"/>
    </contour>
  </outline>
</glyph>
<glyph name="uni0326" format="1">
  <advance width="333"/>
  <unicode hex="0326"/>
  <outline>
    <contour>
      <point x="231" y="-59" type="line"/>
      <point x="101" y="-59" type="line"/>
      <point x="101" y="-175" type="line"/>
      <point x="151" y="-175" type="line"/>
      <point x="110" y="-267" type="line"/>
      <point x="177" y="-267" type="line"/>
      <point x="231" y="-168" type="line"/>
    </contour>
    <contour>
      <point x="166" y="0" type="move" name="_bottom"/>
    </contour>
  </outline>
</glyph>
<glyph name="Omega" format="1">
  <advance width="854"/>
  <unicode hex="03A9"/>
  <outline>
    <contour>
      <point x="197" y="700"/>
      <point x="57" y="579"/>
      <point x="57" y="386" type="curve" smooth="yes"/>
      <point x="57" y="285"/>
      <point x="101" y="204"/>
      <point x="162" y="146" type="curve"/>
      <point x="42" y="166" type="line"/>
      <point x="31" y="166" type="line"/>
      <point x="31" y="0" type="line"/>
      <point x="367" y="0" type="line"/>
      <point x="367" y="147" type="line"/>
      <point x="310" y="170"/>
      <point x="283" y="224"/>
      <point x="283" y="296" type="curve" smooth="yes"/>
      <point x="283" y="376" type="line" smooth="yes"/>
      <point x="283" y="470"/>
      <point x="331" y="535"/>
      <point x="427" y="535" type="curve" smooth="yes"/>
      <point x="524" y="535"/>
      <point x="574" y="470"/>
      <point x="574" y="376" type="curve" smooth="yes"/>
      <point x="574" y="296" type="line" smooth="yes"/>
      <point x="574" y="224"/>
      <point x="545" y="169"/>
      <point x="488" y="147" type="curve"/>
      <point x="488" y="0" type="line"/>
      <point x="824" y="0" type="line"/>
      <point x="824" y="166" type="line"/>
      <point x="812" y="166" type="line"/>
      <point x="692" y="146" type="line"/>
      <point x="754" y="204"/>
      <point x="799" y="285"/>
      <point x="799" y="386" type="curve" smooth="yes"/>
      <point x="799" y="579"/>
      <point x="658" y="700"/>
      <point x="427" y="700" type="curve" smooth="yes"/>
    </contour>
    <contour>
      <point x="20" y="688" type="move" name="topleft"/>
    </contour>
  </outline>
</glyph>
<glyph name="Wgrave" format="1">
  <advance width="1000"/>
  <unicode hex="1E80"/>
  <outline>
    <contour>
      <point x="834" y="0" type="line"/>
      <point x="995" y="688" type="line"/>
      <point x="775" y="688" type="line"/>
      <point x="701" y="298" type="line"/>
      <point x="697" y="298" type="line"/>
      <point x="614" y="688" type="line"/>
      <point x="396" y="688" type="line"/>
      <point x="318" y="298" type="line"/>
      <point x="314" y="298" type="line"/>
      <point x="235" y="688" type="line"/>
      <point x="5" y="688" type="line"/>
      <point x="166" y="0" type="line"/>
      <point x="409" y="0" type="line"/>
      <point x="498" y="419" type="line"/>
      <point x="502" y="419" type="line"/>
      <point x="591" y="0" type="line"/>
    </contour>
    <contour>
      <point x="596" y="752" type="line"/>
      <point x="504" y="885" type="line"/>
      <point x="311" y="885" type="line"/>
      <point x="309" y="881" type="line"/>
      <point x="469" y="752" type="line"/>
    </contour>
  </outline>
</glyph>
<glyph name="wgrave" format="1">
  <advance width="944"/>
  <unicode hex="1E81"/>
  <outline>
    <contour>
      <point x="750" y="0" type="line"/>
      <point x="944" y="528" type="line"/>
      <point x="750" y="528" type="line"/>
      <point x="669" y="216" type="line"/>
      <point x="662" y="216" type="line"/>
      <point x="582" y="528" type="line"/>
      <point x="384" y="528" type="line"/>
      <point x="301" y="216" type="line"/>
      <point x="294" y="216" type="line"/>
      <point x="214" y="528" type="line"/>
      <point x="0" y="528" type="line"/>
      <point x="193" y="0" type="line"/>
      <point x="387" y="0" type="line"/>
      <point x="470" y="294" type="line"/>
      <point x="474" y="294" type="line"/>
      <point x="556" y="0" type="line"/>
    </contour>
    <contour>
      <point x="568" y="592" type="line"/>
      <point x="476" y="725" type="line"/>
      <point x="283" y="725" type="line"/>
      <point x="281" y="721" type="line"/>
      <point x="441" y="592" type="line"/>
    </contour>
  </outline>
</glyph>
<glyph name="Ygrave" format="1">
  <advance width="778"/>
  <unicode hex="1EF2"/>
  <outline>
    <contour>
      <point x="501" y="267" type="line"/>
      <point x="770" y="688" type="line"/>
      <point x="529" y="688" type="line"/>
      <point x="397" y="459" type="line"/>
      <point x="393" y="459" type="line"/>
      <point x="261" y="688" type="line"/>
      <point x="7" y="688" type="line"/>
      <point x="280" y="267" type="line"/>
      <point x="280" y="0" type="line"/>
      <point x="501" y="0" type="line"/>
    </contour>
    <contour>
      <point x="485" y="752" type="line"/>
      <point x="393" y="885" type="line"/>
      <point x="200" y="885" type="line"/>
      <point x="198" y="881" type="line"/>
      <point x="358" y="752" type="line"/>
    </contour>
  </outline>
</glyph>
<glyph name="quoteright" format="1">
  <advance width="278"/>
  <unicode hex="2019"/>
  <outline>
    <contour>
      <point x="234" y="688" type="line"/>
      <point x="48" y="688" type="line"/>
      <point x="48" y="513" type="line"/>
      <point x="119" y="513" type="line"/>
      <point x="48" y="331" type="line"/>
      <point x="143" y="331" type="line"/>
      <point x="234" y="523" type="line"/>
    </contour>
  </outline>
</glyph>
<glyph name="quotesinglbase" format="1">
  <advance width="278"/>
  <unicode hex="201A"/>
  <outline>
    <contour>
      <point x="230" y="175" type="line"/>
      <point x="44" y="175" type="line"/>
      <point x="44" y="0" type="line"/>
      <point x="115" y="0" type="line"/>
      <point x="44" y="-182" type="line"/>
      <point x="139" y="-182" type="line"/>
      <point x="230" y="10" type="line"/>
    </contour>
  </outline>
</glyph>
<glyph name="quotedblleft" format="1">
  <advance width="500"/>
  <unicode hex="201C"/>
  <outline>
    <contour>
      <point x="227" y="688" type="line"/>
      <point x="132" y="688" type="line"/>
      <point x="41" y="496" type="line"/>
      <point x="41" y="331" type="line"/>
      <point x="227" y="331" type="line"/>
      <point x="227" y="506" type="line"/>
      <point x="156" y="506" type="line"/>
    </contour>
    <contour>
      <point x="456" y="688" type="line"/>
      <point x="361" y="688" type="line"/>
      <point x="270" y="496" type="line"/>
      <point x="270" y="331" type="line"/>
      <point x="456" y="331" type="line"/>
      <point x="456" y="506" type="line"/>
      <point x="385" y="506" type="line"/>
    </contour>
  </outline>
</glyph>
<glyph name="bullet" format="1">
  <advance width="500"/>
  <unicode hex="2022"/>
  <outline>
    <contour>
      <point x="161" y="507"/>
      <point x="88" y="434"/>
      <point x="88" y="345" type="curve" smooth="yes"/>
      <point x="88" y="256"/>
      <point x="161" y="183"/>
      <point x="250" y="183" type="curve" smooth="yes"/>
      <point x="339" y="183"/>
      <point x="412" y="256"/>
      <point x="412" y="345" type="curve" smooth="yes"/>
      <point x="412" y="434"/>
      <point x="339" y="507"/>
      <point x="250" y="507" type="curve" smooth="yes"/>
    </contour>
  </outline>
</glyph>
<glyph name="perthousand" format="1">
  <advance width="1000"/>
  <unicode hex="2030"/>
  <outline>
    <contour>
      <point x="182" y="632"/>
      <point x="194" y="607"/>
      <point x="194" y="546" type="curve" smooth="yes"/>
      <point x="194" y="496" type="line" smooth="yes"/>
      <point x="194" y="435"/>
      <point x="182" y="410"/>
      <point x="147" y="410" type="curve" smooth="yes"/>
      <point x="112" y="410"/>
      <point x="99" y="435"/>
      <point x="99" y="496" type="curve" smooth="yes"/>
      <point x="99" y="546" type="line" smooth="yes"/>
      <point x="99" y="607"/>
      <point x="112" y="632"/>
      <point x="147" y="632" type="curve" smooth="yes"/>
    </contour>
    <contour>
      <point x="33" y="700"/>
      <point x="0" y="628"/>
      <point x="0" y="521" type="curve" smooth="yes"/>
      <point x="0" y="414"/>
      <point x="33" y="342"/>
      <point x="147" y="342" type="curve" smooth="yes"/>
      <point x="262" y="342"/>
      <point x="294" y="414"/>
      <point x="294" y="521" type="curve" smooth="yes"/>
      <point x="294" y="628"/>
      <point x="262" y="700"/>
      <point x="147" y="700" type="curve" smooth="yes"/>
    </contour>
    <contour>
      <point x="557" y="278"/>
      <point x="569" y="253"/>
      <point x="569" y="192" type="curve" smooth="yes"/>
      <point x="569" y="142" type="line" smooth="yes"/>
      <point x="569" y="81"/>
      <point x="557" y="56"/>
      <point x="522" y="56" type="curve" smooth="yes"/>
      <point x="487" y="56"/>
      <point x="474" y="81"/>
      <point x="474" y="142" type="curve" smooth="yes"/>
      <point x="474" y="192" type="line" smooth="yes"/>
      <point x="474" y="253"/>
      <point x="487" y="278"/>
      <point x="522" y="278" type="curve" smooth="yes"/>
    </contour>
    <contour>
      <point x="408" y="346"/>
      <point x="375" y="274"/>
      <point x="375" y="167" type="curve" smooth="yes"/>
      <point x="375" y="60"/>
      <point x="408" y="-12"/>
      <point x="522" y="-12" type="curve" smooth="yes"/>
      <point x="637" y="-12"/>
      <point x="669" y="60"/>
      <point x="669" y="167" type="curve" smooth="yes"/>
      <point x="669" y="274"/>
      <point x="637" y="346"/>
      <point x="522" y="346" type="curve" smooth="yes"/>
    </contour>
    <contour>
      <point x="888" y="278"/>
      <point x="900" y="253"/>
      <point x="900" y="192" type="curve" smooth="yes"/>
      <point x="900" y="142" type="line" smooth="yes"/>
      <point x="900" y="81"/>
      <point x="888" y="56"/>
      <point x="853" y="56" type="curve" smooth="yes"/>
      <point x="818" y="56"/>
      <point x="805" y="81"/>
      <point x="805" y="142" type="curve" smooth="yes"/>
      <point x="805" y="192" type="line" smooth="yes"/>
      <point x="805" y="253"/>
      <point x="818" y="278"/>
      <point x="853" y="278" type="curve" smooth="yes"/>
    </contour>
    <contour>
      <point x="739" y="346"/>
      <point x="706" y="274"/>
      <point x="706" y="167" type="curve" smooth="yes"/>
      <point x="706" y="60"/>
      <point x="739" y="-12"/>
      <point x="853" y="-12" type="curve" smooth="yes"/>
      <point x="968" y="-12"/>
      <point x="1000" y="60"/>
      <point x="1000" y="167" type="curve" smooth="yes"/>
      <point x="1000" y="274"/>
      <point x="968" y="346"/>
      <point x="853" y="346" type="curve" smooth="yes"/>
    </contour>
    <contour>
      <point x="504" y="688" type="line"/>
      <point x="417" y="688" type="line"/>
      <point x="167" y="0" type="line"/>
      <point x="253" y="0" type="line"/>
    </contour>
  </outline>
</glyph>
<glyph name="second" format="1">
  <advance width="524"/>
  <unicode hex="2033"/>
  <outline>
    <contour>
      <point x="464" y="725" type="line"/>
      <point x="286" y="725" type="line"/>
      <point x="270" y="511" type="line"/>
      <point x="387" y="511" type="line"/>
      <point x="466" y="721" type="line"/>
    </contour>
    <contour>
      <point x="253" y="725" type="line"/>
      <point x="75" y="725" type="line"/>
      <point x="59" y="511" type="line"/>
      <point x="176" y="511" type="line"/>
      <point x="255" y="721" type="line"/>
    </contour>
  </outline>
</glyph>
<glyph name="guilsinglleft" format="1">
  <advance width="333"/>
  <unicode hex="2039"/>
  <outline>
    <contour>
      <point x="321" y="528" type="line"/>
      <point x="178" y="528" type="line"/>
      <point x="11" y="324" type="line"/>
      <point x="178" y="119" type="line"/>
      <point x="321" y="119" type="line"/>
      <point x="183" y="324" type="line"/>
    </contour>
  </outline>
</glyph>
<glyph name="guilsinglright" format="1">
  <advance width="333"/>
  <unicode hex="203A"/>
  <outline>
    <contour>
      <point x="150" y="324" type="line"/>
      <point x="12" y="119" type="line"/>
      <point x="155" y="119" type="line"/>
      <point x="322" y="324" type="line"/>
      <point x="155" y="528" type="line"/>
      <point x="12" y="528" type="line"/>
    </contour>
  </outline>
</glyph>
<glyph name="exclamdbl" format="1">
  <advance width="604"/>
  <unicode hex="203C"/>
  <outline>
    <contour>
      <point x="561" y="688" type="line"/>
      <point x="322" y="688" type="line"/>
      <point x="377" y="246" type="line"/>
      <point x="504" y="246" type="line"/>
    </contour>
    <contour>
      <point x="265" y="185" type="line"/>
      <point x="67" y="185" type="line"/>
      <point x="67" y="0" type="line"/>
      <point x="265" y="0" type="line"/>
    </contour>
    <contour>
      <point x="540" y="185" type="line"/>
      <point x="342" y="185" type="line"/>
      <point x="342" y="0" type="line"/>
      <point x="540" y="0" type="line"/>
    </contour>
    <contour>
      <point x="286" y="688" type="line"/>
      <point x="47" y="688" type="line"/>
      <point x="102" y="246" type="line"/>
      <point x="229" y="246" type="line"/>
    </contour>
  </outline>
</glyph>
<glyph name="uni203E" format="1">
  <advance width="500"/>
  <unicode hex="203E"/>
  <outline>
    <contour>
      <point x="501" y="842" type="line"/>
      <point x="1" y="842" type="line"/>
      <point x="1" y="780" type="line"/>
      <point x="501" y="780" type="line"/>
    </contour>
  </outline>
</glyph>
<glyph name="fraction" format="1">
  <advance width="167"/>
  <unicode hex="2044"/>
  <outline>
    <contour>
      <point x="328" y="700" type="line"/>
      <point x="232" y="700" type="line"/>
      <point x="-178" y="-12" type="line"/>
      <point x="-83" y="-12" type="line"/>
    </contour>
  </outline>
</glyph>
<glyph name="franc" format="1">
  <advance width="833"/>
  <unicode hex="20A3"/>
  <outline>
    <contour>
      <point x="828" y="444" type="line"/>
      <point x="828" y="444"/>
      <point x="806" y="456"/>
      <point x="769" y="456" type="curve" smooth="yes"/>
      <point x="706" y="456"/>
      <point x="649" y="426"/>
      <point x="624" y="363" type="curve"/>
      <point x="611" y="443" type="line"/>
      <point x="448" y="443" type="line"/>
      <point x="448" y="405" type="line"/>
      <point x="295" y="405" type="line"/>
      <point x="295" y="523" type="line"/>
      <point x="612" y="523" type="line"/>
      <point x="612" y="688" type="line"/>
      <point x="74" y="688" type="line"/>
      <point x="74" y="0" type="line"/>
      <point x="295" y="0" type="line"/>
      <point x="295" y="247" type="line"/>
      <point x="448" y="247" type="line"/>
      <point x="448" y="0" type="line"/>
      <point x="647" y="0" type="line"/>
      <point x="647" y="150" type="line" smooth="yes"/>
      <point x="647" y="230"/>
      <point x="678" y="277"/>
      <point x="764" y="277" type="curve" smooth="yes"/>
      <point x="828" y="277" type="line"/>
    </contour>
  </outline>
</glyph>
<glyph name="peseta" format="1">
  <advance width="1722"/>
  <unicode hex="20A7"/>
  <outline>
    <contour>
      <point x="372" y="525" type="line" smooth="yes"/>
      <point x="419" y="525"/>
      <point x="441" y="499"/>
      <point x="441" y="458" type="curve" smooth="yes"/>
      <point x="441" y="450" type="line" smooth="yes"/>
      <point x="441" y="409"/>
      <point x="418" y="383"/>
      <point x="372" y="383" type="curve" smooth="yes"/>
      <point x="280" y="383" type="line"/>
      <point x="280" y="525" type="line"/>
    </contour>
    <contour>
      <point x="983" y="688" type="line"/>
      <point x="835" y="688" type="line"/>
      <point x="792" y="528" type="line"/>
      <point x="710" y="528" type="line"/>
      <point x="710" y="393" type="line"/>
      <point x="784" y="393" type="line"/>
      <point x="784" y="129" type="line" smooth="yes"/>
      <point x="784" y="21"/>
      <point x="859" y="-12"/>
      <point x="967" y="-12" type="curve" smooth="yes"/>
      <point x="1002" y="-12"/>
      <point x="1062" y="-5"/>
      <point x="1095" y="6" type="curve"/>
      <point x="1095" y="123" type="line"/>
      <point x="1039" y="123" type="line" smooth="yes"/>
      <point x="994" y="123"/>
      <point x="983" y="147"/>
      <point x="983" y="192" type="curve" smooth="yes"/>
      <point x="983" y="393" type="line"/>
      <point x="1095" y="393" type="line"/>
      <point x="1095" y="528" type="line"/>
      <point x="983" y="528" type="line"/>
    </contour>
    <contour>
      <point x="60" y="688" type="line"/>
      <point x="60" y="0" type="line"/>
      <point x="280" y="0" type="line"/>
      <point x="280" y="222" type="line"/>
      <point x="445" y="222" type="line" smooth="yes"/>
      <point x="575" y="222"/>
      <point x="666" y="319"/>
      <point x="666" y="449" type="curve" smooth="yes"/>
      <point x="666" y="462" type="line" smooth="yes"/>
      <point x="666" y="592"/>
      <point x="575" y="688"/>
      <point x="445" y="688" type="curve" smooth="yes"/>
    </contour>
    <contour>
      <point x="1299" y="540"/>
      <point x="1173" y="500"/>
      <point x="1173" y="361" type="curve" smooth="yes"/>
      <point x="1173" y="153"/>
      <point x="1514" y="225"/>
      <point x="1514" y="146" type="curve" smooth="yes"/>
      <point x="1514" y="109"/>
      <point x="1459" y="107"/>
      <point x="1431" y="107" type="curve" smooth="yes"/>
      <point x="1402" y="107"/>
      <point x="1345" y="117"/>
      <point x="1344" y="168" type="curve"/>
      <point x="1344" y="172" type="line"/>
      <point x="1159" y="172" type="line"/>
      <point x="1159" y="40"/>
      <point x="1299" y="-12"/>
      <point x="1431" y="-12" type="curve" smooth="yes"/>
      <point x="1576" y="-12"/>
      <point x="1704" y="30"/>
      <point x="1704" y="175" type="curve" smooth="yes"/>
      <point x="1704" y="390"/>
      <point x="1363" y="311"/>
      <point x="1363" y="387" type="curve" smooth="yes"/>
      <point x="1363" y="421"/>
      <point x="1418" y="421"/>
      <point x="1435" y="421" type="curve" smooth="yes"/>
      <point x="1449" y="421"/>
      <point x="1466" y="419"/>
      <point x="1480" y="411" type="curve"/>
      <point x="1495" y="404"/>
      <point x="1506" y="391"/>
      <point x="1506" y="370" type="curve"/>
      <point x="1691" y="370" type="line"/>
      <point x="1691" y="495"/>
      <point x="1563" y="540"/>
      <point x="1438" y="540" type="curve" smooth="yes"/>
    </contour>
  </outline>
</glyph>
<glyph name="Euro" format="1">
  <advance width="667"/>
  <unicode hex="20AC"/>
  <outline>
    <contour>
      <point x="339" y="700"/>
      <point x="177" y="645"/>
      <point x="126" y="461" type="curve"/>
      <point x="23" y="461" type="line"/>
      <point x="23" y="368" type="line"/>
      <point x="113" y="368" type="line"/>
      <point x="113" y="320" type="line"/>
      <point x="23" y="320" type="line"/>
      <point x="23" y="227" type="line"/>
      <point x="126" y="227" type="line"/>
      <point x="177" y="42"/>
      <point x="345" y="-12"/>
      <point x="471" y="-12" type="curve" smooth="yes"/>
      <point x="532" y="-12"/>
      <point x="586" y="0"/>
      <point x="628" y="13" type="curve"/>
      <point x="628" y="154" type="line"/>
      <point x="628" y="154"/>
      <point x="577" y="127"/>
      <point x="505" y="127" type="curve" smooth="yes"/>
      <point x="419" y="127"/>
      <point x="362" y="165"/>
      <point x="332" y="227" type="curve"/>
      <point x="540" y="227" type="line"/>
      <point x="540" y="320" type="line"/>
      <point x="310" y="320" type="line"/>
      <point x="309" y="328"/>
      <point x="309" y="337"/>
      <point x="309" y="346" type="curve" smooth="yes"/>
      <point x="309" y="368" type="line"/>
      <point x="540" y="368" type="line"/>
      <point x="540" y="461" type="line"/>
      <point x="331" y="461" type="line"/>
      <point x="360" y="523"/>
      <point x="418" y="561"/>
      <point x="505" y="561" type="curve" smooth="yes"/>
      <point x="577" y="561"/>
      <point x="628" y="536"/>
      <point x="628" y="536" type="curve"/>
      <point x="628" y="681" type="line"/>
      <point x="593" y="691"/>
      <point x="539" y="700"/>
      <point x="474" y="700" type="curve" smooth="yes"/>
    </contour>
  </outline>
</glyph>
<glyph name="oneeighth" format="1">
  <advance width="1000"/>
  <unicode hex="215B"/>
  <outline>
    <contour>
      <point x="811" y="167"/>
      <point x="841" y="150"/>
      <point x="841" y="118" type="curve" smooth="yes"/>
      <point x="841" y="85"/>
      <point x="814" y="69"/>
      <point x="779" y="69" type="curve" smooth="yes"/>
      <point x="743" y="69"/>
      <point x="718" y="85"/>
      <point x="718" y="118" type="curve" smooth="yes"/>
      <point x="718" y="150"/>
      <point x="746" y="167"/>
      <point x="779" y="167" type="curve" smooth="yes"/>
    </contour>
    <contour>
      <point x="681" y="414"/>
      <point x="604" y="371"/>
      <point x="604" y="293" type="curve" smooth="yes"/>
      <point x="604" y="246"/>
      <point x="628" y="227"/>
      <point x="659" y="207" type="curve"/>
      <point x="659" y="202" type="line"/>
      <point x="616" y="180"/>
      <point x="588" y="157"/>
      <point x="588" y="108" type="curve" smooth="yes"/>
      <point x="588" y="30"/>
      <point x="662" y="-12"/>
      <point x="779" y="-12" type="curve" smooth="yes"/>
      <point x="895" y="-12"/>
      <point x="971" y="30"/>
      <point x="971" y="108" type="curve" smooth="yes"/>
      <point x="971" y="157"/>
      <point x="943" y="180"/>
      <point x="899" y="202" type="curve"/>
      <point x="899" y="207" type="line"/>
      <point x="931" y="227"/>
      <point x="954" y="246"/>
      <point x="954" y="293" type="curve" smooth="yes"/>
      <point x="954" y="371"/>
      <point x="876" y="414"/>
      <point x="779" y="414" type="curve" smooth="yes"/>
    </contour>
    <contour>
      <point x="814" y="333"/>
      <point x="841" y="320"/>
      <point x="841" y="288" type="curve" smooth="yes"/>
      <point x="841" y="255"/>
      <point x="811" y="243"/>
      <point x="779" y="243" type="curve" smooth="yes"/>
      <point x="746" y="243"/>
      <point x="718" y="255"/>
      <point x="718" y="288" type="curve" smooth="yes"/>
      <point x="718" y="320"/>
      <point x="743" y="333"/>
      <point x="779" y="333" type="curve" smooth="yes"/>
    </contour>
    <contour>
      <point x="767" y="700" type="line"/>
      <point x="671" y="700" type="line"/>
      <point x="261" y="-12" type="line"/>
      <point x="356" y="-12" type="line"/>
    </contour>
    <contour>
      <point x="276" y="693" type="line"/>
      <point x="232" y="693" type="line"/>
      <point x="181" y="662"/>
      <point x="99" y="632"/>
      <point x="38" y="628" type="curve"/>
      <point x="38" y="559" type="line"/>
      <point x="145" y="559" type="line"/>
      <point x="145" y="372" type="line"/>
      <point x="38" y="372" type="line"/>
      <point x="38" y="280" type="line"/>
      <point x="379" y="280" type="line"/>
      <point x="379" y="372" type="line"/>
      <point x="276" y="372" type="line"/>
    </contour>
  </outline>
</glyph>
<glyph name="fiveeighths" format="1">
  <advance width="1000"/>
  <unicode hex="215D"/>
  <outline>
    <contour>
      <point x="818" y="167"/>
      <point x="848" y="150"/>
      <point x="848" y="118" type="curve" smooth="yes"/>
      <point x="848" y="85"/>
      <point x="821" y="69"/>
      <point x="786" y="69" type="curve" smooth="yes"/>
      <point x="750" y="69"/>
      <point x="725" y="85"/>
      <point x="725" y="118" type="curve" smooth="yes"/>
      <point x="725" y="150"/>
      <point x="753" y="167"/>
      <point x="786" y="167" type="curve" smooth="yes"/>
    </contour>
    <contour>
      <point x="688" y="414"/>
      <point x="611" y="371"/>
      <point x="611" y="293" type="curve" smooth="yes"/>
      <point x="611" y="246"/>
      <point x="635" y="227"/>
      <point x="666" y="207" type="curve"/>
      <point x="666" y="202" type="line"/>
      <point x="623" y="180"/>
      <point x="595" y="157"/>
      <point x="595" y="108" type="curve" smooth="yes"/>
      <point x="595" y="30"/>
      <point x="669" y="-12"/>
      <point x="786" y="-12" type="curve" smooth="yes"/>
      <point x="902" y="-12"/>
      <point x="978" y="30"/>
      <point x="978" y="108" type="curve" smooth="yes"/>
      <point x="978" y="157"/>
      <point x="950" y="180"/>
      <point x="906" y="202" type="curve"/>
      <point x="906" y="207" type="line"/>
      <point x="938" y="227"/>
      <point x="961" y="246"/>
      <point x="961" y="293" type="curve" smooth="yes"/>
      <point x="961" y="371"/>
      <point x="883" y="414"/>
      <point x="786" y="414" type="curve" smooth="yes"/>
    </contour>
    <contour>
      <point x="821" y="333"/>
      <point x="848" y="320"/>
      <point x="848" y="288" type="curve" smooth="yes"/>
      <point x="848" y="255"/>
      <point x="818" y="243"/>
      <point x="786" y="243" type="curve" smooth="yes"/>
      <point x="753" y="243"/>
      <point x="725" y="255"/>
      <point x="725" y="288" type="curve" smooth="yes"/>
      <point x="725" y="320"/>
      <point x="750" y="333"/>
      <point x="786" y="333" type="curve" smooth="yes"/>
    </contour>
    <contour>
      <point x="768" y="700" type="line"/>
      <point x="672" y="700" type="line"/>
      <point x="262" y="-12" type="line"/>
      <point x="357" y="-12" type="line"/>
    </contour>
    <contour>
      <point x="389" y="688" type="line"/>
      <point x="76" y="688" type="line"/>
      <point x="57" y="457" type="line"/>
      <point x="161" y="444" type="line"/>
      <point x="168" y="452"/>
      <point x="180" y="474"/>
      <point x="224" y="474" type="curve" smooth="yes"/>
      <point x="269" y="474"/>
      <point x="293" y="447"/>
      <point x="293" y="412" type="curve" smooth="yes"/>
      <point x="293" y="377"/>
      <point x="269" y="351"/>
      <point x="223" y="351" type="curve" smooth="yes"/>
      <point x="177" y="351"/>
      <point x="153" y="377"/>
      <point x="153" y="409" type="curve"/>
      <point x="38" y="409" type="line"/>
      <point x="38" y="325"/>
      <point x="106" y="268"/>
      <point x="237" y="268" type="curve" smooth="yes"/>
      <point x="351" y="268"/>
      <point x="422" y="332"/>
      <point x="422" y="410" type="curve" smooth="yes"/>
      <point x="422" y="498"/>
      <point x="361" y="550"/>
      <point x="265" y="550" type="curve" smooth="yes"/>
      <point x="204" y="550"/>
      <point x="169" y="523"/>
      <point x="169" y="523" type="curve"/>
      <point x="174" y="586" type="line"/>
      <point x="389" y="586" type="line"/>
    </contour>
  </outline>
</glyph>
<glyph name="seveneighths" format="1">
  <advance width="1000"/>
  <unicode hex="215E"/>
  <outline>
    <contour>
      <point x="779" y="167"/>
      <point x="809" y="150"/>
      <point x="809" y="118" type="curve" smooth="yes"/>
      <point x="809" y="85"/>
      <point x="782" y="69"/>
      <point x="747" y="69" type="curve" smooth="yes"/>
      <point x="711" y="69"/>
      <point x="686" y="85"/>
      <point x="686" y="118" type="curve" smooth="yes"/>
      <point x="686" y="150"/>
      <point x="714" y="167"/>
      <point x="747" y="167" type="curve" smooth="yes"/>
    </contour>
    <contour>
      <point x="649" y="414"/>
      <point x="572" y="371"/>
      <point x="572" y="293" type="curve" smooth="yes"/>
      <point x="572" y="246"/>
      <point x="596" y="227"/>
      <point x="627" y="207" type="curve"/>
      <point x="627" y="202" type="line"/>
      <point x="584" y="180"/>
      <point x="556" y="157"/>
      <point x="556" y="108" type="curve" smooth="yes"/>
      <point x="556" y="30"/>
      <point x="630" y="-12"/>
      <point x="747" y="-12" type="curve" smooth="yes"/>
      <point x="863" y="-12"/>
      <point x="939" y="30"/>
      <point x="939" y="108" type="curve" smooth="yes"/>
      <point x="939" y="157"/>
      <point x="911" y="180"/>
      <point x="867" y="202" type="curve"/>
      <point x="867" y="207" type="line"/>
      <point x="899" y="227"/>
      <point x="922" y="246"/>
      <point x="922" y="293" type="curve" smooth="yes"/>
      <point x="922" y="371"/>
      <point x="844" y="414"/>
      <point x="747" y="414" type="curve" smooth="yes"/>
    </contour>
    <contour>
      <point x="782" y="333"/>
      <point x="809" y="320"/>
      <point x="809" y="288" type="curve" smooth="yes"/>
      <point x="809" y="255"/>
      <point x="779" y="243"/>
      <point x="747" y="243" type="curve" smooth="yes"/>
      <point x="714" y="243"/>
      <point x="686" y="255"/>
      <point x="686" y="288" type="curve" smooth="yes"/>
      <point x="686" y="320"/>
      <point x="711" y="333"/>
      <point x="747" y="333" type="curve" smooth="yes"/>
    </contour>
    <contour>
      <point x="709" y="700" type="line"/>
      <point x="613" y="700" type="line"/>
      <point x="203" y="-12" type="line"/>
      <point x="298" y="-12" type="line"/>
    </contour>
    <contour>
      <point x="437" y="688" type="line"/>
      <point x="57" y="688" type="line"/>
      <point x="57" y="585" type="line"/>
      <point x="273" y="585" type="line"/>
      <point x="191" y="498"/>
      <point x="131" y="390"/>
      <point x="131" y="276" type="curve"/>
      <point x="277" y="276" type="line"/>
      <point x="277" y="311" type="line" smooth="yes"/>
      <point x="277" y="433"/>
      <point x="354" y="539"/>
      <point x="437" y="633" type="curve"/>
    </contour>
  </outline>
</glyph>
<glyph name="arrowright" format="1">
  <advance width="1000"/>
  <unicode hex="2192"/>
  <outline>
    <contour>
      <point x="42" y="189" type="line"/>
      <point x="734" y="189" type="line"/>
      <point x="691" y="50" type="line"/>
      <point x="762" y="50" type="line"/>
      <point x="959" y="242" type="line"/>
      <point x="959" y="263" type="line"/>
      <point x="762" y="455" type="line"/>
      <point x="691" y="455" type="line"/>
      <point x="734" y="316" type="line"/>
      <point x="42" y="316" type="line"/>
    </contour>
  </outline>
</glyph>
<glyph name="arrowupdnbse" format="1">
  <advance width="500"/>
  <unicode hex="21A8"/>
  <outline>
    <contour>
      <point x="452" y="74" type="line"/>
      <point x="452" y="145" type="line"/>
      <point x="312" y="102" type="line"/>
      <point x="312" y="486" type="line"/>
      <point x="452" y="443" type="line"/>
      <point x="452" y="514" type="line"/>
      <point x="260" y="711" type="line"/>
      <point x="239" y="711" type="line"/>
      <point x="46" y="514" type="line"/>
      <point x="46" y="443" type="line"/>
      <point x="186" y="486" type="line"/>
      <point x="186" y="102" type="line"/>
      <point x="46" y="145" type="line"/>
      <point x="46" y="74" type="line"/>
      <point x="239" y="-123" type="line"/>
      <point x="260" y="-123" type="line"/>
    </contour>
    <contour>
      <point x="452" y="-158" type="line"/>
      <point x="46" y="-158" type="line"/>
      <point x="46" y="-220" type="line"/>
      <point x="452" y="-220" type="line"/>
    </contour>
  </outline>
</glyph>
<glyph name="summation" format="1">
  <advance width="713"/>
  <unicode hex="2211"/>
  <outline>
    <contour>
      <point x="658" y="726" type="line"/>
      <point x="42" y="726" type="line"/>
      <point x="42" y="615" type="line"/>
      <point x="268" y="293" type="line"/>
      <point x="29" y="-53" type="line"/>
      <point x="29" y="-138" type="line"/>
      <point x="684" y="-138" type="line"/>
      <point x="684" y="10" type="line"/>
      <point x="267" y="10" type="line"/>
      <point x="267" y="15" type="line"/>
      <point x="478" y="318" type="line"/>
      <point x="301" y="574" type="line"/>
      <point x="301" y="578" type="line"/>
      <point x="658" y="578" type="line"/>
    </contour>
  </outline>
</glyph>
<glyph name="minus" format="1">
  <advance width="660"/>
  <unicode hex="2212"/>
  <outline>
    <contour>
      <point x="594" y="330" type="line"/>
      <point x="66" y="330" type="line"/>
      <point x="66" y="198" type="line"/>
      <point x="594" y="198" type="line"/>
    </contour>
  </outline>
</glyph>
<glyph name="uni2215" format="1">
  <advance width="110"/>
  <unicode hex="2215"/>
  <outline>
    <contour>
      <point x="336" y="700" type="line"/>
      <point x="240" y="700" type="line"/>
      <point x="-170" y="-12" type="line"/>
      <point x="-75" y="-12" type="line"/>
    </contour>
  </outline>
</glyph>
